%TF.GenerationSoftware,KiCad,Pcbnew,(5.1.9-0-10_14)*%
%TF.CreationDate,2021-02-14T15:54:45+00:00*%
%TF.ProjectId,base8x,62617365-3878-42e6-9b69-6361645f7063,rev?*%
%TF.SameCoordinates,Original*%
%TF.FileFunction,Legend,Top*%
%TF.FilePolarity,Positive*%
%FSLAX46Y46*%
G04 Gerber Fmt 4.6, Leading zero omitted, Abs format (unit mm)*
G04 Created by KiCad (PCBNEW (5.1.9-0-10_14)) date 2021-02-14 15:54:45*
%MOMM*%
%LPD*%
G01*
G04 APERTURE LIST*
%ADD10C,0.120000*%
%ADD11C,0.150000*%
G04 APERTURE END LIST*
D10*
%TO.C,SSR-Ithink1*%
X-195621400Y-59868000D02*
X-197621400Y-59868000D01*
X-201571400Y-60068000D02*
X-173371400Y-60068000D01*
X-173371400Y-60068000D02*
X-173371400Y-65268000D01*
X-173371400Y-65268000D02*
X-201571400Y-65268000D01*
X-201571400Y-65268000D02*
X-201571400Y-62468000D01*
X-201571400Y-60068000D02*
X-201571400Y-60468000D01*
%TO.C,D2*%
X-307431640Y-70708520D02*
X-308381640Y-70708520D01*
X-313171640Y-70708520D02*
X-312221640Y-70708520D01*
X-308381640Y-69788520D02*
X-312221640Y-69788520D01*
X-308381640Y-71628520D02*
X-308381640Y-69788520D01*
X-312221640Y-71628520D02*
X-308381640Y-71628520D01*
X-312221640Y-69788520D02*
X-312221640Y-71628520D01*
%TO.C,D1*%
X-292242440Y-46791880D02*
X-293192440Y-46791880D01*
X-297982440Y-46791880D02*
X-297032440Y-46791880D01*
X-293192440Y-45871880D02*
X-297032440Y-45871880D01*
X-293192440Y-47711880D02*
X-293192440Y-45871880D01*
X-297032440Y-47711880D02*
X-293192440Y-47711880D01*
X-297032440Y-45871880D02*
X-297032440Y-47711880D01*
%TO.C,Resistor_SSR1*%
X-198958200Y-87993400D02*
X-198958200Y-87143400D01*
X-198958200Y-70553400D02*
X-198958200Y-71403400D01*
X-196338200Y-87143400D02*
X-196338200Y-71403400D01*
X-201578200Y-87143400D02*
X-196338200Y-87143400D01*
X-201578200Y-71403400D02*
X-201578200Y-87143400D01*
X-196338200Y-71403400D02*
X-201578200Y-71403400D01*
%TO.C,Resistor1*%
X-283618760Y-36062920D02*
X-284468760Y-36062920D01*
X-301058760Y-36062920D02*
X-300208760Y-36062920D01*
X-284468760Y-33442920D02*
X-300208760Y-33442920D01*
X-284468760Y-38682920D02*
X-284468760Y-33442920D01*
X-300208760Y-38682920D02*
X-284468760Y-38682920D01*
X-300208760Y-33442920D02*
X-300208760Y-38682920D01*
%TO.C,R5*%
X-250461600Y-44780200D02*
X-251311600Y-44780200D01*
X-267901600Y-44780200D02*
X-267051600Y-44780200D01*
X-251311600Y-42160200D02*
X-267051600Y-42160200D01*
X-251311600Y-47400200D02*
X-251311600Y-42160200D01*
X-267051600Y-47400200D02*
X-251311600Y-47400200D01*
X-267051600Y-42160200D02*
X-267051600Y-47400200D01*
%TO.C,R4*%
X-293547800Y-57878800D02*
X-293547800Y-58728800D01*
X-293547800Y-75318800D02*
X-293547800Y-74468800D01*
X-296167800Y-58728800D02*
X-296167800Y-74468800D01*
X-290927800Y-58728800D02*
X-296167800Y-58728800D01*
X-290927800Y-74468800D02*
X-290927800Y-58728800D01*
X-296167800Y-74468800D02*
X-290927800Y-74468800D01*
%TO.C,R3*%
X-276047200Y-57675600D02*
X-276047200Y-58525600D01*
X-276047200Y-75115600D02*
X-276047200Y-74265600D01*
X-278667200Y-58525600D02*
X-278667200Y-74265600D01*
X-273427200Y-58525600D02*
X-278667200Y-58525600D01*
X-273427200Y-74265600D02*
X-273427200Y-58525600D01*
X-278667200Y-74265600D02*
X-273427200Y-74265600D01*
%TO.C,R2*%
X-301066200Y-57929600D02*
X-301066200Y-58779600D01*
X-301066200Y-75369600D02*
X-301066200Y-74519600D01*
X-303686200Y-58779600D02*
X-303686200Y-74519600D01*
X-298446200Y-58779600D02*
X-303686200Y-58779600D01*
X-298446200Y-74519600D02*
X-298446200Y-58779600D01*
X-303686200Y-74519600D02*
X-298446200Y-74519600D01*
%TO.C,R1*%
X-284099000Y-57726400D02*
X-284099000Y-58576400D01*
X-284099000Y-75166400D02*
X-284099000Y-74316400D01*
X-286719000Y-58576400D02*
X-286719000Y-74316400D01*
X-281479000Y-58576400D02*
X-286719000Y-58576400D01*
X-281479000Y-74316400D02*
X-281479000Y-58576400D01*
X-286719000Y-74316400D02*
X-281479000Y-74316400D01*
%TO.C,TP5*%
X-270512200Y-74627400D02*
X-270512200Y-71727400D01*
X-267612200Y-74627400D02*
X-270512200Y-74627400D01*
X-267612200Y-71727400D02*
X-267612200Y-74627400D01*
X-270512200Y-71727400D02*
X-267612200Y-71727400D01*
%TO.C,TP4*%
X-309806000Y-80190000D02*
X-309806000Y-77290000D01*
X-306906000Y-80190000D02*
X-309806000Y-80190000D01*
X-306906000Y-77290000D02*
X-306906000Y-80190000D01*
X-309806000Y-77290000D02*
X-306906000Y-77290000D01*
%TO.C,TP3*%
X-267997600Y-70309400D02*
X-267997600Y-67409400D01*
X-265097600Y-70309400D02*
X-267997600Y-70309400D01*
X-265097600Y-67409400D02*
X-265097600Y-70309400D01*
X-267997600Y-67409400D02*
X-265097600Y-67409400D01*
%TO.C,TP2*%
X-272366400Y-70334800D02*
X-272366400Y-67434800D01*
X-269466400Y-70334800D02*
X-272366400Y-70334800D01*
X-269466400Y-67434800D02*
X-269466400Y-70334800D01*
X-272366400Y-67434800D02*
X-269466400Y-67434800D01*
%TO.C,J1*%
X-215120600Y-34506400D02*
X-215620600Y-33506400D01*
X-216120600Y-34506400D02*
X-215120600Y-34506400D01*
X-215620600Y-33506400D02*
X-216120600Y-34506400D01*
X-200250600Y-27886400D02*
X-220830600Y-27886400D01*
X-200250600Y-18766400D02*
X-200250600Y-27886400D01*
X-220830600Y-18766400D02*
X-200250600Y-18766400D01*
X-220830600Y-27886400D02*
X-220830600Y-18766400D01*
X-208490600Y-27886400D02*
X-208490600Y-18766400D01*
X-212590600Y-27886400D02*
X-212590600Y-18766400D01*
%TO.C,J2*%
X-266004500Y-72367900D02*
X-263204500Y-72367900D01*
X-262554500Y-73067900D02*
X-262554500Y-73667900D01*
X-263204500Y-74367900D02*
X-266004500Y-74367900D01*
X-266654500Y-73667900D02*
X-266654500Y-73067900D01*
X-263254500Y-72367900D02*
G75*
G02*
X-262554500Y-73067900I0J-700000D01*
G01*
X-262554500Y-73667900D02*
G75*
G02*
X-263254500Y-74367900I-700000J0D01*
G01*
X-265954500Y-74367900D02*
G75*
G02*
X-266654500Y-73667900I0J700000D01*
G01*
X-266654500Y-73067900D02*
G75*
G02*
X-265954500Y-72367900I700000J0D01*
G01*
%TO.C,J3*%
X-255447800Y-55667600D02*
X-254117800Y-55667600D01*
X-254117800Y-55667600D02*
X-254117800Y-56997600D01*
X-256717800Y-55667600D02*
X-256717800Y-58267600D01*
X-256717800Y-58267600D02*
X-254117800Y-58267600D01*
X-254117800Y-58267600D02*
X-254117800Y-91347600D01*
X-259317800Y-91347600D02*
X-254117800Y-91347600D01*
X-259317800Y-55667600D02*
X-259317800Y-91347600D01*
X-259317800Y-55667600D02*
X-256717800Y-55667600D01*
%TO.C,J4*%
X-271800600Y-56852600D02*
X-271200600Y-56852600D01*
X-272500600Y-60302600D02*
X-272500600Y-57502600D01*
X-271200600Y-60952600D02*
X-271800600Y-60952600D01*
X-270500600Y-57502600D02*
X-270500600Y-60302600D01*
X-271200600Y-56852600D02*
G75*
G02*
X-270500600Y-57552600I0J-700000D01*
G01*
X-272500600Y-57552600D02*
G75*
G02*
X-271800600Y-56852600I700000J0D01*
G01*
X-271800600Y-60952600D02*
G75*
G02*
X-272500600Y-60252600I0J700000D01*
G01*
X-270500600Y-60252600D02*
G75*
G02*
X-271200600Y-60952600I-700000J0D01*
G01*
%TO.C,J9*%
X-234065800Y-32902200D02*
X-234665800Y-32902200D01*
X-234365800Y-32302200D02*
X-234065800Y-32902200D01*
X-234665800Y-32902200D02*
X-234365800Y-32302200D01*
X-261075800Y-31612200D02*
X-261075800Y-22192200D01*
X-232155800Y-31612200D02*
X-232155800Y-22192200D01*
X-232155800Y-25502200D02*
X-261075800Y-25502200D01*
X-256415800Y-31612200D02*
X-257815800Y-31612200D01*
X-252915800Y-31612200D02*
X-254315800Y-31612200D01*
X-249415800Y-31612200D02*
X-250815800Y-31612200D01*
X-245915800Y-31612200D02*
X-247315800Y-31612200D01*
X-242415800Y-31612200D02*
X-243815800Y-31612200D01*
X-238915800Y-31612200D02*
X-240315800Y-31612200D01*
X-235415800Y-31612200D02*
X-236815800Y-31612200D01*
X-265875800Y-31612200D02*
X-259915800Y-31612200D01*
X-227355800Y-31612200D02*
X-233315800Y-31612200D01*
X-265875800Y-22192200D02*
X-265875800Y-31612200D01*
X-227355800Y-22192200D02*
X-265875800Y-22192200D01*
X-227355800Y-31612200D02*
X-227355800Y-22192200D01*
%TO.C,JP2*%
X-306409320Y-45644560D02*
X-305009320Y-45644560D01*
X-304309320Y-46344560D02*
X-304309320Y-46944560D01*
X-305009320Y-47644560D02*
X-306409320Y-47644560D01*
X-307109320Y-46944560D02*
X-307109320Y-46344560D01*
X-305009320Y-45644560D02*
G75*
G02*
X-304309320Y-46344560I0J-700000D01*
G01*
X-304309320Y-46944560D02*
G75*
G02*
X-305009320Y-47644560I-700000J0D01*
G01*
X-306409320Y-47644560D02*
G75*
G02*
X-307109320Y-46944560I0J700000D01*
G01*
X-307109320Y-46344560D02*
G75*
G02*
X-306409320Y-45644560I700000J0D01*
G01*
%TO.C,JP3*%
X-289364880Y-47061400D02*
X-289364880Y-46461400D01*
X-287264880Y-47761400D02*
X-288664880Y-47761400D01*
X-286564880Y-46461400D02*
X-286564880Y-47061400D01*
X-288664880Y-45761400D02*
X-287264880Y-45761400D01*
X-289364880Y-46461400D02*
G75*
G02*
X-288664880Y-45761400I700000J0D01*
G01*
X-288664880Y-47761400D02*
G75*
G02*
X-289364880Y-47061400I0J700000D01*
G01*
X-286564880Y-47061400D02*
G75*
G02*
X-287264880Y-47761400I-700000J0D01*
G01*
X-287264880Y-45761400D02*
G75*
G02*
X-286564880Y-46461400I0J-700000D01*
G01*
%TO.C,JP4*%
X-313394600Y-75947500D02*
X-313394600Y-74547500D01*
X-312694600Y-73847500D02*
X-312094600Y-73847500D01*
X-311394600Y-74547500D02*
X-311394600Y-75947500D01*
X-312094600Y-76647500D02*
X-312694600Y-76647500D01*
X-313394600Y-74547500D02*
G75*
G02*
X-312694600Y-73847500I700000J0D01*
G01*
X-312094600Y-73847500D02*
G75*
G02*
X-311394600Y-74547500I0J-700000D01*
G01*
X-311394600Y-75947500D02*
G75*
G02*
X-312094600Y-76647500I-700000J0D01*
G01*
X-312694600Y-76647500D02*
G75*
G02*
X-313394600Y-75947500I0J700000D01*
G01*
%TO.C,JP5*%
X-306404240Y-72431400D02*
X-305004240Y-72431400D01*
X-304304240Y-73131400D02*
X-304304240Y-73731400D01*
X-305004240Y-74431400D02*
X-306404240Y-74431400D01*
X-307104240Y-73731400D02*
X-307104240Y-73131400D01*
X-305004240Y-72431400D02*
G75*
G02*
X-304304240Y-73131400I0J-700000D01*
G01*
X-304304240Y-73731400D02*
G75*
G02*
X-305004240Y-74431400I-700000J0D01*
G01*
X-306404240Y-74431400D02*
G75*
G02*
X-307104240Y-73731400I0J700000D01*
G01*
X-307104240Y-73131400D02*
G75*
G02*
X-306404240Y-72431400I700000J0D01*
G01*
%TO.C,P3*%
X-256879400Y-40344400D02*
X-254219400Y-40344400D01*
X-256879400Y-37744400D02*
X-256879400Y-40344400D01*
X-254219400Y-37744400D02*
X-254219400Y-40344400D01*
X-256879400Y-37744400D02*
X-254219400Y-37744400D01*
X-256879400Y-36474400D02*
X-256879400Y-35144400D01*
X-256879400Y-35144400D02*
X-255549400Y-35144400D01*
%TO.C,P4*%
X-248370400Y-36890000D02*
X-248370400Y-35560000D01*
X-247040400Y-36890000D02*
X-248370400Y-36890000D01*
X-245770400Y-36890000D02*
X-245770400Y-34230000D01*
X-245770400Y-34230000D02*
X-243170400Y-34230000D01*
X-245770400Y-36890000D02*
X-243170400Y-36890000D01*
X-243170400Y-36890000D02*
X-243170400Y-34230000D01*
%TO.C,Raspberry_header1*%
X-244856000Y-55667600D02*
X-243526000Y-55667600D01*
X-243526000Y-55667600D02*
X-243526000Y-56997600D01*
X-246126000Y-55667600D02*
X-246126000Y-58267600D01*
X-246126000Y-58267600D02*
X-243526000Y-58267600D01*
X-243526000Y-58267600D02*
X-243526000Y-106587600D01*
X-248726000Y-106587600D02*
X-243526000Y-106587600D01*
X-248726000Y-55667600D02*
X-248726000Y-106587600D01*
X-248726000Y-55667600D02*
X-246126000Y-55667600D01*
%TO.C,SSR_connector1*%
X-179612600Y-70383400D02*
X-179612600Y-69053400D01*
X-179612600Y-69053400D02*
X-178282600Y-69053400D01*
X-177012600Y-69053400D02*
X-174412600Y-69053400D01*
X-174412600Y-71713400D02*
X-174412600Y-69053400D01*
X-177012600Y-71713400D02*
X-174412600Y-71713400D01*
X-177012600Y-71713400D02*
X-177012600Y-69053400D01*
%TO.C,Temp_sensor1*%
X-282321000Y-39995800D02*
X-280991000Y-39995800D01*
X-280991000Y-39995800D02*
X-280991000Y-41325800D01*
X-280991000Y-42595800D02*
X-280991000Y-47735800D01*
X-283651000Y-47735800D02*
X-280991000Y-47735800D01*
X-283651000Y-42595800D02*
X-283651000Y-47735800D01*
X-283651000Y-42595800D02*
X-280991000Y-42595800D01*
D11*
%TO.C,U1*%
X-270457800Y-62964400D02*
X-271682800Y-62964400D01*
X-270457800Y-66089400D02*
X-267107800Y-66089400D01*
X-270457800Y-62739400D02*
X-267107800Y-62739400D01*
X-270457800Y-66089400D02*
X-270457800Y-65789400D01*
X-267107800Y-66089400D02*
X-267107800Y-65789400D01*
X-267107800Y-62739400D02*
X-267107800Y-63039400D01*
X-270457800Y-62739400D02*
X-270457800Y-62964400D01*
D10*
%TO.C,TP1*%
X-253265600Y-86561000D02*
X-250365600Y-86561000D01*
X-250365600Y-86561000D02*
X-250365600Y-89461000D01*
X-250365600Y-89461000D02*
X-253265600Y-89461000D01*
X-253265600Y-89461000D02*
X-253265600Y-86561000D01*
%TO.C,TP6*%
X-250786560Y-40972400D02*
X-250786560Y-38072400D01*
X-247886560Y-40972400D02*
X-250786560Y-40972400D01*
X-247886560Y-38072400D02*
X-247886560Y-40972400D01*
X-250786560Y-38072400D02*
X-247886560Y-38072400D01*
%TO.C,C1*%
X-280848000Y-51003200D02*
G75*
G03*
X-280848000Y-51003200I-2120000J0D01*
G01*
X-282968000Y-51843200D02*
X-282968000Y-53083200D01*
X-282968000Y-48923200D02*
X-282968000Y-50163200D01*
X-282928000Y-51843200D02*
X-282928000Y-53083200D01*
X-282928000Y-48923200D02*
X-282928000Y-50163200D01*
X-282888000Y-51843200D02*
X-282888000Y-53082200D01*
X-282888000Y-48924200D02*
X-282888000Y-50163200D01*
X-282848000Y-48926200D02*
X-282848000Y-50163200D01*
X-282848000Y-51843200D02*
X-282848000Y-53080200D01*
X-282808000Y-48929200D02*
X-282808000Y-50163200D01*
X-282808000Y-51843200D02*
X-282808000Y-53077200D01*
X-282768000Y-48932200D02*
X-282768000Y-50163200D01*
X-282768000Y-51843200D02*
X-282768000Y-53074200D01*
X-282728000Y-48936200D02*
X-282728000Y-50163200D01*
X-282728000Y-51843200D02*
X-282728000Y-53070200D01*
X-282688000Y-48941200D02*
X-282688000Y-50163200D01*
X-282688000Y-51843200D02*
X-282688000Y-53065200D01*
X-282648000Y-48947200D02*
X-282648000Y-50163200D01*
X-282648000Y-51843200D02*
X-282648000Y-53059200D01*
X-282608000Y-48953200D02*
X-282608000Y-50163200D01*
X-282608000Y-51843200D02*
X-282608000Y-53053200D01*
X-282568000Y-48961200D02*
X-282568000Y-50163200D01*
X-282568000Y-51843200D02*
X-282568000Y-53045200D01*
X-282528000Y-48969200D02*
X-282528000Y-50163200D01*
X-282528000Y-51843200D02*
X-282528000Y-53037200D01*
X-282488000Y-48978200D02*
X-282488000Y-50163200D01*
X-282488000Y-51843200D02*
X-282488000Y-53028200D01*
X-282448000Y-48987200D02*
X-282448000Y-50163200D01*
X-282448000Y-51843200D02*
X-282448000Y-53019200D01*
X-282408000Y-48998200D02*
X-282408000Y-50163200D01*
X-282408000Y-51843200D02*
X-282408000Y-53008200D01*
X-282368000Y-49009200D02*
X-282368000Y-50163200D01*
X-282368000Y-51843200D02*
X-282368000Y-52997200D01*
X-282328000Y-49021200D02*
X-282328000Y-50163200D01*
X-282328000Y-51843200D02*
X-282328000Y-52985200D01*
X-282288000Y-49035200D02*
X-282288000Y-50163200D01*
X-282288000Y-51843200D02*
X-282288000Y-52971200D01*
X-282247000Y-49049200D02*
X-282247000Y-50163200D01*
X-282247000Y-51843200D02*
X-282247000Y-52957200D01*
X-282207000Y-49063200D02*
X-282207000Y-50163200D01*
X-282207000Y-51843200D02*
X-282207000Y-52943200D01*
X-282167000Y-49079200D02*
X-282167000Y-50163200D01*
X-282167000Y-51843200D02*
X-282167000Y-52927200D01*
X-282127000Y-49096200D02*
X-282127000Y-50163200D01*
X-282127000Y-51843200D02*
X-282127000Y-52910200D01*
X-282087000Y-49114200D02*
X-282087000Y-50163200D01*
X-282087000Y-51843200D02*
X-282087000Y-52892200D01*
X-282047000Y-49133200D02*
X-282047000Y-50163200D01*
X-282047000Y-51843200D02*
X-282047000Y-52873200D01*
X-282007000Y-49152200D02*
X-282007000Y-50163200D01*
X-282007000Y-51843200D02*
X-282007000Y-52854200D01*
X-281967000Y-49173200D02*
X-281967000Y-50163200D01*
X-281967000Y-51843200D02*
X-281967000Y-52833200D01*
X-281927000Y-49195200D02*
X-281927000Y-50163200D01*
X-281927000Y-51843200D02*
X-281927000Y-52811200D01*
X-281887000Y-49218200D02*
X-281887000Y-50163200D01*
X-281887000Y-51843200D02*
X-281887000Y-52788200D01*
X-281847000Y-49243200D02*
X-281847000Y-50163200D01*
X-281847000Y-51843200D02*
X-281847000Y-52763200D01*
X-281807000Y-49268200D02*
X-281807000Y-50163200D01*
X-281807000Y-51843200D02*
X-281807000Y-52738200D01*
X-281767000Y-49295200D02*
X-281767000Y-50163200D01*
X-281767000Y-51843200D02*
X-281767000Y-52711200D01*
X-281727000Y-49323200D02*
X-281727000Y-50163200D01*
X-281727000Y-51843200D02*
X-281727000Y-52683200D01*
X-281687000Y-49353200D02*
X-281687000Y-50163200D01*
X-281687000Y-51843200D02*
X-281687000Y-52653200D01*
X-281647000Y-49384200D02*
X-281647000Y-50163200D01*
X-281647000Y-51843200D02*
X-281647000Y-52622200D01*
X-281607000Y-49416200D02*
X-281607000Y-50163200D01*
X-281607000Y-51843200D02*
X-281607000Y-52590200D01*
X-281567000Y-49451200D02*
X-281567000Y-50163200D01*
X-281567000Y-51843200D02*
X-281567000Y-52555200D01*
X-281527000Y-49487200D02*
X-281527000Y-50163200D01*
X-281527000Y-51843200D02*
X-281527000Y-52519200D01*
X-281487000Y-49525200D02*
X-281487000Y-50163200D01*
X-281487000Y-51843200D02*
X-281487000Y-52481200D01*
X-281447000Y-49565200D02*
X-281447000Y-50163200D01*
X-281447000Y-51843200D02*
X-281447000Y-52441200D01*
X-281407000Y-49607200D02*
X-281407000Y-50163200D01*
X-281407000Y-51843200D02*
X-281407000Y-52399200D01*
X-281367000Y-49652200D02*
X-281367000Y-52354200D01*
X-281327000Y-49699200D02*
X-281327000Y-52307200D01*
X-281287000Y-49749200D02*
X-281287000Y-52257200D01*
X-281247000Y-49803200D02*
X-281247000Y-52203200D01*
X-281207000Y-49861200D02*
X-281207000Y-52145200D01*
X-281167000Y-49923200D02*
X-281167000Y-52083200D01*
X-281127000Y-49990200D02*
X-281127000Y-52016200D01*
X-281087000Y-50063200D02*
X-281087000Y-51943200D01*
X-281047000Y-50144200D02*
X-281047000Y-51862200D01*
X-281007000Y-50235200D02*
X-281007000Y-51771200D01*
X-280967000Y-50339200D02*
X-280967000Y-51667200D01*
X-280927000Y-50466200D02*
X-280927000Y-51540200D01*
X-280887000Y-50633200D02*
X-280887000Y-51373200D01*
X-285237801Y-49808200D02*
X-284837801Y-49808200D01*
X-285037801Y-49608200D02*
X-285037801Y-50008200D01*
%TO.C,SSR-Ithink1*%
D11*
X-190799971Y-59672761D02*
X-190657114Y-59720380D01*
X-190419019Y-59720380D01*
X-190323780Y-59672761D01*
X-190276161Y-59625142D01*
X-190228542Y-59529904D01*
X-190228542Y-59434666D01*
X-190276161Y-59339428D01*
X-190323780Y-59291809D01*
X-190419019Y-59244190D01*
X-190609495Y-59196571D01*
X-190704733Y-59148952D01*
X-190752352Y-59101333D01*
X-190799971Y-59006095D01*
X-190799971Y-58910857D01*
X-190752352Y-58815619D01*
X-190704733Y-58768000D01*
X-190609495Y-58720380D01*
X-190371400Y-58720380D01*
X-190228542Y-58768000D01*
X-189847590Y-59672761D02*
X-189704733Y-59720380D01*
X-189466638Y-59720380D01*
X-189371400Y-59672761D01*
X-189323780Y-59625142D01*
X-189276161Y-59529904D01*
X-189276161Y-59434666D01*
X-189323780Y-59339428D01*
X-189371400Y-59291809D01*
X-189466638Y-59244190D01*
X-189657114Y-59196571D01*
X-189752352Y-59148952D01*
X-189799971Y-59101333D01*
X-189847590Y-59006095D01*
X-189847590Y-58910857D01*
X-189799971Y-58815619D01*
X-189752352Y-58768000D01*
X-189657114Y-58720380D01*
X-189419019Y-58720380D01*
X-189276161Y-58768000D01*
X-188276161Y-59720380D02*
X-188609495Y-59244190D01*
X-188847590Y-59720380D02*
X-188847590Y-58720380D01*
X-188466638Y-58720380D01*
X-188371400Y-58768000D01*
X-188323780Y-58815619D01*
X-188276161Y-58910857D01*
X-188276161Y-59053714D01*
X-188323780Y-59148952D01*
X-188371400Y-59196571D01*
X-188466638Y-59244190D01*
X-188847590Y-59244190D01*
X-187847590Y-59339428D02*
X-187085685Y-59339428D01*
X-186609495Y-59720380D02*
X-186609495Y-58720380D01*
X-186276161Y-59053714D02*
X-185895209Y-59053714D01*
X-186133304Y-58720380D02*
X-186133304Y-59577523D01*
X-186085685Y-59672761D01*
X-185990447Y-59720380D01*
X-185895209Y-59720380D01*
X-185561876Y-59720380D02*
X-185561876Y-58720380D01*
X-185133304Y-59720380D02*
X-185133304Y-59196571D01*
X-185180923Y-59101333D01*
X-185276161Y-59053714D01*
X-185419019Y-59053714D01*
X-185514257Y-59101333D01*
X-185561876Y-59148952D01*
X-184657114Y-59720380D02*
X-184657114Y-59053714D01*
X-184657114Y-58720380D02*
X-184704733Y-58768000D01*
X-184657114Y-58815619D01*
X-184609495Y-58768000D01*
X-184657114Y-58720380D01*
X-184657114Y-58815619D01*
X-184180923Y-59053714D02*
X-184180923Y-59720380D01*
X-184180923Y-59148952D02*
X-184133304Y-59101333D01*
X-184038066Y-59053714D01*
X-183895209Y-59053714D01*
X-183799971Y-59101333D01*
X-183752352Y-59196571D01*
X-183752352Y-59720380D01*
X-183276161Y-59720380D02*
X-183276161Y-58720380D01*
X-183180923Y-59339428D02*
X-182895209Y-59720380D01*
X-182895209Y-59053714D02*
X-183276161Y-59434666D01*
X-181942828Y-59720380D02*
X-182514257Y-59720380D01*
X-182228542Y-59720380D02*
X-182228542Y-58720380D01*
X-182323780Y-58863238D01*
X-182419019Y-58958476D01*
X-182514257Y-59006095D01*
%TO.C,D2*%
X-311039735Y-69240900D02*
X-311039735Y-68240900D01*
X-310801640Y-68240900D01*
X-310658782Y-68288520D01*
X-310563544Y-68383758D01*
X-310515925Y-68478996D01*
X-310468306Y-68669472D01*
X-310468306Y-68812329D01*
X-310515925Y-69002805D01*
X-310563544Y-69098043D01*
X-310658782Y-69193281D01*
X-310801640Y-69240900D01*
X-311039735Y-69240900D01*
X-310087354Y-68336139D02*
X-310039735Y-68288520D01*
X-309944497Y-68240900D01*
X-309706401Y-68240900D01*
X-309611163Y-68288520D01*
X-309563544Y-68336139D01*
X-309515925Y-68431377D01*
X-309515925Y-68526615D01*
X-309563544Y-68669472D01*
X-310134973Y-69240900D01*
X-309515925Y-69240900D01*
%TO.C,D1*%
X-295850535Y-45324260D02*
X-295850535Y-44324260D01*
X-295612440Y-44324260D01*
X-295469582Y-44371880D01*
X-295374344Y-44467118D01*
X-295326725Y-44562356D01*
X-295279106Y-44752832D01*
X-295279106Y-44895689D01*
X-295326725Y-45086165D01*
X-295374344Y-45181403D01*
X-295469582Y-45276641D01*
X-295612440Y-45324260D01*
X-295850535Y-45324260D01*
X-294326725Y-45324260D02*
X-294898154Y-45324260D01*
X-294612440Y-45324260D02*
X-294612440Y-44324260D01*
X-294707678Y-44467118D01*
X-294802916Y-44562356D01*
X-294898154Y-44609975D01*
%TO.C,Resistor_SSR1*%
X-194885819Y-83797209D02*
X-195362009Y-84130542D01*
X-194885819Y-84368638D02*
X-195885819Y-84368638D01*
X-195885819Y-83987685D01*
X-195838200Y-83892447D01*
X-195790580Y-83844828D01*
X-195695342Y-83797209D01*
X-195552485Y-83797209D01*
X-195457247Y-83844828D01*
X-195409628Y-83892447D01*
X-195362009Y-83987685D01*
X-195362009Y-84368638D01*
X-194933438Y-82987685D02*
X-194885819Y-83082923D01*
X-194885819Y-83273400D01*
X-194933438Y-83368638D01*
X-195028676Y-83416257D01*
X-195409628Y-83416257D01*
X-195504866Y-83368638D01*
X-195552485Y-83273400D01*
X-195552485Y-83082923D01*
X-195504866Y-82987685D01*
X-195409628Y-82940066D01*
X-195314390Y-82940066D01*
X-195219152Y-83416257D01*
X-194933438Y-82559114D02*
X-194885819Y-82463876D01*
X-194885819Y-82273400D01*
X-194933438Y-82178161D01*
X-195028676Y-82130542D01*
X-195076295Y-82130542D01*
X-195171533Y-82178161D01*
X-195219152Y-82273400D01*
X-195219152Y-82416257D01*
X-195266771Y-82511495D01*
X-195362009Y-82559114D01*
X-195409628Y-82559114D01*
X-195504866Y-82511495D01*
X-195552485Y-82416257D01*
X-195552485Y-82273400D01*
X-195504866Y-82178161D01*
X-194885819Y-81701971D02*
X-195552485Y-81701971D01*
X-195885819Y-81701971D02*
X-195838200Y-81749590D01*
X-195790580Y-81701971D01*
X-195838200Y-81654352D01*
X-195885819Y-81701971D01*
X-195790580Y-81701971D01*
X-194933438Y-81273400D02*
X-194885819Y-81178161D01*
X-194885819Y-80987685D01*
X-194933438Y-80892447D01*
X-195028676Y-80844828D01*
X-195076295Y-80844828D01*
X-195171533Y-80892447D01*
X-195219152Y-80987685D01*
X-195219152Y-81130542D01*
X-195266771Y-81225780D01*
X-195362009Y-81273400D01*
X-195409628Y-81273400D01*
X-195504866Y-81225780D01*
X-195552485Y-81130542D01*
X-195552485Y-80987685D01*
X-195504866Y-80892447D01*
X-195552485Y-80559114D02*
X-195552485Y-80178161D01*
X-195885819Y-80416257D02*
X-195028676Y-80416257D01*
X-194933438Y-80368638D01*
X-194885819Y-80273400D01*
X-194885819Y-80178161D01*
X-194885819Y-79701971D02*
X-194933438Y-79797209D01*
X-194981057Y-79844828D01*
X-195076295Y-79892447D01*
X-195362009Y-79892447D01*
X-195457247Y-79844828D01*
X-195504866Y-79797209D01*
X-195552485Y-79701971D01*
X-195552485Y-79559114D01*
X-195504866Y-79463876D01*
X-195457247Y-79416257D01*
X-195362009Y-79368638D01*
X-195076295Y-79368638D01*
X-194981057Y-79416257D01*
X-194933438Y-79463876D01*
X-194885819Y-79559114D01*
X-194885819Y-79701971D01*
X-194885819Y-78940066D02*
X-195552485Y-78940066D01*
X-195362009Y-78940066D02*
X-195457247Y-78892447D01*
X-195504866Y-78844828D01*
X-195552485Y-78749590D01*
X-195552485Y-78654352D01*
X-194790580Y-78559114D02*
X-194790580Y-77797209D01*
X-194933438Y-77606733D02*
X-194885819Y-77463876D01*
X-194885819Y-77225780D01*
X-194933438Y-77130542D01*
X-194981057Y-77082923D01*
X-195076295Y-77035304D01*
X-195171533Y-77035304D01*
X-195266771Y-77082923D01*
X-195314390Y-77130542D01*
X-195362009Y-77225780D01*
X-195409628Y-77416257D01*
X-195457247Y-77511495D01*
X-195504866Y-77559114D01*
X-195600104Y-77606733D01*
X-195695342Y-77606733D01*
X-195790580Y-77559114D01*
X-195838200Y-77511495D01*
X-195885819Y-77416257D01*
X-195885819Y-77178161D01*
X-195838200Y-77035304D01*
X-194933438Y-76654352D02*
X-194885819Y-76511495D01*
X-194885819Y-76273400D01*
X-194933438Y-76178161D01*
X-194981057Y-76130542D01*
X-195076295Y-76082923D01*
X-195171533Y-76082923D01*
X-195266771Y-76130542D01*
X-195314390Y-76178161D01*
X-195362009Y-76273400D01*
X-195409628Y-76463876D01*
X-195457247Y-76559114D01*
X-195504866Y-76606733D01*
X-195600104Y-76654352D01*
X-195695342Y-76654352D01*
X-195790580Y-76606733D01*
X-195838200Y-76559114D01*
X-195885819Y-76463876D01*
X-195885819Y-76225780D01*
X-195838200Y-76082923D01*
X-194885819Y-75082923D02*
X-195362009Y-75416257D01*
X-194885819Y-75654352D02*
X-195885819Y-75654352D01*
X-195885819Y-75273400D01*
X-195838200Y-75178161D01*
X-195790580Y-75130542D01*
X-195695342Y-75082923D01*
X-195552485Y-75082923D01*
X-195457247Y-75130542D01*
X-195409628Y-75178161D01*
X-195362009Y-75273400D01*
X-195362009Y-75654352D01*
X-194885819Y-74130542D02*
X-194885819Y-74701971D01*
X-194885819Y-74416257D02*
X-195885819Y-74416257D01*
X-195742961Y-74511495D01*
X-195647723Y-74606733D01*
X-195600104Y-74701971D01*
%TO.C,Resistor1*%
X-295029236Y-32895300D02*
X-295362569Y-32419110D01*
X-295600664Y-32895300D02*
X-295600664Y-31895300D01*
X-295219712Y-31895300D01*
X-295124474Y-31942920D01*
X-295076855Y-31990539D01*
X-295029236Y-32085777D01*
X-295029236Y-32228634D01*
X-295076855Y-32323872D01*
X-295124474Y-32371491D01*
X-295219712Y-32419110D01*
X-295600664Y-32419110D01*
X-294219712Y-32847681D02*
X-294314950Y-32895300D01*
X-294505426Y-32895300D01*
X-294600664Y-32847681D01*
X-294648283Y-32752443D01*
X-294648283Y-32371491D01*
X-294600664Y-32276253D01*
X-294505426Y-32228634D01*
X-294314950Y-32228634D01*
X-294219712Y-32276253D01*
X-294172093Y-32371491D01*
X-294172093Y-32466729D01*
X-294648283Y-32561967D01*
X-293791140Y-32847681D02*
X-293695902Y-32895300D01*
X-293505426Y-32895300D01*
X-293410188Y-32847681D01*
X-293362569Y-32752443D01*
X-293362569Y-32704824D01*
X-293410188Y-32609586D01*
X-293505426Y-32561967D01*
X-293648283Y-32561967D01*
X-293743521Y-32514348D01*
X-293791140Y-32419110D01*
X-293791140Y-32371491D01*
X-293743521Y-32276253D01*
X-293648283Y-32228634D01*
X-293505426Y-32228634D01*
X-293410188Y-32276253D01*
X-292933998Y-32895300D02*
X-292933998Y-32228634D01*
X-292933998Y-31895300D02*
X-292981617Y-31942920D01*
X-292933998Y-31990539D01*
X-292886379Y-31942920D01*
X-292933998Y-31895300D01*
X-292933998Y-31990539D01*
X-292505426Y-32847681D02*
X-292410188Y-32895300D01*
X-292219712Y-32895300D01*
X-292124474Y-32847681D01*
X-292076855Y-32752443D01*
X-292076855Y-32704824D01*
X-292124474Y-32609586D01*
X-292219712Y-32561967D01*
X-292362569Y-32561967D01*
X-292457807Y-32514348D01*
X-292505426Y-32419110D01*
X-292505426Y-32371491D01*
X-292457807Y-32276253D01*
X-292362569Y-32228634D01*
X-292219712Y-32228634D01*
X-292124474Y-32276253D01*
X-291791140Y-32228634D02*
X-291410188Y-32228634D01*
X-291648283Y-31895300D02*
X-291648283Y-32752443D01*
X-291600664Y-32847681D01*
X-291505426Y-32895300D01*
X-291410188Y-32895300D01*
X-290933998Y-32895300D02*
X-291029236Y-32847681D01*
X-291076855Y-32800062D01*
X-291124474Y-32704824D01*
X-291124474Y-32419110D01*
X-291076855Y-32323872D01*
X-291029236Y-32276253D01*
X-290933998Y-32228634D01*
X-290791140Y-32228634D01*
X-290695902Y-32276253D01*
X-290648283Y-32323872D01*
X-290600664Y-32419110D01*
X-290600664Y-32704824D01*
X-290648283Y-32800062D01*
X-290695902Y-32847681D01*
X-290791140Y-32895300D01*
X-290933998Y-32895300D01*
X-290172093Y-32895300D02*
X-290172093Y-32228634D01*
X-290172093Y-32419110D02*
X-290124474Y-32323872D01*
X-290076855Y-32276253D01*
X-289981617Y-32228634D01*
X-289886379Y-32228634D01*
X-289029236Y-32895300D02*
X-289600664Y-32895300D01*
X-289314950Y-32895300D02*
X-289314950Y-31895300D01*
X-289410188Y-32038158D01*
X-289505426Y-32133396D01*
X-289600664Y-32181015D01*
%TO.C,R5*%
X-259348266Y-41612580D02*
X-259681600Y-41136390D01*
X-259919695Y-41612580D02*
X-259919695Y-40612580D01*
X-259538742Y-40612580D01*
X-259443504Y-40660200D01*
X-259395885Y-40707819D01*
X-259348266Y-40803057D01*
X-259348266Y-40945914D01*
X-259395885Y-41041152D01*
X-259443504Y-41088771D01*
X-259538742Y-41136390D01*
X-259919695Y-41136390D01*
X-258443504Y-40612580D02*
X-258919695Y-40612580D01*
X-258967314Y-41088771D01*
X-258919695Y-41041152D01*
X-258824457Y-40993533D01*
X-258586361Y-40993533D01*
X-258491123Y-41041152D01*
X-258443504Y-41088771D01*
X-258395885Y-41184009D01*
X-258395885Y-41422104D01*
X-258443504Y-41517342D01*
X-258491123Y-41564961D01*
X-258586361Y-41612580D01*
X-258824457Y-41612580D01*
X-258919695Y-41564961D01*
X-258967314Y-41517342D01*
%TO.C,R4*%
X-296715419Y-66765466D02*
X-297191609Y-67098800D01*
X-296715419Y-67336895D02*
X-297715419Y-67336895D01*
X-297715419Y-66955942D01*
X-297667800Y-66860704D01*
X-297620180Y-66813085D01*
X-297524942Y-66765466D01*
X-297382085Y-66765466D01*
X-297286847Y-66813085D01*
X-297239228Y-66860704D01*
X-297191609Y-66955942D01*
X-297191609Y-67336895D01*
X-297382085Y-65908323D02*
X-296715419Y-65908323D01*
X-297763038Y-66146419D02*
X-297048752Y-66384514D01*
X-297048752Y-65765466D01*
%TO.C,R3*%
X-279214819Y-66562266D02*
X-279691009Y-66895600D01*
X-279214819Y-67133695D02*
X-280214819Y-67133695D01*
X-280214819Y-66752742D01*
X-280167200Y-66657504D01*
X-280119580Y-66609885D01*
X-280024342Y-66562266D01*
X-279881485Y-66562266D01*
X-279786247Y-66609885D01*
X-279738628Y-66657504D01*
X-279691009Y-66752742D01*
X-279691009Y-67133695D01*
X-280214819Y-66228933D02*
X-280214819Y-65609885D01*
X-279833866Y-65943219D01*
X-279833866Y-65800361D01*
X-279786247Y-65705123D01*
X-279738628Y-65657504D01*
X-279643390Y-65609885D01*
X-279405295Y-65609885D01*
X-279310057Y-65657504D01*
X-279262438Y-65705123D01*
X-279214819Y-65800361D01*
X-279214819Y-66086076D01*
X-279262438Y-66181314D01*
X-279310057Y-66228933D01*
%TO.C,R2*%
X-304233819Y-66816266D02*
X-304710009Y-67149600D01*
X-304233819Y-67387695D02*
X-305233819Y-67387695D01*
X-305233819Y-67006742D01*
X-305186200Y-66911504D01*
X-305138580Y-66863885D01*
X-305043342Y-66816266D01*
X-304900485Y-66816266D01*
X-304805247Y-66863885D01*
X-304757628Y-66911504D01*
X-304710009Y-67006742D01*
X-304710009Y-67387695D01*
X-305138580Y-66435314D02*
X-305186200Y-66387695D01*
X-305233819Y-66292457D01*
X-305233819Y-66054361D01*
X-305186200Y-65959123D01*
X-305138580Y-65911504D01*
X-305043342Y-65863885D01*
X-304948104Y-65863885D01*
X-304805247Y-65911504D01*
X-304233819Y-66482933D01*
X-304233819Y-65863885D01*
%TO.C,R1*%
X-287266619Y-66613066D02*
X-287742809Y-66946400D01*
X-287266619Y-67184495D02*
X-288266619Y-67184495D01*
X-288266619Y-66803542D01*
X-288219000Y-66708304D01*
X-288171380Y-66660685D01*
X-288076142Y-66613066D01*
X-287933285Y-66613066D01*
X-287838047Y-66660685D01*
X-287790428Y-66708304D01*
X-287742809Y-66803542D01*
X-287742809Y-67184495D01*
X-287266619Y-65660685D02*
X-287266619Y-66232114D01*
X-287266619Y-65946400D02*
X-288266619Y-65946400D01*
X-288123761Y-66041638D01*
X-288028523Y-66136876D01*
X-287980904Y-66232114D01*
%TO.C,TP5*%
X-270324104Y-70481780D02*
X-269752676Y-70481780D01*
X-270038390Y-71481780D02*
X-270038390Y-70481780D01*
X-269419342Y-71481780D02*
X-269419342Y-70481780D01*
X-269038390Y-70481780D01*
X-268943152Y-70529400D01*
X-268895533Y-70577019D01*
X-268847914Y-70672257D01*
X-268847914Y-70815114D01*
X-268895533Y-70910352D01*
X-268943152Y-70957971D01*
X-269038390Y-71005590D01*
X-269419342Y-71005590D01*
X-267943152Y-70481780D02*
X-268419342Y-70481780D01*
X-268466961Y-70957971D01*
X-268419342Y-70910352D01*
X-268324104Y-70862733D01*
X-268086009Y-70862733D01*
X-267990771Y-70910352D01*
X-267943152Y-70957971D01*
X-267895533Y-71053209D01*
X-267895533Y-71291304D01*
X-267943152Y-71386542D01*
X-267990771Y-71434161D01*
X-268086009Y-71481780D01*
X-268324104Y-71481780D01*
X-268419342Y-71434161D01*
X-268466961Y-71386542D01*
%TO.C,TP4*%
X-309617904Y-76044380D02*
X-309046476Y-76044380D01*
X-309332190Y-77044380D02*
X-309332190Y-76044380D01*
X-308713142Y-77044380D02*
X-308713142Y-76044380D01*
X-308332190Y-76044380D01*
X-308236952Y-76092000D01*
X-308189333Y-76139619D01*
X-308141714Y-76234857D01*
X-308141714Y-76377714D01*
X-308189333Y-76472952D01*
X-308236952Y-76520571D01*
X-308332190Y-76568190D01*
X-308713142Y-76568190D01*
X-307284571Y-76377714D02*
X-307284571Y-77044380D01*
X-307522666Y-75996761D02*
X-307760761Y-76711047D01*
X-307141714Y-76711047D01*
%TO.C,TP3*%
X-267809504Y-66163780D02*
X-267238076Y-66163780D01*
X-267523790Y-67163780D02*
X-267523790Y-66163780D01*
X-266904742Y-67163780D02*
X-266904742Y-66163780D01*
X-266523790Y-66163780D01*
X-266428552Y-66211400D01*
X-266380933Y-66259019D01*
X-266333314Y-66354257D01*
X-266333314Y-66497114D01*
X-266380933Y-66592352D01*
X-266428552Y-66639971D01*
X-266523790Y-66687590D01*
X-266904742Y-66687590D01*
X-265999980Y-66163780D02*
X-265380933Y-66163780D01*
X-265714266Y-66544733D01*
X-265571409Y-66544733D01*
X-265476171Y-66592352D01*
X-265428552Y-66639971D01*
X-265380933Y-66735209D01*
X-265380933Y-66973304D01*
X-265428552Y-67068542D01*
X-265476171Y-67116161D01*
X-265571409Y-67163780D01*
X-265857123Y-67163780D01*
X-265952361Y-67116161D01*
X-265999980Y-67068542D01*
%TO.C,TP2*%
X-272178304Y-66189180D02*
X-271606876Y-66189180D01*
X-271892590Y-67189180D02*
X-271892590Y-66189180D01*
X-271273542Y-67189180D02*
X-271273542Y-66189180D01*
X-270892590Y-66189180D01*
X-270797352Y-66236800D01*
X-270749733Y-66284419D01*
X-270702114Y-66379657D01*
X-270702114Y-66522514D01*
X-270749733Y-66617752D01*
X-270797352Y-66665371D01*
X-270892590Y-66712990D01*
X-271273542Y-66712990D01*
X-270321161Y-66284419D02*
X-270273542Y-66236800D01*
X-270178304Y-66189180D01*
X-269940209Y-66189180D01*
X-269844971Y-66236800D01*
X-269797352Y-66284419D01*
X-269749733Y-66379657D01*
X-269749733Y-66474895D01*
X-269797352Y-66617752D01*
X-270368780Y-67189180D01*
X-269749733Y-67189180D01*
%TO.C,J1*%
X-222268219Y-26274733D02*
X-221553933Y-26274733D01*
X-221411076Y-26322352D01*
X-221315838Y-26417590D01*
X-221268219Y-26560447D01*
X-221268219Y-26655685D01*
X-221268219Y-25274733D02*
X-221268219Y-25846161D01*
X-221268219Y-25560447D02*
X-222268219Y-25560447D01*
X-222125361Y-25655685D01*
X-222030123Y-25750923D01*
X-221982504Y-25846161D01*
%TO.C,J2*%
X-264937833Y-71020280D02*
X-264937833Y-71734566D01*
X-264985452Y-71877423D01*
X-265080690Y-71972661D01*
X-265223547Y-72020280D01*
X-265318785Y-72020280D01*
X-264509261Y-71115519D02*
X-264461642Y-71067900D01*
X-264366404Y-71020280D01*
X-264128309Y-71020280D01*
X-264033071Y-71067900D01*
X-263985452Y-71115519D01*
X-263937833Y-71210757D01*
X-263937833Y-71305995D01*
X-263985452Y-71448852D01*
X-264556880Y-72020280D01*
X-263937833Y-72020280D01*
X-262337833Y-72820280D02*
X-261718785Y-72820280D01*
X-262052119Y-73201233D01*
X-261909261Y-73201233D01*
X-261814023Y-73248852D01*
X-261766404Y-73296471D01*
X-261718785Y-73391709D01*
X-261718785Y-73629804D01*
X-261766404Y-73725042D01*
X-261814023Y-73772661D01*
X-261909261Y-73820280D01*
X-262194976Y-73820280D01*
X-262290214Y-73772661D01*
X-262337833Y-73725042D01*
X-266918785Y-73820280D02*
X-267490214Y-73820280D01*
X-267204500Y-73820280D02*
X-267204500Y-72820280D01*
X-267299738Y-72963138D01*
X-267394976Y-73058376D01*
X-267490214Y-73105995D01*
%TO.C,J3*%
X-257051133Y-53679980D02*
X-257051133Y-54394266D01*
X-257098752Y-54537123D01*
X-257193990Y-54632361D01*
X-257336847Y-54679980D01*
X-257432085Y-54679980D01*
X-256670180Y-53679980D02*
X-256051133Y-53679980D01*
X-256384466Y-54060933D01*
X-256241609Y-54060933D01*
X-256146371Y-54108552D01*
X-256098752Y-54156171D01*
X-256051133Y-54251409D01*
X-256051133Y-54489504D01*
X-256098752Y-54584742D01*
X-256146371Y-54632361D01*
X-256241609Y-54679980D01*
X-256527323Y-54679980D01*
X-256622561Y-54632361D01*
X-256670180Y-54584742D01*
%TO.C,J4*%
X-270248219Y-59235933D02*
X-269533933Y-59235933D01*
X-269391076Y-59283552D01*
X-269295838Y-59378790D01*
X-269248219Y-59521647D01*
X-269248219Y-59616885D01*
X-269914885Y-58331171D02*
X-269248219Y-58331171D01*
X-270295838Y-58569266D02*
X-269581552Y-58807361D01*
X-269581552Y-58188314D01*
X-271048219Y-56016885D02*
X-271048219Y-56588314D01*
X-271048219Y-56302600D02*
X-272048219Y-56302600D01*
X-271905361Y-56397838D01*
X-271810123Y-56493076D01*
X-271762504Y-56588314D01*
X-272048219Y-61835933D02*
X-272048219Y-61216885D01*
X-271667266Y-61550219D01*
X-271667266Y-61407361D01*
X-271619647Y-61312123D01*
X-271572028Y-61264504D01*
X-271476790Y-61216885D01*
X-271238695Y-61216885D01*
X-271143457Y-61264504D01*
X-271095838Y-61312123D01*
X-271048219Y-61407361D01*
X-271048219Y-61693076D01*
X-271095838Y-61788314D01*
X-271143457Y-61835933D01*
%TO.C,J9*%
X-246949133Y-32754580D02*
X-246949133Y-33468866D01*
X-246996752Y-33611723D01*
X-247091990Y-33706961D01*
X-247234847Y-33754580D01*
X-247330085Y-33754580D01*
X-246425323Y-33754580D02*
X-246234847Y-33754580D01*
X-246139609Y-33706961D01*
X-246091990Y-33659342D01*
X-245996752Y-33516485D01*
X-245949133Y-33326009D01*
X-245949133Y-32945057D01*
X-245996752Y-32849819D01*
X-246044371Y-32802200D01*
X-246139609Y-32754580D01*
X-246330085Y-32754580D01*
X-246425323Y-32802200D01*
X-246472942Y-32849819D01*
X-246520561Y-32945057D01*
X-246520561Y-33183152D01*
X-246472942Y-33278390D01*
X-246425323Y-33326009D01*
X-246330085Y-33373628D01*
X-246139609Y-33373628D01*
X-246044371Y-33326009D01*
X-245996752Y-33278390D01*
X-245949133Y-33183152D01*
%TO.C,JP2*%
X-306542653Y-44296940D02*
X-306542653Y-45011226D01*
X-306590272Y-45154083D01*
X-306685510Y-45249321D01*
X-306828367Y-45296940D01*
X-306923605Y-45296940D01*
X-306066462Y-45296940D02*
X-306066462Y-44296940D01*
X-305685510Y-44296940D01*
X-305590272Y-44344560D01*
X-305542653Y-44392179D01*
X-305495034Y-44487417D01*
X-305495034Y-44630274D01*
X-305542653Y-44725512D01*
X-305590272Y-44773131D01*
X-305685510Y-44820750D01*
X-306066462Y-44820750D01*
X-305114081Y-44392179D02*
X-305066462Y-44344560D01*
X-304971224Y-44296940D01*
X-304733129Y-44296940D01*
X-304637891Y-44344560D01*
X-304590272Y-44392179D01*
X-304542653Y-44487417D01*
X-304542653Y-44582655D01*
X-304590272Y-44725512D01*
X-305161700Y-45296940D01*
X-304542653Y-45296940D01*
%TO.C,JP3*%
X-288798213Y-44413780D02*
X-288798213Y-45128066D01*
X-288845832Y-45270923D01*
X-288941070Y-45366161D01*
X-289083927Y-45413780D01*
X-289179165Y-45413780D01*
X-288322022Y-45413780D02*
X-288322022Y-44413780D01*
X-287941070Y-44413780D01*
X-287845832Y-44461400D01*
X-287798213Y-44509019D01*
X-287750594Y-44604257D01*
X-287750594Y-44747114D01*
X-287798213Y-44842352D01*
X-287845832Y-44889971D01*
X-287941070Y-44937590D01*
X-288322022Y-44937590D01*
X-287417260Y-44413780D02*
X-286798213Y-44413780D01*
X-287131546Y-44794733D01*
X-286988689Y-44794733D01*
X-286893451Y-44842352D01*
X-286845832Y-44889971D01*
X-286798213Y-44985209D01*
X-286798213Y-45223304D01*
X-286845832Y-45318542D01*
X-286893451Y-45366161D01*
X-286988689Y-45413780D01*
X-287274403Y-45413780D01*
X-287369641Y-45366161D01*
X-287417260Y-45318542D01*
%TO.C,JP4*%
X-314742219Y-76080833D02*
X-314027933Y-76080833D01*
X-313885076Y-76128452D01*
X-313789838Y-76223690D01*
X-313742219Y-76366547D01*
X-313742219Y-76461785D01*
X-313742219Y-75604642D02*
X-314742219Y-75604642D01*
X-314742219Y-75223690D01*
X-314694600Y-75128452D01*
X-314646980Y-75080833D01*
X-314551742Y-75033214D01*
X-314408885Y-75033214D01*
X-314313647Y-75080833D01*
X-314266028Y-75128452D01*
X-314218409Y-75223690D01*
X-314218409Y-75604642D01*
X-314408885Y-74176071D02*
X-313742219Y-74176071D01*
X-314789838Y-74414166D02*
X-314075552Y-74652261D01*
X-314075552Y-74033214D01*
%TO.C,JP5*%
X-306537573Y-71083780D02*
X-306537573Y-71798066D01*
X-306585192Y-71940923D01*
X-306680430Y-72036161D01*
X-306823287Y-72083780D01*
X-306918525Y-72083780D01*
X-306061382Y-72083780D02*
X-306061382Y-71083780D01*
X-305680430Y-71083780D01*
X-305585192Y-71131400D01*
X-305537573Y-71179019D01*
X-305489954Y-71274257D01*
X-305489954Y-71417114D01*
X-305537573Y-71512352D01*
X-305585192Y-71559971D01*
X-305680430Y-71607590D01*
X-306061382Y-71607590D01*
X-304585192Y-71083780D02*
X-305061382Y-71083780D01*
X-305109001Y-71559971D01*
X-305061382Y-71512352D01*
X-304966144Y-71464733D01*
X-304728049Y-71464733D01*
X-304632811Y-71512352D01*
X-304585192Y-71559971D01*
X-304537573Y-71655209D01*
X-304537573Y-71893304D01*
X-304585192Y-71988542D01*
X-304632811Y-72036161D01*
X-304728049Y-72083780D01*
X-304966144Y-72083780D01*
X-305061382Y-72036161D01*
X-305109001Y-71988542D01*
%TO.C,P3*%
X-256287495Y-34596780D02*
X-256287495Y-33596780D01*
X-255906542Y-33596780D01*
X-255811304Y-33644400D01*
X-255763685Y-33692019D01*
X-255716066Y-33787257D01*
X-255716066Y-33930114D01*
X-255763685Y-34025352D01*
X-255811304Y-34072971D01*
X-255906542Y-34120590D01*
X-256287495Y-34120590D01*
X-255382733Y-33596780D02*
X-254763685Y-33596780D01*
X-255097019Y-33977733D01*
X-254954161Y-33977733D01*
X-254858923Y-34025352D01*
X-254811304Y-34072971D01*
X-254763685Y-34168209D01*
X-254763685Y-34406304D01*
X-254811304Y-34501542D01*
X-254858923Y-34549161D01*
X-254954161Y-34596780D01*
X-255239876Y-34596780D01*
X-255335114Y-34549161D01*
X-255382733Y-34501542D01*
%TO.C,P4*%
X-248918019Y-36298095D02*
X-249918019Y-36298095D01*
X-249918019Y-35917142D01*
X-249870400Y-35821904D01*
X-249822780Y-35774285D01*
X-249727542Y-35726666D01*
X-249584685Y-35726666D01*
X-249489447Y-35774285D01*
X-249441828Y-35821904D01*
X-249394209Y-35917142D01*
X-249394209Y-36298095D01*
X-249584685Y-34869523D02*
X-248918019Y-34869523D01*
X-249965638Y-35107619D02*
X-249251352Y-35345714D01*
X-249251352Y-34726666D01*
%TO.C,Raspberry_header1*%
X-252387904Y-54679980D02*
X-252721238Y-54203790D01*
X-252959333Y-54679980D02*
X-252959333Y-53679980D01*
X-252578380Y-53679980D01*
X-252483142Y-53727600D01*
X-252435523Y-53775219D01*
X-252387904Y-53870457D01*
X-252387904Y-54013314D01*
X-252435523Y-54108552D01*
X-252483142Y-54156171D01*
X-252578380Y-54203790D01*
X-252959333Y-54203790D01*
X-251530761Y-54679980D02*
X-251530761Y-54156171D01*
X-251578380Y-54060933D01*
X-251673619Y-54013314D01*
X-251864095Y-54013314D01*
X-251959333Y-54060933D01*
X-251530761Y-54632361D02*
X-251626000Y-54679980D01*
X-251864095Y-54679980D01*
X-251959333Y-54632361D01*
X-252006952Y-54537123D01*
X-252006952Y-54441885D01*
X-251959333Y-54346647D01*
X-251864095Y-54299028D01*
X-251626000Y-54299028D01*
X-251530761Y-54251409D01*
X-251102190Y-54632361D02*
X-251006952Y-54679980D01*
X-250816476Y-54679980D01*
X-250721238Y-54632361D01*
X-250673619Y-54537123D01*
X-250673619Y-54489504D01*
X-250721238Y-54394266D01*
X-250816476Y-54346647D01*
X-250959333Y-54346647D01*
X-251054571Y-54299028D01*
X-251102190Y-54203790D01*
X-251102190Y-54156171D01*
X-251054571Y-54060933D01*
X-250959333Y-54013314D01*
X-250816476Y-54013314D01*
X-250721238Y-54060933D01*
X-250245047Y-54013314D02*
X-250245047Y-55013314D01*
X-250245047Y-54060933D02*
X-250149809Y-54013314D01*
X-249959333Y-54013314D01*
X-249864095Y-54060933D01*
X-249816476Y-54108552D01*
X-249768857Y-54203790D01*
X-249768857Y-54489504D01*
X-249816476Y-54584742D01*
X-249864095Y-54632361D01*
X-249959333Y-54679980D01*
X-250149809Y-54679980D01*
X-250245047Y-54632361D01*
X-249340285Y-54679980D02*
X-249340285Y-53679980D01*
X-249340285Y-54060933D02*
X-249245047Y-54013314D01*
X-249054571Y-54013314D01*
X-248959333Y-54060933D01*
X-248911714Y-54108552D01*
X-248864095Y-54203790D01*
X-248864095Y-54489504D01*
X-248911714Y-54584742D01*
X-248959333Y-54632361D01*
X-249054571Y-54679980D01*
X-249245047Y-54679980D01*
X-249340285Y-54632361D01*
X-248054571Y-54632361D02*
X-248149809Y-54679980D01*
X-248340285Y-54679980D01*
X-248435523Y-54632361D01*
X-248483142Y-54537123D01*
X-248483142Y-54156171D01*
X-248435523Y-54060933D01*
X-248340285Y-54013314D01*
X-248149809Y-54013314D01*
X-248054571Y-54060933D01*
X-248006952Y-54156171D01*
X-248006952Y-54251409D01*
X-248483142Y-54346647D01*
X-247578380Y-54679980D02*
X-247578380Y-54013314D01*
X-247578380Y-54203790D02*
X-247530761Y-54108552D01*
X-247483142Y-54060933D01*
X-247387904Y-54013314D01*
X-247292666Y-54013314D01*
X-246959333Y-54679980D02*
X-246959333Y-54013314D01*
X-246959333Y-54203790D02*
X-246911714Y-54108552D01*
X-246864095Y-54060933D01*
X-246768857Y-54013314D01*
X-246673619Y-54013314D01*
X-246435523Y-54013314D02*
X-246197428Y-54679980D01*
X-245959333Y-54013314D02*
X-246197428Y-54679980D01*
X-246292666Y-54918076D01*
X-246340285Y-54965695D01*
X-246435523Y-55013314D01*
X-245816476Y-54775219D02*
X-245054571Y-54775219D01*
X-244816476Y-54679980D02*
X-244816476Y-53679980D01*
X-244387904Y-54679980D02*
X-244387904Y-54156171D01*
X-244435523Y-54060933D01*
X-244530761Y-54013314D01*
X-244673619Y-54013314D01*
X-244768857Y-54060933D01*
X-244816476Y-54108552D01*
X-243530761Y-54632361D02*
X-243626000Y-54679980D01*
X-243816476Y-54679980D01*
X-243911714Y-54632361D01*
X-243959333Y-54537123D01*
X-243959333Y-54156171D01*
X-243911714Y-54060933D01*
X-243816476Y-54013314D01*
X-243626000Y-54013314D01*
X-243530761Y-54060933D01*
X-243483142Y-54156171D01*
X-243483142Y-54251409D01*
X-243959333Y-54346647D01*
X-242626000Y-54679980D02*
X-242626000Y-54156171D01*
X-242673619Y-54060933D01*
X-242768857Y-54013314D01*
X-242959333Y-54013314D01*
X-243054571Y-54060933D01*
X-242626000Y-54632361D02*
X-242721238Y-54679980D01*
X-242959333Y-54679980D01*
X-243054571Y-54632361D01*
X-243102190Y-54537123D01*
X-243102190Y-54441885D01*
X-243054571Y-54346647D01*
X-242959333Y-54299028D01*
X-242721238Y-54299028D01*
X-242626000Y-54251409D01*
X-241721238Y-54679980D02*
X-241721238Y-53679980D01*
X-241721238Y-54632361D02*
X-241816476Y-54679980D01*
X-242006952Y-54679980D01*
X-242102190Y-54632361D01*
X-242149809Y-54584742D01*
X-242197428Y-54489504D01*
X-242197428Y-54203790D01*
X-242149809Y-54108552D01*
X-242102190Y-54060933D01*
X-242006952Y-54013314D01*
X-241816476Y-54013314D01*
X-241721238Y-54060933D01*
X-240864095Y-54632361D02*
X-240959333Y-54679980D01*
X-241149809Y-54679980D01*
X-241245047Y-54632361D01*
X-241292666Y-54537123D01*
X-241292666Y-54156171D01*
X-241245047Y-54060933D01*
X-241149809Y-54013314D01*
X-240959333Y-54013314D01*
X-240864095Y-54060933D01*
X-240816476Y-54156171D01*
X-240816476Y-54251409D01*
X-241292666Y-54346647D01*
X-240387904Y-54679980D02*
X-240387904Y-54013314D01*
X-240387904Y-54203790D02*
X-240340285Y-54108552D01*
X-240292666Y-54060933D01*
X-240197428Y-54013314D01*
X-240102190Y-54013314D01*
X-239245047Y-54679980D02*
X-239816476Y-54679980D01*
X-239530761Y-54679980D02*
X-239530761Y-53679980D01*
X-239626000Y-53822838D01*
X-239721238Y-53918076D01*
X-239816476Y-53965695D01*
%TO.C,SSR_connector1*%
X-180647838Y-76192923D02*
X-180600219Y-76050066D01*
X-180600219Y-75811971D01*
X-180647838Y-75716733D01*
X-180695457Y-75669114D01*
X-180790695Y-75621495D01*
X-180885933Y-75621495D01*
X-180981171Y-75669114D01*
X-181028790Y-75716733D01*
X-181076409Y-75811971D01*
X-181124028Y-76002447D01*
X-181171647Y-76097685D01*
X-181219266Y-76145304D01*
X-181314504Y-76192923D01*
X-181409742Y-76192923D01*
X-181504980Y-76145304D01*
X-181552600Y-76097685D01*
X-181600219Y-76002447D01*
X-181600219Y-75764352D01*
X-181552600Y-75621495D01*
X-180647838Y-75240542D02*
X-180600219Y-75097685D01*
X-180600219Y-74859590D01*
X-180647838Y-74764352D01*
X-180695457Y-74716733D01*
X-180790695Y-74669114D01*
X-180885933Y-74669114D01*
X-180981171Y-74716733D01*
X-181028790Y-74764352D01*
X-181076409Y-74859590D01*
X-181124028Y-75050066D01*
X-181171647Y-75145304D01*
X-181219266Y-75192923D01*
X-181314504Y-75240542D01*
X-181409742Y-75240542D01*
X-181504980Y-75192923D01*
X-181552600Y-75145304D01*
X-181600219Y-75050066D01*
X-181600219Y-74811971D01*
X-181552600Y-74669114D01*
X-180600219Y-73669114D02*
X-181076409Y-74002447D01*
X-180600219Y-74240542D02*
X-181600219Y-74240542D01*
X-181600219Y-73859590D01*
X-181552600Y-73764352D01*
X-181504980Y-73716733D01*
X-181409742Y-73669114D01*
X-181266885Y-73669114D01*
X-181171647Y-73716733D01*
X-181124028Y-73764352D01*
X-181076409Y-73859590D01*
X-181076409Y-74240542D01*
X-180504980Y-73478638D02*
X-180504980Y-72716733D01*
X-180647838Y-72050066D02*
X-180600219Y-72145304D01*
X-180600219Y-72335780D01*
X-180647838Y-72431019D01*
X-180695457Y-72478638D01*
X-180790695Y-72526257D01*
X-181076409Y-72526257D01*
X-181171647Y-72478638D01*
X-181219266Y-72431019D01*
X-181266885Y-72335780D01*
X-181266885Y-72145304D01*
X-181219266Y-72050066D01*
X-180600219Y-71478638D02*
X-180647838Y-71573876D01*
X-180695457Y-71621495D01*
X-180790695Y-71669114D01*
X-181076409Y-71669114D01*
X-181171647Y-71621495D01*
X-181219266Y-71573876D01*
X-181266885Y-71478638D01*
X-181266885Y-71335780D01*
X-181219266Y-71240542D01*
X-181171647Y-71192923D01*
X-181076409Y-71145304D01*
X-180790695Y-71145304D01*
X-180695457Y-71192923D01*
X-180647838Y-71240542D01*
X-180600219Y-71335780D01*
X-180600219Y-71478638D01*
X-181266885Y-70716733D02*
X-180600219Y-70716733D01*
X-181171647Y-70716733D02*
X-181219266Y-70669114D01*
X-181266885Y-70573876D01*
X-181266885Y-70431019D01*
X-181219266Y-70335780D01*
X-181124028Y-70288161D01*
X-180600219Y-70288161D01*
X-181266885Y-69811971D02*
X-180600219Y-69811971D01*
X-181171647Y-69811971D02*
X-181219266Y-69764352D01*
X-181266885Y-69669114D01*
X-181266885Y-69526257D01*
X-181219266Y-69431019D01*
X-181124028Y-69383400D01*
X-180600219Y-69383400D01*
X-180647838Y-68526257D02*
X-180600219Y-68621495D01*
X-180600219Y-68811971D01*
X-180647838Y-68907209D01*
X-180743076Y-68954828D01*
X-181124028Y-68954828D01*
X-181219266Y-68907209D01*
X-181266885Y-68811971D01*
X-181266885Y-68621495D01*
X-181219266Y-68526257D01*
X-181124028Y-68478638D01*
X-181028790Y-68478638D01*
X-180933552Y-68954828D01*
X-180647838Y-67621495D02*
X-180600219Y-67716733D01*
X-180600219Y-67907209D01*
X-180647838Y-68002447D01*
X-180695457Y-68050066D01*
X-180790695Y-68097685D01*
X-181076409Y-68097685D01*
X-181171647Y-68050066D01*
X-181219266Y-68002447D01*
X-181266885Y-67907209D01*
X-181266885Y-67716733D01*
X-181219266Y-67621495D01*
X-181266885Y-67335780D02*
X-181266885Y-66954828D01*
X-181600219Y-67192923D02*
X-180743076Y-67192923D01*
X-180647838Y-67145304D01*
X-180600219Y-67050066D01*
X-180600219Y-66954828D01*
X-180600219Y-66478638D02*
X-180647838Y-66573876D01*
X-180695457Y-66621495D01*
X-180790695Y-66669114D01*
X-181076409Y-66669114D01*
X-181171647Y-66621495D01*
X-181219266Y-66573876D01*
X-181266885Y-66478638D01*
X-181266885Y-66335780D01*
X-181219266Y-66240542D01*
X-181171647Y-66192923D01*
X-181076409Y-66145304D01*
X-180790695Y-66145304D01*
X-180695457Y-66192923D01*
X-180647838Y-66240542D01*
X-180600219Y-66335780D01*
X-180600219Y-66478638D01*
X-180600219Y-65716733D02*
X-181266885Y-65716733D01*
X-181076409Y-65716733D02*
X-181171647Y-65669114D01*
X-181219266Y-65621495D01*
X-181266885Y-65526257D01*
X-181266885Y-65431019D01*
X-180600219Y-64573876D02*
X-180600219Y-65145304D01*
X-180600219Y-64859590D02*
X-181600219Y-64859590D01*
X-181457361Y-64954828D01*
X-181362123Y-65050066D01*
X-181314504Y-65145304D01*
%TO.C,Temp_sensor1*%
X-287463857Y-38008180D02*
X-286892428Y-38008180D01*
X-287178142Y-39008180D02*
X-287178142Y-38008180D01*
X-286178142Y-38960561D02*
X-286273380Y-39008180D01*
X-286463857Y-39008180D01*
X-286559095Y-38960561D01*
X-286606714Y-38865323D01*
X-286606714Y-38484371D01*
X-286559095Y-38389133D01*
X-286463857Y-38341514D01*
X-286273380Y-38341514D01*
X-286178142Y-38389133D01*
X-286130523Y-38484371D01*
X-286130523Y-38579609D01*
X-286606714Y-38674847D01*
X-285701952Y-39008180D02*
X-285701952Y-38341514D01*
X-285701952Y-38436752D02*
X-285654333Y-38389133D01*
X-285559095Y-38341514D01*
X-285416238Y-38341514D01*
X-285321000Y-38389133D01*
X-285273380Y-38484371D01*
X-285273380Y-39008180D01*
X-285273380Y-38484371D02*
X-285225761Y-38389133D01*
X-285130523Y-38341514D01*
X-284987666Y-38341514D01*
X-284892428Y-38389133D01*
X-284844809Y-38484371D01*
X-284844809Y-39008180D01*
X-284368619Y-38341514D02*
X-284368619Y-39341514D01*
X-284368619Y-38389133D02*
X-284273380Y-38341514D01*
X-284082904Y-38341514D01*
X-283987666Y-38389133D01*
X-283940047Y-38436752D01*
X-283892428Y-38531990D01*
X-283892428Y-38817704D01*
X-283940047Y-38912942D01*
X-283987666Y-38960561D01*
X-284082904Y-39008180D01*
X-284273380Y-39008180D01*
X-284368619Y-38960561D01*
X-283701952Y-39103419D02*
X-282940047Y-39103419D01*
X-282749571Y-38960561D02*
X-282654333Y-39008180D01*
X-282463857Y-39008180D01*
X-282368619Y-38960561D01*
X-282321000Y-38865323D01*
X-282321000Y-38817704D01*
X-282368619Y-38722466D01*
X-282463857Y-38674847D01*
X-282606714Y-38674847D01*
X-282701952Y-38627228D01*
X-282749571Y-38531990D01*
X-282749571Y-38484371D01*
X-282701952Y-38389133D01*
X-282606714Y-38341514D01*
X-282463857Y-38341514D01*
X-282368619Y-38389133D01*
X-281511476Y-38960561D02*
X-281606714Y-39008180D01*
X-281797190Y-39008180D01*
X-281892428Y-38960561D01*
X-281940047Y-38865323D01*
X-281940047Y-38484371D01*
X-281892428Y-38389133D01*
X-281797190Y-38341514D01*
X-281606714Y-38341514D01*
X-281511476Y-38389133D01*
X-281463857Y-38484371D01*
X-281463857Y-38579609D01*
X-281940047Y-38674847D01*
X-281035285Y-38341514D02*
X-281035285Y-39008180D01*
X-281035285Y-38436752D02*
X-280987666Y-38389133D01*
X-280892428Y-38341514D01*
X-280749571Y-38341514D01*
X-280654333Y-38389133D01*
X-280606714Y-38484371D01*
X-280606714Y-39008180D01*
X-280178142Y-38960561D02*
X-280082904Y-39008180D01*
X-279892428Y-39008180D01*
X-279797190Y-38960561D01*
X-279749571Y-38865323D01*
X-279749571Y-38817704D01*
X-279797190Y-38722466D01*
X-279892428Y-38674847D01*
X-280035285Y-38674847D01*
X-280130523Y-38627228D01*
X-280178142Y-38531990D01*
X-280178142Y-38484371D01*
X-280130523Y-38389133D01*
X-280035285Y-38341514D01*
X-279892428Y-38341514D01*
X-279797190Y-38389133D01*
X-279178142Y-39008180D02*
X-279273380Y-38960561D01*
X-279321000Y-38912942D01*
X-279368619Y-38817704D01*
X-279368619Y-38531990D01*
X-279321000Y-38436752D01*
X-279273380Y-38389133D01*
X-279178142Y-38341514D01*
X-279035285Y-38341514D01*
X-278940047Y-38389133D01*
X-278892428Y-38436752D01*
X-278844809Y-38531990D01*
X-278844809Y-38817704D01*
X-278892428Y-38912942D01*
X-278940047Y-38960561D01*
X-279035285Y-39008180D01*
X-279178142Y-39008180D01*
X-278416238Y-39008180D02*
X-278416238Y-38341514D01*
X-278416238Y-38531990D02*
X-278368619Y-38436752D01*
X-278321000Y-38389133D01*
X-278225761Y-38341514D01*
X-278130523Y-38341514D01*
X-277273380Y-39008180D02*
X-277844809Y-39008180D01*
X-277559095Y-39008180D02*
X-277559095Y-38008180D01*
X-277654333Y-38151038D01*
X-277749571Y-38246276D01*
X-277844809Y-38293895D01*
%TO.C,U1*%
X-269544704Y-61266780D02*
X-269544704Y-62076304D01*
X-269497085Y-62171542D01*
X-269449466Y-62219161D01*
X-269354228Y-62266780D01*
X-269163752Y-62266780D01*
X-269068514Y-62219161D01*
X-269020895Y-62171542D01*
X-268973276Y-62076304D01*
X-268973276Y-61266780D01*
X-267973276Y-62266780D02*
X-268544704Y-62266780D01*
X-268258990Y-62266780D02*
X-268258990Y-61266780D01*
X-268354228Y-61409638D01*
X-268449466Y-61504876D01*
X-268544704Y-61552495D01*
%TO.C,TP1*%
X-253077504Y-85315380D02*
X-252506076Y-85315380D01*
X-252791790Y-86315380D02*
X-252791790Y-85315380D01*
X-252172742Y-86315380D02*
X-252172742Y-85315380D01*
X-251791790Y-85315380D01*
X-251696552Y-85363000D01*
X-251648933Y-85410619D01*
X-251601314Y-85505857D01*
X-251601314Y-85648714D01*
X-251648933Y-85743952D01*
X-251696552Y-85791571D01*
X-251791790Y-85839190D01*
X-252172742Y-85839190D01*
X-250648933Y-86315380D02*
X-251220361Y-86315380D01*
X-250934647Y-86315380D02*
X-250934647Y-85315380D01*
X-251029885Y-85458238D01*
X-251125123Y-85553476D01*
X-251220361Y-85601095D01*
%TO.C,TP6*%
X-250598464Y-36826780D02*
X-250027036Y-36826780D01*
X-250312750Y-37826780D02*
X-250312750Y-36826780D01*
X-249693702Y-37826780D02*
X-249693702Y-36826780D01*
X-249312750Y-36826780D01*
X-249217512Y-36874400D01*
X-249169893Y-36922019D01*
X-249122274Y-37017257D01*
X-249122274Y-37160114D01*
X-249169893Y-37255352D01*
X-249217512Y-37302971D01*
X-249312750Y-37350590D01*
X-249693702Y-37350590D01*
X-248265131Y-36826780D02*
X-248455607Y-36826780D01*
X-248550845Y-36874400D01*
X-248598464Y-36922019D01*
X-248693702Y-37064876D01*
X-248741321Y-37255352D01*
X-248741321Y-37636304D01*
X-248693702Y-37731542D01*
X-248646083Y-37779161D01*
X-248550845Y-37826780D01*
X-248360369Y-37826780D01*
X-248265131Y-37779161D01*
X-248217512Y-37731542D01*
X-248169893Y-37636304D01*
X-248169893Y-37398209D01*
X-248217512Y-37302971D01*
X-248265131Y-37255352D01*
X-248360369Y-37207733D01*
X-248550845Y-37207733D01*
X-248646083Y-37255352D01*
X-248693702Y-37302971D01*
X-248741321Y-37398209D01*
%TO.C,C1*%
X-283134666Y-48110342D02*
X-283182285Y-48157961D01*
X-283325142Y-48205580D01*
X-283420380Y-48205580D01*
X-283563238Y-48157961D01*
X-283658476Y-48062723D01*
X-283706095Y-47967485D01*
X-283753714Y-47777009D01*
X-283753714Y-47634152D01*
X-283706095Y-47443676D01*
X-283658476Y-47348438D01*
X-283563238Y-47253200D01*
X-283420380Y-47205580D01*
X-283325142Y-47205580D01*
X-283182285Y-47253200D01*
X-283134666Y-47300819D01*
X-282182285Y-48205580D02*
X-282753714Y-48205580D01*
X-282468000Y-48205580D02*
X-282468000Y-47205580D01*
X-282563238Y-47348438D01*
X-282658476Y-47443676D01*
X-282753714Y-47491295D01*
%TD*%
M02*
