%TF.GenerationSoftware,KiCad,Pcbnew,(5.1.9-0-10_14)*%
%TF.CreationDate,2021-02-14T15:54:45+00:00*%
%TF.ProjectId,base8x,62617365-3878-42e6-9b69-6361645f7063,rev?*%
%TF.SameCoordinates,Original*%
%TF.FileFunction,Legend,Bot*%
%TF.FilePolarity,Positive*%
%FSLAX46Y46*%
G04 Gerber Fmt 4.6, Leading zero omitted, Abs format (unit mm)*
G04 Created by KiCad (PCBNEW (5.1.9-0-10_14)) date 2021-02-14 15:54:45*
%MOMM*%
%LPD*%
G01*
G04 APERTURE LIST*
%ADD10C,0.120000*%
%ADD11C,0.150000*%
G04 APERTURE END LIST*
D10*
%TO.C,J9*%
X-260955800Y-29402200D02*
G75*
G03*
X-260955800Y-29402200I-2210000J0D01*
G01*
X-227855800Y-29402200D02*
G75*
G03*
X-227855800Y-29402200I-2210000J0D01*
G01*
%TO.C,JP6*%
X-222882000Y-27986000D02*
X-222882000Y-27386000D01*
X-224982000Y-28686000D02*
X-223582000Y-28686000D01*
X-225682000Y-27386000D02*
X-225682000Y-27986000D01*
X-223582000Y-26686000D02*
X-224982000Y-26686000D01*
X-222882000Y-27386000D02*
G75*
G03*
X-223582000Y-26686000I-700000J0D01*
G01*
X-223582000Y-28686000D02*
G75*
G03*
X-222882000Y-27986000I0J700000D01*
G01*
X-225682000Y-27986000D02*
G75*
G03*
X-224982000Y-28686000I700000J0D01*
G01*
X-224982000Y-26686000D02*
G75*
G03*
X-225682000Y-27386000I0J-700000D01*
G01*
D11*
X-223448666Y-25338380D02*
X-223448666Y-26052666D01*
X-223401047Y-26195523D01*
X-223305809Y-26290761D01*
X-223162952Y-26338380D01*
X-223067714Y-26338380D01*
X-223924857Y-26338380D02*
X-223924857Y-25338380D01*
X-224305809Y-25338380D01*
X-224401047Y-25386000D01*
X-224448666Y-25433619D01*
X-224496285Y-25528857D01*
X-224496285Y-25671714D01*
X-224448666Y-25766952D01*
X-224401047Y-25814571D01*
X-224305809Y-25862190D01*
X-223924857Y-25862190D01*
X-225353428Y-25338380D02*
X-225162952Y-25338380D01*
X-225067714Y-25386000D01*
X-225020095Y-25433619D01*
X-224924857Y-25576476D01*
X-224877238Y-25766952D01*
X-224877238Y-26147904D01*
X-224924857Y-26243142D01*
X-224972476Y-26290761D01*
X-225067714Y-26338380D01*
X-225258190Y-26338380D01*
X-225353428Y-26290761D01*
X-225401047Y-26243142D01*
X-225448666Y-26147904D01*
X-225448666Y-25909809D01*
X-225401047Y-25814571D01*
X-225353428Y-25766952D01*
X-225258190Y-25719333D01*
X-225067714Y-25719333D01*
X-224972476Y-25766952D01*
X-224924857Y-25814571D01*
X-224877238Y-25909809D01*
%TD*%
M02*
