%TF.GenerationSoftware,KiCad,Pcbnew,(5.1.9-0-10_14)*%
%TF.CreationDate,2021-02-14T15:54:45+00:00*%
%TF.ProjectId,base8x,62617365-3878-42e6-9b69-6361645f7063,rev?*%
%TF.SameCoordinates,Original*%
%TF.FileFunction,Copper,L1,Top*%
%TF.FilePolarity,Positive*%
%FSLAX46Y46*%
G04 Gerber Fmt 4.6, Leading zero omitted, Abs format (unit mm)*
G04 Created by KiCad (PCBNEW (5.1.9-0-10_14)) date 2021-02-14 15:54:45*
%MOMM*%
%LPD*%
G01*
G04 APERTURE LIST*
%TA.AperFunction,ComponentPad*%
%ADD10C,2.400000*%
%TD*%
%TA.AperFunction,ComponentPad*%
%ADD11O,1.400000X1.400000*%
%TD*%
%TA.AperFunction,ComponentPad*%
%ADD12C,1.400000*%
%TD*%
%TA.AperFunction,ComponentPad*%
%ADD13O,2.400000X2.400000*%
%TD*%
%TA.AperFunction,SMDPad,CuDef*%
%ADD14R,2.500000X2.500000*%
%TD*%
%TA.AperFunction,ComponentPad*%
%ADD15C,1.700000*%
%TD*%
%TA.AperFunction,SMDPad,CuDef*%
%ADD16C,0.100000*%
%TD*%
%TA.AperFunction,SMDPad,CuDef*%
%ADD17R,1.000000X1.500000*%
%TD*%
%TA.AperFunction,ComponentPad*%
%ADD18R,1.700000X1.700000*%
%TD*%
%TA.AperFunction,ComponentPad*%
%ADD19O,1.700000X1.700000*%
%TD*%
%TA.AperFunction,SMDPad,CuDef*%
%ADD20R,1.500000X1.000000*%
%TD*%
%TA.AperFunction,ComponentPad*%
%ADD21O,1.800000X3.600000*%
%TD*%
%TA.AperFunction,SMDPad,CuDef*%
%ADD22R,1.400000X0.300000*%
%TD*%
%TA.AperFunction,ComponentPad*%
%ADD23R,1.200000X1.200000*%
%TD*%
%TA.AperFunction,ComponentPad*%
%ADD24C,1.200000*%
%TD*%
%TA.AperFunction,Conductor*%
%ADD25C,0.250000*%
%TD*%
%TA.AperFunction,Conductor*%
%ADD26C,1.000000*%
%TD*%
G04 APERTURE END LIST*
%TO.P,SSR-Ithink1,A1*%
%TO.N,Net-(Resistor_SSR1-Pad1)*%
%TA.AperFunction,ComponentPad*%
G36*
G01*
X-197821400Y-62418400D02*
X-197821400Y-60517600D01*
G75*
G02*
X-197571800Y-60268000I249600J0D01*
G01*
X-195671000Y-60268000D01*
G75*
G02*
X-195421400Y-60517600I0J-249600D01*
G01*
X-195421400Y-62418400D01*
G75*
G02*
X-195671000Y-62668000I-249600J0D01*
G01*
X-197571800Y-62668000D01*
G75*
G02*
X-197821400Y-62418400I0J249600D01*
G01*
G37*
%TD.AperFunction*%
D10*
%TO.P,SSR-Ithink1,A2*%
%TO.N,GND*%
X-200371400Y-61468000D03*
%TO.P,SSR-Ithink1,11*%
%TO.N,Net-(SSR-Ithink1-Pad11)*%
X-180371400Y-61468000D03*
%TO.P,SSR-Ithink1,14*%
%TO.N,Net-(SSR-Ithink1-Pad14)*%
X-175371400Y-61468000D03*
%TD*%
D11*
%TO.P,D2,2*%
%TO.N,Net-(D2-Pad2)*%
X-306491640Y-70708520D03*
D12*
%TO.P,D2,1*%
%TO.N,Net-(D2-Pad1)*%
X-314111640Y-70708520D03*
%TD*%
D11*
%TO.P,D1,2*%
%TO.N,Net-(D1-Pad2)*%
X-291302440Y-46791880D03*
D12*
%TO.P,D1,1*%
%TO.N,Net-(D1-Pad1)*%
X-298922440Y-46791880D03*
%TD*%
D13*
%TO.P,Resistor_SSR1,2*%
%TO.N,GPIO6*%
X-198958200Y-89433400D03*
D10*
%TO.P,Resistor_SSR1,1*%
%TO.N,Net-(Resistor_SSR1-Pad1)*%
X-198958200Y-69113400D03*
%TD*%
D13*
%TO.P,Resistor1,2*%
%TO.N,+3V3*%
X-282178760Y-36062920D03*
D10*
%TO.P,Resistor1,1*%
%TO.N,CLK0*%
X-302498760Y-36062920D03*
%TD*%
D13*
%TO.P,R5,2*%
%TO.N,A_I-*%
X-249021600Y-44780200D03*
D10*
%TO.P,R5,1*%
%TO.N,A_I-_EXT*%
X-269341600Y-44780200D03*
%TD*%
D13*
%TO.P,R4,2*%
%TO.N,Net-(R4-Pad2)*%
X-293547800Y-56438800D03*
D10*
%TO.P,R4,1*%
%TO.N,Net-(J4-Pad2)*%
X-293547800Y-76758800D03*
%TD*%
D13*
%TO.P,R3,2*%
%TO.N,+5V*%
X-276047200Y-56235600D03*
D10*
%TO.P,R3,1*%
%TO.N,Net-(R3-Pad1)*%
X-276047200Y-76555600D03*
%TD*%
D13*
%TO.P,R2,2*%
%TO.N,+5V*%
X-301066200Y-56489600D03*
D10*
%TO.P,R2,1*%
%TO.N,HELP3*%
X-301066200Y-76809600D03*
%TD*%
D13*
%TO.P,R1,2*%
%TO.N,+5V*%
X-284099000Y-56286400D03*
D10*
%TO.P,R1,1*%
%TO.N,HELP1*%
X-284099000Y-76606400D03*
%TD*%
D14*
%TO.P,TP5,1*%
%TO.N,A_V_D_LOC*%
X-269062200Y-73177400D03*
%TD*%
%TO.P,TP4,1*%
%TO.N,HELP3*%
X-308356000Y-78740000D03*
%TD*%
%TO.P,TP3,1*%
%TO.N,HELP1*%
X-266547600Y-68859400D03*
%TD*%
%TO.P,TP2,1*%
%TO.N,Net-(TP2-Pad1)*%
X-270916400Y-68884800D03*
%TD*%
%TO.P,J1,1*%
%TO.N,MISO*%
%TA.AperFunction,ComponentPad*%
G36*
G01*
X-215020600Y-33006400D02*
X-216220600Y-33006400D01*
G75*
G02*
X-216470600Y-32756400I0J250000D01*
G01*
X-216470600Y-31556400D01*
G75*
G02*
X-216220600Y-31306400I250000J0D01*
G01*
X-215020600Y-31306400D01*
G75*
G02*
X-214770600Y-31556400I0J-250000D01*
G01*
X-214770600Y-32756400D01*
G75*
G02*
X-215020600Y-33006400I-250000J0D01*
G01*
G37*
%TD.AperFunction*%
D15*
%TO.P,J1,3*%
%TO.N,SCK*%
X-213080600Y-32156400D03*
%TO.P,J1,5*%
%TO.N,A_V_D_EXT*%
X-210540600Y-32156400D03*
%TO.P,J1,7*%
%TO.N,SDA*%
X-208000600Y-32156400D03*
%TO.P,J1,9*%
%TO.N,/Vin*%
X-205460600Y-32156400D03*
%TO.P,J1,2*%
%TO.N,+5V*%
X-215620600Y-29616400D03*
%TO.P,J1,4*%
%TO.N,MOSI*%
X-213080600Y-29616400D03*
%TO.P,J1,6*%
%TO.N,GND*%
X-210540600Y-29616400D03*
%TO.P,J1,8*%
%TO.N,SCL*%
X-208000600Y-29616400D03*
%TO.P,J1,10*%
%TO.N,~A_CS*%
X-205460600Y-29616400D03*
%TD*%
%TA.AperFunction,SMDPad,CuDef*%
D16*
%TO.P,J2,1*%
%TO.N,A_V_D_LOC*%
G36*
X-265354500Y-74117900D02*
G01*
X-265904500Y-74117900D01*
X-265904500Y-74117298D01*
X-265929034Y-74117298D01*
X-265977865Y-74112488D01*
X-266025990Y-74102916D01*
X-266072945Y-74088672D01*
X-266118278Y-74069895D01*
X-266161551Y-74046764D01*
X-266202350Y-74019504D01*
X-266240279Y-73988376D01*
X-266274976Y-73953679D01*
X-266306104Y-73915750D01*
X-266333364Y-73874951D01*
X-266356495Y-73831678D01*
X-266375272Y-73786345D01*
X-266389516Y-73739390D01*
X-266399088Y-73691265D01*
X-266403898Y-73642434D01*
X-266403898Y-73617900D01*
X-266404500Y-73617900D01*
X-266404500Y-73117900D01*
X-266403898Y-73117900D01*
X-266403898Y-73093366D01*
X-266399088Y-73044535D01*
X-266389516Y-72996410D01*
X-266375272Y-72949455D01*
X-266356495Y-72904122D01*
X-266333364Y-72860849D01*
X-266306104Y-72820050D01*
X-266274976Y-72782121D01*
X-266240279Y-72747424D01*
X-266202350Y-72716296D01*
X-266161551Y-72689036D01*
X-266118278Y-72665905D01*
X-266072945Y-72647128D01*
X-266025990Y-72632884D01*
X-265977865Y-72623312D01*
X-265929034Y-72618502D01*
X-265904500Y-72618502D01*
X-265904500Y-72617900D01*
X-265354500Y-72617900D01*
X-265354500Y-74117900D01*
G37*
%TD.AperFunction*%
%TA.AperFunction,SMDPad,CuDef*%
%TO.P,J2,3*%
%TO.N,A_V_D_EXT*%
G36*
X-263304500Y-72618502D02*
G01*
X-263279966Y-72618502D01*
X-263231135Y-72623312D01*
X-263183010Y-72632884D01*
X-263136055Y-72647128D01*
X-263090722Y-72665905D01*
X-263047449Y-72689036D01*
X-263006650Y-72716296D01*
X-262968721Y-72747424D01*
X-262934024Y-72782121D01*
X-262902896Y-72820050D01*
X-262875636Y-72860849D01*
X-262852505Y-72904122D01*
X-262833728Y-72949455D01*
X-262819484Y-72996410D01*
X-262809912Y-73044535D01*
X-262805102Y-73093366D01*
X-262805102Y-73117900D01*
X-262804500Y-73117900D01*
X-262804500Y-73617900D01*
X-262805102Y-73617900D01*
X-262805102Y-73642434D01*
X-262809912Y-73691265D01*
X-262819484Y-73739390D01*
X-262833728Y-73786345D01*
X-262852505Y-73831678D01*
X-262875636Y-73874951D01*
X-262902896Y-73915750D01*
X-262934024Y-73953679D01*
X-262968721Y-73988376D01*
X-263006650Y-74019504D01*
X-263047449Y-74046764D01*
X-263090722Y-74069895D01*
X-263136055Y-74088672D01*
X-263183010Y-74102916D01*
X-263231135Y-74112488D01*
X-263279966Y-74117298D01*
X-263304500Y-74117298D01*
X-263304500Y-74117900D01*
X-263854500Y-74117900D01*
X-263854500Y-72617900D01*
X-263304500Y-72617900D01*
X-263304500Y-72618502D01*
G37*
%TD.AperFunction*%
D17*
%TO.P,J2,2*%
%TO.N,A_V_D*%
X-264604500Y-73367900D03*
%TD*%
D18*
%TO.P,J3,1*%
%TO.N,+5V*%
X-255447800Y-56997600D03*
D19*
%TO.P,J3,2*%
X-257987800Y-56997600D03*
%TO.P,J3,3*%
%TO.N,+3V3*%
X-255447800Y-59537600D03*
%TO.P,J3,4*%
%TO.N,Net-(J3-Pad4)*%
X-257987800Y-59537600D03*
%TO.P,J3,5*%
%TO.N,A_V_D*%
X-255447800Y-62077600D03*
%TO.P,J3,6*%
%TO.N,SCL*%
X-257987800Y-62077600D03*
%TO.P,J3,7*%
%TO.N,SDA*%
X-255447800Y-64617600D03*
%TO.P,J3,8*%
X-257987800Y-64617600D03*
%TO.P,J3,9*%
%TO.N,SCL*%
X-255447800Y-67157600D03*
%TO.P,J3,10*%
%TO.N,HELP3*%
X-257987800Y-67157600D03*
%TO.P,J3,11*%
%TO.N,~A_CS*%
X-255447800Y-69697600D03*
%TO.P,J3,12*%
%TO.N,A_V_D_EXT*%
X-257987800Y-69697600D03*
%TO.P,J3,13*%
%TO.N,MISO*%
X-255447800Y-72237600D03*
%TO.P,J3,14*%
%TO.N,Net-(J3-Pad14)*%
X-257987800Y-72237600D03*
%TO.P,J3,15*%
%TO.N,MOSI*%
X-255447800Y-74777600D03*
%TO.P,J3,16*%
%TO.N,A_V_D*%
X-257987800Y-74777600D03*
%TO.P,J3,17*%
%TO.N,SCK*%
X-255447800Y-77317600D03*
%TO.P,J3,18*%
%TO.N,Net-(J3-Pad18)*%
X-257987800Y-77317600D03*
%TO.P,J3,19*%
%TO.N,GND*%
X-255447800Y-79857600D03*
%TO.P,J3,20*%
%TO.N,HELP3*%
X-257987800Y-79857600D03*
%TO.P,J3,21*%
%TO.N,A_I+*%
X-255447800Y-82397600D03*
%TO.P,J3,22*%
%TO.N,HELP1*%
X-257987800Y-82397600D03*
%TO.P,J3,23*%
%TO.N,A_V+*%
X-255447800Y-84937600D03*
%TO.P,J3,24*%
%TO.N,Net-(J3-Pad24)*%
X-257987800Y-84937600D03*
%TO.P,J3,25*%
%TO.N,A_V-*%
X-255447800Y-87477600D03*
%TO.P,J3,26*%
%TO.N,Net-(J3-Pad26)*%
X-257987800Y-87477600D03*
%TO.P,J3,27*%
%TO.N,A_I-*%
X-255447800Y-90017600D03*
%TO.P,J3,28*%
%TO.N,Net-(J3-Pad28)*%
X-257987800Y-90017600D03*
%TD*%
D20*
%TO.P,J4,2*%
%TO.N,Net-(J4-Pad2)*%
X-271500600Y-58902600D03*
%TA.AperFunction,SMDPad,CuDef*%
D16*
%TO.P,J4,3*%
%TO.N,GND*%
G36*
X-270751202Y-60202600D02*
G01*
X-270751202Y-60227134D01*
X-270756012Y-60275965D01*
X-270765584Y-60324090D01*
X-270779828Y-60371045D01*
X-270798605Y-60416378D01*
X-270821736Y-60459651D01*
X-270848996Y-60500450D01*
X-270880124Y-60538379D01*
X-270914821Y-60573076D01*
X-270952750Y-60604204D01*
X-270993549Y-60631464D01*
X-271036822Y-60654595D01*
X-271082155Y-60673372D01*
X-271129110Y-60687616D01*
X-271177235Y-60697188D01*
X-271226066Y-60701998D01*
X-271250600Y-60701998D01*
X-271250600Y-60702600D01*
X-271750600Y-60702600D01*
X-271750600Y-60701998D01*
X-271775134Y-60701998D01*
X-271823965Y-60697188D01*
X-271872090Y-60687616D01*
X-271919045Y-60673372D01*
X-271964378Y-60654595D01*
X-272007651Y-60631464D01*
X-272048450Y-60604204D01*
X-272086379Y-60573076D01*
X-272121076Y-60538379D01*
X-272152204Y-60500450D01*
X-272179464Y-60459651D01*
X-272202595Y-60416378D01*
X-272221372Y-60371045D01*
X-272235616Y-60324090D01*
X-272245188Y-60275965D01*
X-272249998Y-60227134D01*
X-272249998Y-60202600D01*
X-272250600Y-60202600D01*
X-272250600Y-59652600D01*
X-270750600Y-59652600D01*
X-270750600Y-60202600D01*
X-270751202Y-60202600D01*
G37*
%TD.AperFunction*%
%TA.AperFunction,SMDPad,CuDef*%
%TO.P,J4,1*%
%TO.N,+5V*%
G36*
X-272250600Y-58152600D02*
G01*
X-272250600Y-57602600D01*
X-272249998Y-57602600D01*
X-272249998Y-57578066D01*
X-272245188Y-57529235D01*
X-272235616Y-57481110D01*
X-272221372Y-57434155D01*
X-272202595Y-57388822D01*
X-272179464Y-57345549D01*
X-272152204Y-57304750D01*
X-272121076Y-57266821D01*
X-272086379Y-57232124D01*
X-272048450Y-57200996D01*
X-272007651Y-57173736D01*
X-271964378Y-57150605D01*
X-271919045Y-57131828D01*
X-271872090Y-57117584D01*
X-271823965Y-57108012D01*
X-271775134Y-57103202D01*
X-271750600Y-57103202D01*
X-271750600Y-57102600D01*
X-271250600Y-57102600D01*
X-271250600Y-57103202D01*
X-271226066Y-57103202D01*
X-271177235Y-57108012D01*
X-271129110Y-57117584D01*
X-271082155Y-57131828D01*
X-271036822Y-57150605D01*
X-270993549Y-57173736D01*
X-270952750Y-57200996D01*
X-270914821Y-57232124D01*
X-270880124Y-57266821D01*
X-270848996Y-57304750D01*
X-270821736Y-57345549D01*
X-270798605Y-57388822D01*
X-270779828Y-57434155D01*
X-270765584Y-57481110D01*
X-270756012Y-57529235D01*
X-270751202Y-57578066D01*
X-270751202Y-57602600D01*
X-270750600Y-57602600D01*
X-270750600Y-58152600D01*
X-272250600Y-58152600D01*
G37*
%TD.AperFunction*%
%TD*%
%TO.P,J9,1*%
%TO.N,GND*%
%TA.AperFunction,ComponentPad*%
G36*
G01*
X-233465800Y-28752200D02*
X-233465800Y-31852200D01*
G75*
G02*
X-233715800Y-32102200I-250000J0D01*
G01*
X-235015800Y-32102200D01*
G75*
G02*
X-235265800Y-31852200I0J250000D01*
G01*
X-235265800Y-28752200D01*
G75*
G02*
X-235015800Y-28502200I250000J0D01*
G01*
X-233715800Y-28502200D01*
G75*
G02*
X-233465800Y-28752200I0J-250000D01*
G01*
G37*
%TD.AperFunction*%
D21*
%TO.P,J9,2*%
%TO.N,/Vin*%
X-237865800Y-30302200D03*
%TO.P,J9,3*%
%TO.N,Net-(J9-Pad3)*%
X-241365800Y-30302200D03*
%TO.P,J9,4*%
%TO.N,A_I-*%
X-244865800Y-30302200D03*
%TO.P,J9,5*%
%TO.N,A_I-_EXT*%
X-248365800Y-30302200D03*
%TO.P,J9,6*%
%TO.N,A_V-*%
X-251865800Y-30302200D03*
%TO.P,J9,7*%
%TO.N,A_V+*%
X-255365800Y-30302200D03*
%TO.P,J9,8*%
%TO.N,A_I+*%
X-258865800Y-30302200D03*
%TD*%
%TA.AperFunction,SMDPad,CuDef*%
D16*
%TO.P,JP2,1*%
%TO.N,HELP1*%
G36*
X-305859320Y-47394560D02*
G01*
X-306359320Y-47394560D01*
X-306359320Y-47393958D01*
X-306383854Y-47393958D01*
X-306432685Y-47389148D01*
X-306480810Y-47379576D01*
X-306527765Y-47365332D01*
X-306573098Y-47346555D01*
X-306616371Y-47323424D01*
X-306657170Y-47296164D01*
X-306695099Y-47265036D01*
X-306729796Y-47230339D01*
X-306760924Y-47192410D01*
X-306788184Y-47151611D01*
X-306811315Y-47108338D01*
X-306830092Y-47063005D01*
X-306844336Y-47016050D01*
X-306853908Y-46967925D01*
X-306858718Y-46919094D01*
X-306858718Y-46894560D01*
X-306859320Y-46894560D01*
X-306859320Y-46394560D01*
X-306858718Y-46394560D01*
X-306858718Y-46370026D01*
X-306853908Y-46321195D01*
X-306844336Y-46273070D01*
X-306830092Y-46226115D01*
X-306811315Y-46180782D01*
X-306788184Y-46137509D01*
X-306760924Y-46096710D01*
X-306729796Y-46058781D01*
X-306695099Y-46024084D01*
X-306657170Y-45992956D01*
X-306616371Y-45965696D01*
X-306573098Y-45942565D01*
X-306527765Y-45923788D01*
X-306480810Y-45909544D01*
X-306432685Y-45899972D01*
X-306383854Y-45895162D01*
X-306359320Y-45895162D01*
X-306359320Y-45894560D01*
X-305859320Y-45894560D01*
X-305859320Y-47394560D01*
G37*
%TD.AperFunction*%
%TA.AperFunction,SMDPad,CuDef*%
%TO.P,JP2,2*%
%TO.N,Net-(D1-Pad1)*%
G36*
X-305059320Y-45895162D02*
G01*
X-305034786Y-45895162D01*
X-304985955Y-45899972D01*
X-304937830Y-45909544D01*
X-304890875Y-45923788D01*
X-304845542Y-45942565D01*
X-304802269Y-45965696D01*
X-304761470Y-45992956D01*
X-304723541Y-46024084D01*
X-304688844Y-46058781D01*
X-304657716Y-46096710D01*
X-304630456Y-46137509D01*
X-304607325Y-46180782D01*
X-304588548Y-46226115D01*
X-304574304Y-46273070D01*
X-304564732Y-46321195D01*
X-304559922Y-46370026D01*
X-304559922Y-46394560D01*
X-304559320Y-46394560D01*
X-304559320Y-46894560D01*
X-304559922Y-46894560D01*
X-304559922Y-46919094D01*
X-304564732Y-46967925D01*
X-304574304Y-47016050D01*
X-304588548Y-47063005D01*
X-304607325Y-47108338D01*
X-304630456Y-47151611D01*
X-304657716Y-47192410D01*
X-304688844Y-47230339D01*
X-304723541Y-47265036D01*
X-304761470Y-47296164D01*
X-304802269Y-47323424D01*
X-304845542Y-47346555D01*
X-304890875Y-47365332D01*
X-304937830Y-47379576D01*
X-304985955Y-47389148D01*
X-305034786Y-47393958D01*
X-305059320Y-47393958D01*
X-305059320Y-47394560D01*
X-305559320Y-47394560D01*
X-305559320Y-45894560D01*
X-305059320Y-45894560D01*
X-305059320Y-45895162D01*
G37*
%TD.AperFunction*%
%TD*%
%TA.AperFunction,SMDPad,CuDef*%
%TO.P,JP3,2*%
%TO.N,GND*%
G36*
X-287314880Y-46012002D02*
G01*
X-287290346Y-46012002D01*
X-287241515Y-46016812D01*
X-287193390Y-46026384D01*
X-287146435Y-46040628D01*
X-287101102Y-46059405D01*
X-287057829Y-46082536D01*
X-287017030Y-46109796D01*
X-286979101Y-46140924D01*
X-286944404Y-46175621D01*
X-286913276Y-46213550D01*
X-286886016Y-46254349D01*
X-286862885Y-46297622D01*
X-286844108Y-46342955D01*
X-286829864Y-46389910D01*
X-286820292Y-46438035D01*
X-286815482Y-46486866D01*
X-286815482Y-46511400D01*
X-286814880Y-46511400D01*
X-286814880Y-47011400D01*
X-286815482Y-47011400D01*
X-286815482Y-47035934D01*
X-286820292Y-47084765D01*
X-286829864Y-47132890D01*
X-286844108Y-47179845D01*
X-286862885Y-47225178D01*
X-286886016Y-47268451D01*
X-286913276Y-47309250D01*
X-286944404Y-47347179D01*
X-286979101Y-47381876D01*
X-287017030Y-47413004D01*
X-287057829Y-47440264D01*
X-287101102Y-47463395D01*
X-287146435Y-47482172D01*
X-287193390Y-47496416D01*
X-287241515Y-47505988D01*
X-287290346Y-47510798D01*
X-287314880Y-47510798D01*
X-287314880Y-47511400D01*
X-287814880Y-47511400D01*
X-287814880Y-46011400D01*
X-287314880Y-46011400D01*
X-287314880Y-46012002D01*
G37*
%TD.AperFunction*%
%TA.AperFunction,SMDPad,CuDef*%
%TO.P,JP3,1*%
%TO.N,Net-(D1-Pad2)*%
G36*
X-288114880Y-47511400D02*
G01*
X-288614880Y-47511400D01*
X-288614880Y-47510798D01*
X-288639414Y-47510798D01*
X-288688245Y-47505988D01*
X-288736370Y-47496416D01*
X-288783325Y-47482172D01*
X-288828658Y-47463395D01*
X-288871931Y-47440264D01*
X-288912730Y-47413004D01*
X-288950659Y-47381876D01*
X-288985356Y-47347179D01*
X-289016484Y-47309250D01*
X-289043744Y-47268451D01*
X-289066875Y-47225178D01*
X-289085652Y-47179845D01*
X-289099896Y-47132890D01*
X-289109468Y-47084765D01*
X-289114278Y-47035934D01*
X-289114278Y-47011400D01*
X-289114880Y-47011400D01*
X-289114880Y-46511400D01*
X-289114278Y-46511400D01*
X-289114278Y-46486866D01*
X-289109468Y-46438035D01*
X-289099896Y-46389910D01*
X-289085652Y-46342955D01*
X-289066875Y-46297622D01*
X-289043744Y-46254349D01*
X-289016484Y-46213550D01*
X-288985356Y-46175621D01*
X-288950659Y-46140924D01*
X-288912730Y-46109796D01*
X-288871931Y-46082536D01*
X-288828658Y-46059405D01*
X-288783325Y-46040628D01*
X-288736370Y-46026384D01*
X-288688245Y-46016812D01*
X-288639414Y-46012002D01*
X-288614880Y-46012002D01*
X-288614880Y-46011400D01*
X-288114880Y-46011400D01*
X-288114880Y-47511400D01*
G37*
%TD.AperFunction*%
%TD*%
%TA.AperFunction,SMDPad,CuDef*%
%TO.P,JP4,1*%
%TO.N,HELP3*%
G36*
X-311644600Y-75397500D02*
G01*
X-311644600Y-75897500D01*
X-311645202Y-75897500D01*
X-311645202Y-75922034D01*
X-311650012Y-75970865D01*
X-311659584Y-76018990D01*
X-311673828Y-76065945D01*
X-311692605Y-76111278D01*
X-311715736Y-76154551D01*
X-311742996Y-76195350D01*
X-311774124Y-76233279D01*
X-311808821Y-76267976D01*
X-311846750Y-76299104D01*
X-311887549Y-76326364D01*
X-311930822Y-76349495D01*
X-311976155Y-76368272D01*
X-312023110Y-76382516D01*
X-312071235Y-76392088D01*
X-312120066Y-76396898D01*
X-312144600Y-76396898D01*
X-312144600Y-76397500D01*
X-312644600Y-76397500D01*
X-312644600Y-76396898D01*
X-312669134Y-76396898D01*
X-312717965Y-76392088D01*
X-312766090Y-76382516D01*
X-312813045Y-76368272D01*
X-312858378Y-76349495D01*
X-312901651Y-76326364D01*
X-312942450Y-76299104D01*
X-312980379Y-76267976D01*
X-313015076Y-76233279D01*
X-313046204Y-76195350D01*
X-313073464Y-76154551D01*
X-313096595Y-76111278D01*
X-313115372Y-76065945D01*
X-313129616Y-76018990D01*
X-313139188Y-75970865D01*
X-313143998Y-75922034D01*
X-313143998Y-75897500D01*
X-313144600Y-75897500D01*
X-313144600Y-75397500D01*
X-311644600Y-75397500D01*
G37*
%TD.AperFunction*%
%TA.AperFunction,SMDPad,CuDef*%
%TO.P,JP4,2*%
%TO.N,Net-(D2-Pad1)*%
G36*
X-313143998Y-74597500D02*
G01*
X-313143998Y-74572966D01*
X-313139188Y-74524135D01*
X-313129616Y-74476010D01*
X-313115372Y-74429055D01*
X-313096595Y-74383722D01*
X-313073464Y-74340449D01*
X-313046204Y-74299650D01*
X-313015076Y-74261721D01*
X-312980379Y-74227024D01*
X-312942450Y-74195896D01*
X-312901651Y-74168636D01*
X-312858378Y-74145505D01*
X-312813045Y-74126728D01*
X-312766090Y-74112484D01*
X-312717965Y-74102912D01*
X-312669134Y-74098102D01*
X-312644600Y-74098102D01*
X-312644600Y-74097500D01*
X-312144600Y-74097500D01*
X-312144600Y-74098102D01*
X-312120066Y-74098102D01*
X-312071235Y-74102912D01*
X-312023110Y-74112484D01*
X-311976155Y-74126728D01*
X-311930822Y-74145505D01*
X-311887549Y-74168636D01*
X-311846750Y-74195896D01*
X-311808821Y-74227024D01*
X-311774124Y-74261721D01*
X-311742996Y-74299650D01*
X-311715736Y-74340449D01*
X-311692605Y-74383722D01*
X-311673828Y-74429055D01*
X-311659584Y-74476010D01*
X-311650012Y-74524135D01*
X-311645202Y-74572966D01*
X-311645202Y-74597500D01*
X-311644600Y-74597500D01*
X-311644600Y-75097500D01*
X-313144600Y-75097500D01*
X-313144600Y-74597500D01*
X-313143998Y-74597500D01*
G37*
%TD.AperFunction*%
%TD*%
%TA.AperFunction,SMDPad,CuDef*%
%TO.P,JP5,1*%
%TO.N,Net-(D2-Pad2)*%
G36*
X-305854240Y-74181400D02*
G01*
X-306354240Y-74181400D01*
X-306354240Y-74180798D01*
X-306378774Y-74180798D01*
X-306427605Y-74175988D01*
X-306475730Y-74166416D01*
X-306522685Y-74152172D01*
X-306568018Y-74133395D01*
X-306611291Y-74110264D01*
X-306652090Y-74083004D01*
X-306690019Y-74051876D01*
X-306724716Y-74017179D01*
X-306755844Y-73979250D01*
X-306783104Y-73938451D01*
X-306806235Y-73895178D01*
X-306825012Y-73849845D01*
X-306839256Y-73802890D01*
X-306848828Y-73754765D01*
X-306853638Y-73705934D01*
X-306853638Y-73681400D01*
X-306854240Y-73681400D01*
X-306854240Y-73181400D01*
X-306853638Y-73181400D01*
X-306853638Y-73156866D01*
X-306848828Y-73108035D01*
X-306839256Y-73059910D01*
X-306825012Y-73012955D01*
X-306806235Y-72967622D01*
X-306783104Y-72924349D01*
X-306755844Y-72883550D01*
X-306724716Y-72845621D01*
X-306690019Y-72810924D01*
X-306652090Y-72779796D01*
X-306611291Y-72752536D01*
X-306568018Y-72729405D01*
X-306522685Y-72710628D01*
X-306475730Y-72696384D01*
X-306427605Y-72686812D01*
X-306378774Y-72682002D01*
X-306354240Y-72682002D01*
X-306354240Y-72681400D01*
X-305854240Y-72681400D01*
X-305854240Y-74181400D01*
G37*
%TD.AperFunction*%
%TA.AperFunction,SMDPad,CuDef*%
%TO.P,JP5,2*%
%TO.N,GND*%
G36*
X-305054240Y-72682002D02*
G01*
X-305029706Y-72682002D01*
X-304980875Y-72686812D01*
X-304932750Y-72696384D01*
X-304885795Y-72710628D01*
X-304840462Y-72729405D01*
X-304797189Y-72752536D01*
X-304756390Y-72779796D01*
X-304718461Y-72810924D01*
X-304683764Y-72845621D01*
X-304652636Y-72883550D01*
X-304625376Y-72924349D01*
X-304602245Y-72967622D01*
X-304583468Y-73012955D01*
X-304569224Y-73059910D01*
X-304559652Y-73108035D01*
X-304554842Y-73156866D01*
X-304554842Y-73181400D01*
X-304554240Y-73181400D01*
X-304554240Y-73681400D01*
X-304554842Y-73681400D01*
X-304554842Y-73705934D01*
X-304559652Y-73754765D01*
X-304569224Y-73802890D01*
X-304583468Y-73849845D01*
X-304602245Y-73895178D01*
X-304625376Y-73938451D01*
X-304652636Y-73979250D01*
X-304683764Y-74017179D01*
X-304718461Y-74051876D01*
X-304756390Y-74083004D01*
X-304797189Y-74110264D01*
X-304840462Y-74133395D01*
X-304885795Y-74152172D01*
X-304932750Y-74166416D01*
X-304980875Y-74175988D01*
X-305029706Y-74180798D01*
X-305054240Y-74180798D01*
X-305054240Y-74181400D01*
X-305554240Y-74181400D01*
X-305554240Y-72681400D01*
X-305054240Y-72681400D01*
X-305054240Y-72682002D01*
G37*
%TD.AperFunction*%
%TD*%
D19*
%TO.P,P3,2*%
%TO.N,GND*%
X-255549400Y-39014400D03*
D18*
%TO.P,P3,1*%
%TO.N,A_I-_EXT*%
X-255549400Y-36474400D03*
%TD*%
%TO.P,P4,1*%
%TO.N,A_I-_EXT*%
X-247040400Y-35560000D03*
D19*
%TO.P,P4,2*%
%TO.N,A_I-*%
X-244500400Y-35560000D03*
%TD*%
D18*
%TO.P,Raspberry_header1,1*%
%TO.N,+3V3*%
X-244856000Y-56997600D03*
D19*
%TO.P,Raspberry_header1,2*%
%TO.N,+5V*%
X-247396000Y-56997600D03*
%TO.P,Raspberry_header1,3*%
%TO.N,SDA*%
X-244856000Y-59537600D03*
%TO.P,Raspberry_header1,4*%
%TO.N,Net-(Raspberry_header1-Pad4)*%
X-247396000Y-59537600D03*
%TO.P,Raspberry_header1,5*%
%TO.N,SCL*%
X-244856000Y-62077600D03*
%TO.P,Raspberry_header1,6*%
%TO.N,GND*%
X-247396000Y-62077600D03*
%TO.P,Raspberry_header1,7*%
%TO.N,CLK0*%
X-244856000Y-64617600D03*
%TO.P,Raspberry_header1,8*%
%TO.N,Net-(Raspberry_header1-Pad8)*%
X-247396000Y-64617600D03*
%TO.P,Raspberry_header1,9*%
%TO.N,Net-(Raspberry_header1-Pad9)*%
X-244856000Y-67157600D03*
%TO.P,Raspberry_header1,10*%
%TO.N,Net-(Raspberry_header1-Pad10)*%
X-247396000Y-67157600D03*
%TO.P,Raspberry_header1,11*%
%TO.N,Net-(Raspberry_header1-Pad11)*%
X-244856000Y-69697600D03*
%TO.P,Raspberry_header1,12*%
%TO.N,Net-(Raspberry_header1-Pad12)*%
X-247396000Y-69697600D03*
%TO.P,Raspberry_header1,13*%
%TO.N,Net-(Raspberry_header1-Pad13)*%
X-244856000Y-72237600D03*
%TO.P,Raspberry_header1,14*%
%TO.N,Net-(Raspberry_header1-Pad14)*%
X-247396000Y-72237600D03*
%TO.P,Raspberry_header1,15*%
%TO.N,Net-(Raspberry_header1-Pad15)*%
X-244856000Y-74777600D03*
%TO.P,Raspberry_header1,16*%
%TO.N,Net-(Raspberry_header1-Pad16)*%
X-247396000Y-74777600D03*
%TO.P,Raspberry_header1,17*%
%TO.N,Net-(Raspberry_header1-Pad17)*%
X-244856000Y-77317600D03*
%TO.P,Raspberry_header1,18*%
%TO.N,Net-(Raspberry_header1-Pad18)*%
X-247396000Y-77317600D03*
%TO.P,Raspberry_header1,19*%
%TO.N,MOSI*%
X-244856000Y-79857600D03*
%TO.P,Raspberry_header1,20*%
%TO.N,Net-(Raspberry_header1-Pad20)*%
X-247396000Y-79857600D03*
%TO.P,Raspberry_header1,21*%
%TO.N,MISO*%
X-244856000Y-82397600D03*
%TO.P,Raspberry_header1,22*%
%TO.N,Net-(Raspberry_header1-Pad22)*%
X-247396000Y-82397600D03*
%TO.P,Raspberry_header1,23*%
%TO.N,SCLK*%
X-244856000Y-84937600D03*
%TO.P,Raspberry_header1,24*%
%TO.N,SCK*%
X-247396000Y-84937600D03*
%TO.P,Raspberry_header1,25*%
%TO.N,Net-(Raspberry_header1-Pad25)*%
X-244856000Y-87477600D03*
%TO.P,Raspberry_header1,26*%
%TO.N,Net-(Raspberry_header1-Pad26)*%
X-247396000Y-87477600D03*
%TO.P,Raspberry_header1,27*%
%TO.N,Net-(Raspberry_header1-Pad27)*%
X-244856000Y-90017600D03*
%TO.P,Raspberry_header1,28*%
%TO.N,Net-(Raspberry_header1-Pad28)*%
X-247396000Y-90017600D03*
%TO.P,Raspberry_header1,29*%
%TO.N,Net-(Raspberry_header1-Pad29)*%
X-244856000Y-92557600D03*
%TO.P,Raspberry_header1,30*%
%TO.N,Net-(Raspberry_header1-Pad30)*%
X-247396000Y-92557600D03*
%TO.P,Raspberry_header1,31*%
%TO.N,GPIO6*%
X-244856000Y-95097600D03*
%TO.P,Raspberry_header1,32*%
%TO.N,Net-(Raspberry_header1-Pad32)*%
X-247396000Y-95097600D03*
%TO.P,Raspberry_header1,33*%
%TO.N,Net-(Raspberry_header1-Pad33)*%
X-244856000Y-97637600D03*
%TO.P,Raspberry_header1,34*%
%TO.N,Net-(Raspberry_header1-Pad34)*%
X-247396000Y-97637600D03*
%TO.P,Raspberry_header1,35*%
%TO.N,Net-(Raspberry_header1-Pad35)*%
X-244856000Y-100177600D03*
%TO.P,Raspberry_header1,36*%
%TO.N,Net-(Raspberry_header1-Pad36)*%
X-247396000Y-100177600D03*
%TO.P,Raspberry_header1,37*%
%TO.N,Net-(Raspberry_header1-Pad37)*%
X-244856000Y-102717600D03*
%TO.P,Raspberry_header1,38*%
%TO.N,Net-(Raspberry_header1-Pad38)*%
X-247396000Y-102717600D03*
%TO.P,Raspberry_header1,39*%
%TO.N,GND*%
X-244856000Y-105257600D03*
%TO.P,Raspberry_header1,40*%
%TO.N,Net-(Raspberry_header1-Pad40)*%
X-247396000Y-105257600D03*
%TD*%
D18*
%TO.P,SSR_connector1,1*%
%TO.N,Net-(SSR-Ithink1-Pad11)*%
X-178282600Y-70383400D03*
D19*
%TO.P,SSR_connector1,2*%
%TO.N,Net-(SSR-Ithink1-Pad14)*%
X-175742600Y-70383400D03*
%TD*%
D18*
%TO.P,Temp_sensor1,1*%
%TO.N,+3V3*%
X-282321000Y-41325800D03*
D19*
%TO.P,Temp_sensor1,2*%
%TO.N,CLK0*%
X-282321000Y-43865800D03*
%TO.P,Temp_sensor1,3*%
%TO.N,GND*%
X-282321000Y-46405800D03*
%TD*%
D22*
%TO.P,U1,1*%
%TO.N,Net-(R4-Pad2)*%
X-270982800Y-63414400D03*
%TO.P,U1,2*%
%TO.N,Net-(R3-Pad1)*%
X-270982800Y-63914400D03*
%TO.P,U1,3*%
%TO.N,GND*%
X-270982800Y-64414400D03*
%TO.P,U1,4*%
%TO.N,A_V_D_LOC*%
X-270982800Y-64914400D03*
%TO.P,U1,5*%
%TO.N,Net-(TP2-Pad1)*%
X-270982800Y-65414400D03*
%TO.P,U1,6*%
%TO.N,HELP1*%
X-266582800Y-65414400D03*
%TO.P,U1,7*%
%TO.N,HELP3*%
X-266582800Y-64914400D03*
%TO.P,U1,8*%
%TO.N,+5V*%
X-266582800Y-64414400D03*
%TO.P,U1,9*%
%TO.N,SDA*%
X-266582800Y-63914400D03*
%TO.P,U1,10*%
%TO.N,SCL*%
X-266582800Y-63414400D03*
%TD*%
D14*
%TO.P,TP1,1*%
%TO.N,GND*%
X-251815600Y-88011000D03*
%TD*%
%TO.P,TP6,1*%
%TO.N,A_I-*%
X-249336560Y-39522400D03*
%TD*%
D23*
%TO.P,C1,1*%
%TO.N,+5V*%
X-283718000Y-51003200D03*
D24*
%TO.P,C1,2*%
%TO.N,GND*%
X-282218000Y-51003200D03*
%TD*%
D25*
%TO.N,+5V*%
X-255447800Y-56997600D02*
X-247396000Y-56997600D01*
X-215620600Y-29616400D02*
X-224739200Y-29616400D01*
X-247396000Y-52273200D02*
X-247396000Y-56997600D01*
X-224739200Y-29616400D02*
X-224942400Y-29819600D01*
X-224942400Y-29819600D02*
X-247396000Y-52273200D01*
X-276047200Y-56235600D02*
X-284048200Y-56235600D01*
X-284048200Y-56235600D02*
X-284099000Y-56286400D01*
X-301066200Y-56489600D02*
X-295910000Y-56489600D01*
X-284759400Y-55626000D02*
X-284099000Y-56286400D01*
X-288086800Y-55626000D02*
X-284759400Y-55626000D01*
X-289026600Y-54686200D02*
X-288086800Y-55626000D01*
X-295198800Y-54686200D02*
X-289026600Y-54686200D01*
X-295351200Y-54533800D02*
X-295198800Y-54686200D01*
X-295351200Y-55930800D02*
X-295351200Y-54533800D01*
X-295910000Y-56489600D02*
X-295351200Y-55930800D01*
X-271500600Y-57602600D02*
X-272948400Y-57602600D01*
X-272948400Y-57602600D02*
X-274680200Y-57602600D01*
X-274680200Y-57602600D02*
X-276047200Y-56235600D01*
X-272948400Y-57602600D02*
X-272948400Y-61976000D01*
X-267817600Y-64414400D02*
X-266582800Y-64414400D01*
X-267893800Y-64338200D02*
X-267817600Y-64414400D01*
X-267893800Y-63169800D02*
X-267893800Y-64338200D01*
X-268884400Y-62179200D02*
X-267893800Y-63169800D01*
X-272745200Y-62179200D02*
X-270510000Y-62179200D01*
X-270510000Y-62179200D02*
X-268884400Y-62179200D01*
X-272948400Y-61976000D02*
X-272745200Y-62179200D01*
X-270510000Y-62179200D02*
X-270510000Y-61137800D01*
X-259740400Y-55245000D02*
X-257987800Y-56997600D01*
X-265836400Y-55245000D02*
X-259740400Y-55245000D01*
X-267360400Y-56769000D02*
X-265836400Y-55245000D01*
X-267360400Y-57988200D02*
X-267360400Y-56769000D01*
X-270510000Y-61137800D02*
X-267360400Y-57988200D01*
%TO.N,GND*%
X-255447800Y-79857600D02*
X-254812800Y-79857600D01*
X-246989600Y-107391200D02*
X-244856000Y-105257600D01*
X-251790200Y-107391200D02*
X-246989600Y-107391200D01*
X-251866400Y-107315000D02*
X-251790200Y-107391200D01*
X-251866400Y-82804000D02*
X-251866400Y-107315000D01*
X-254812800Y-79857600D02*
X-251866400Y-82804000D01*
X-244856000Y-105257600D02*
X-241401600Y-101803200D01*
X-200371400Y-66074600D02*
X-200371400Y-61468000D01*
X-200126600Y-66319400D02*
X-200371400Y-66074600D01*
X-196621400Y-66319400D02*
X-200126600Y-66319400D01*
X-196621400Y-66319400D02*
X-195529200Y-67411600D01*
X-195529200Y-67411600D02*
X-195529200Y-93141800D01*
X-195529200Y-93141800D02*
X-198805800Y-96418400D01*
X-198805800Y-96418400D02*
X-239953800Y-96418400D01*
X-239953800Y-96418400D02*
X-241401600Y-97866200D01*
X-241401600Y-97866200D02*
X-241401600Y-101803200D01*
X-210540600Y-29616400D02*
X-210540600Y-24866600D01*
X-234365800Y-25450800D02*
X-234365800Y-30302200D01*
X-234264200Y-25349200D02*
X-234365800Y-25450800D01*
X-211023200Y-25349200D02*
X-234264200Y-25349200D01*
X-210540600Y-24866600D02*
X-211023200Y-25349200D01*
X-234365800Y-30302200D02*
X-234365800Y-33832800D01*
X-256692400Y-78613000D02*
X-255447800Y-79857600D01*
X-256692400Y-76047600D02*
X-256692400Y-78613000D01*
X-256692400Y-65887600D02*
X-256692400Y-76047600D01*
X-256692400Y-54508400D02*
X-256692400Y-65887600D01*
X-255778000Y-53594000D02*
X-256540000Y-54356000D01*
X-256540000Y-54356000D02*
X-256692400Y-54508400D01*
X-254127000Y-53594000D02*
X-255473200Y-53594000D01*
X-255473200Y-53594000D02*
X-255778000Y-53594000D01*
X-234365800Y-33832800D02*
X-254127000Y-53594000D01*
X-255549400Y-39014400D02*
X-255549400Y-53517800D01*
X-255549400Y-53517800D02*
X-255473200Y-53594000D01*
X-247396000Y-62077600D02*
X-248996200Y-62077600D01*
X-252806200Y-65887600D02*
X-256692400Y-65887600D01*
X-248996200Y-62077600D02*
X-252806200Y-65887600D01*
X-251815600Y-88011000D02*
X-251815600Y-86842600D01*
X-251866400Y-86791800D02*
X-251815600Y-88011000D01*
X-251815600Y-86842600D02*
X-251866400Y-86791800D01*
X-270982800Y-64414400D02*
X-273227800Y-64414400D01*
X-273227800Y-64414400D02*
X-273837400Y-65024000D01*
X-273837400Y-65024000D02*
X-273837400Y-77317600D01*
X-273837400Y-77317600D02*
X-275882100Y-78371700D01*
X-275882100Y-78371700D02*
X-280658722Y-77898943D01*
X-280658722Y-77898943D02*
X-281863800Y-77571600D01*
X-281863800Y-77571600D02*
X-281863800Y-73482200D01*
X-281863800Y-73482200D02*
X-281889200Y-73456800D01*
X-281889200Y-73456800D02*
X-284962600Y-73596500D01*
X-284962600Y-73596500D02*
X-287299400Y-75209400D01*
X-287299400Y-75209400D02*
X-287299400Y-79471520D01*
X-287299400Y-79471520D02*
X-287299400Y-79578200D01*
X-287299400Y-79578200D02*
X-286804100Y-80073500D01*
X-286804100Y-80073500D02*
X-286766000Y-80111600D01*
X-271500600Y-60202600D02*
X-270260600Y-60202600D01*
X-266369800Y-54356000D02*
X-256540000Y-54356000D01*
X-268122400Y-56108600D02*
X-266369800Y-54356000D01*
X-268122400Y-58064400D02*
X-268122400Y-57429400D01*
X-268122400Y-57429400D02*
X-268122400Y-56108600D01*
X-270260600Y-60202600D02*
X-268122400Y-58064400D01*
X-282218000Y-51003200D02*
X-282218000Y-46508800D01*
X-282218000Y-46508800D02*
X-282321000Y-46405800D01*
X-268122400Y-57429400D02*
X-268579600Y-57429400D01*
X-280338400Y-52882800D02*
X-282218000Y-51003200D01*
X-273126200Y-52882800D02*
X-280338400Y-52882800D01*
X-268579600Y-57429400D02*
X-273126200Y-52882800D01*
X-256692400Y-78613000D02*
X-256743200Y-78663800D01*
X-271813589Y-80437289D02*
X-271813589Y-78862489D01*
X-272084800Y-80708500D02*
X-271813589Y-80437289D01*
X-285508700Y-80708500D02*
X-272084800Y-80708500D01*
X-286143700Y-80073500D02*
X-285508700Y-80708500D01*
X-286143700Y-80073500D02*
X-286804100Y-80073500D01*
X-256806700Y-78663800D02*
X-256743200Y-78663800D01*
X-271813589Y-78862489D02*
X-256806700Y-78663800D01*
X-305054240Y-73431400D02*
X-299897800Y-73431400D01*
X-296885360Y-79471520D02*
X-287299400Y-79471520D01*
X-297555920Y-78800960D02*
X-296885360Y-79471520D01*
X-297555920Y-75773280D02*
X-297555920Y-78800960D01*
X-299897800Y-73431400D02*
X-297555920Y-75773280D01*
X-287314880Y-46761400D02*
X-282676600Y-46761400D01*
X-282676600Y-46761400D02*
X-282321000Y-46405800D01*
%TO.N,MISO*%
X-255447800Y-72237600D02*
X-251231400Y-72237600D01*
X-243560600Y-81102200D02*
X-244856000Y-82397600D01*
X-243560600Y-74422000D02*
X-243560600Y-81102200D01*
X-244475000Y-73507600D02*
X-243560600Y-74422000D01*
X-249961400Y-73507600D02*
X-244475000Y-73507600D01*
X-251231400Y-72237600D02*
X-249961400Y-73507600D01*
%TO.N,SCK*%
X-255447800Y-77317600D02*
X-255016000Y-77317600D01*
X-255016000Y-77317600D02*
X-247396000Y-84937600D01*
%TO.N,A_V_D_EXT*%
X-263304500Y-73367900D02*
X-261658100Y-73367900D01*
X-261658100Y-73367900D02*
X-257987800Y-69697600D01*
%TO.N,SDA*%
X-255447800Y-64617600D02*
X-254127000Y-64617600D01*
X-246126000Y-60807600D02*
X-244856000Y-59537600D01*
X-250317000Y-60807600D02*
X-246126000Y-60807600D01*
X-254127000Y-64617600D02*
X-250317000Y-60807600D01*
X-208000600Y-32156400D02*
X-208153000Y-32156400D01*
X-242620800Y-57302400D02*
X-244856000Y-59537600D01*
X-242620800Y-51511200D02*
X-242620800Y-57302400D01*
X-230555800Y-39446200D02*
X-242620800Y-51511200D01*
X-221386400Y-39446200D02*
X-230555800Y-39446200D01*
X-220370400Y-38430200D02*
X-221386400Y-39446200D01*
X-220370400Y-32232600D02*
X-220370400Y-38430200D01*
X-219125800Y-30988000D02*
X-220370400Y-32232600D01*
X-209321400Y-30988000D02*
X-219125800Y-30988000D01*
X-208153000Y-32156400D02*
X-209321400Y-30988000D01*
X-266582800Y-63914400D02*
X-258691000Y-63914400D01*
X-258691000Y-63914400D02*
X-257987800Y-64617600D01*
%TO.N,/Vin*%
X-237865800Y-30302200D02*
X-237865800Y-26817200D01*
X-203962000Y-30657800D02*
X-205460600Y-32156400D01*
X-203962000Y-24841200D02*
X-203962000Y-30657800D01*
X-204825600Y-23977600D02*
X-203962000Y-24841200D01*
X-237540800Y-23977600D02*
X-236880400Y-23977600D01*
X-236880400Y-23977600D02*
X-204825600Y-23977600D01*
X-237845600Y-24282400D02*
X-237540800Y-23977600D01*
X-237845600Y-26797000D02*
X-237845600Y-24282400D01*
X-237865800Y-26817200D02*
X-237845600Y-26797000D01*
%TO.N,MOSI*%
X-244856000Y-79857600D02*
X-245440200Y-79857600D01*
X-254355600Y-74777600D02*
X-255447800Y-74777600D01*
X-250571000Y-78562200D02*
X-254355600Y-74777600D01*
X-246735600Y-78562200D02*
X-250571000Y-78562200D01*
X-245440200Y-79857600D02*
X-246735600Y-78562200D01*
%TO.N,SCL*%
X-255447800Y-67157600D02*
X-252653800Y-67157600D01*
X-246100600Y-63322200D02*
X-244856000Y-62077600D01*
X-248818400Y-63322200D02*
X-246100600Y-63322200D01*
X-252653800Y-67157600D02*
X-248818400Y-63322200D01*
X-208000600Y-29616400D02*
X-206857600Y-29616400D01*
X-241503200Y-58724800D02*
X-244856000Y-62077600D01*
X-241503200Y-52070000D02*
X-241503200Y-58724800D01*
X-230581200Y-41148000D02*
X-241503200Y-52070000D01*
X-221919800Y-41148000D02*
X-230581200Y-41148000D01*
X-218236800Y-37465000D02*
X-221919800Y-41148000D01*
X-207518000Y-37465000D02*
X-218236800Y-37465000D01*
X-206857600Y-36804600D02*
X-207518000Y-37465000D01*
X-206857600Y-29616400D02*
X-206857600Y-36804600D01*
X-266582800Y-63414400D02*
X-259324600Y-63414400D01*
X-259324600Y-63414400D02*
X-257987800Y-62077600D01*
%TO.N,A_V_D_LOC*%
X-265904500Y-73367900D02*
X-268871700Y-73367900D01*
X-268871700Y-73367900D02*
X-269062200Y-73177400D01*
X-269062200Y-73177400D02*
X-269062200Y-75247500D01*
X-272529300Y-78752700D02*
X-272478500Y-78803500D01*
X-272478500Y-78803500D02*
X-272542000Y-78740000D01*
X-272529300Y-78765400D02*
X-272529300Y-78752700D01*
X-272554700Y-78740000D02*
X-272529300Y-78765400D01*
X-269062200Y-75247500D02*
X-272554700Y-78740000D01*
X-272478500Y-78803500D02*
X-272478500Y-79222600D01*
X-272546700Y-64914400D02*
X-270982800Y-64914400D01*
X-272846800Y-65214500D02*
X-272546700Y-64914400D01*
X-272846800Y-77025500D02*
X-272846800Y-65214500D01*
X-274231100Y-78409800D02*
X-272846800Y-77025500D01*
X-274662900Y-78409800D02*
X-274231100Y-78409800D01*
X-275142969Y-78889869D02*
X-274662900Y-78409800D01*
X-276909618Y-78889869D02*
X-275142969Y-78889869D01*
X-272478500Y-79222600D02*
X-273265900Y-80010000D01*
X-273265900Y-80010000D02*
X-283984700Y-80010000D01*
X-283984700Y-80010000D02*
X-286042100Y-77952600D01*
X-286042100Y-77952600D02*
X-286042100Y-75806300D01*
X-286042100Y-75806300D02*
X-284949900Y-74714100D01*
X-284949900Y-74714100D02*
X-283260800Y-74714100D01*
X-283260800Y-74714100D02*
X-282486100Y-75488800D01*
X-282486100Y-75488800D02*
X-282486100Y-78205094D01*
X-282486100Y-78205094D02*
X-281900394Y-78790800D01*
X-281900394Y-78790800D02*
X-277008687Y-78790800D01*
X-277008687Y-78790800D02*
X-276909618Y-78889869D01*
%TO.N,A_V_D*%
X-264604500Y-73367900D02*
X-264604500Y-75247500D01*
X-264134600Y-74777600D02*
X-257987800Y-74777600D01*
X-264604500Y-75247500D02*
X-264134600Y-74777600D01*
%TO.N,+3V3*%
X-255447800Y-59537600D02*
X-251282200Y-59537600D01*
X-246100600Y-58242200D02*
X-244856000Y-56997600D01*
X-249986800Y-58242200D02*
X-246100600Y-58242200D01*
X-251282200Y-59537600D02*
X-249986800Y-58242200D01*
X-282178760Y-36062920D02*
X-282178760Y-41183560D01*
X-282178760Y-41183560D02*
X-282321000Y-41325800D01*
%TO.N,A_I+*%
X-258865800Y-30302200D02*
X-258865800Y-18527600D01*
X-256667000Y-83616800D02*
X-255447800Y-82397600D01*
X-260477000Y-83616800D02*
X-256667000Y-83616800D01*
X-263144000Y-86283800D02*
X-260477000Y-83616800D01*
X-263144000Y-96977200D02*
X-263144000Y-86283800D01*
X-265607800Y-99441000D02*
X-263144000Y-96977200D01*
X-336245200Y-99441000D02*
X-265607800Y-99441000D01*
X-340258400Y-95427800D02*
X-336245200Y-99441000D01*
X-340258400Y-19964400D02*
X-340258400Y-95427800D01*
X-338429600Y-18135600D02*
X-340258400Y-19964400D01*
X-259257800Y-18135600D02*
X-338429600Y-18135600D01*
X-258865800Y-18527600D02*
X-259257800Y-18135600D01*
%TO.N,A_V+*%
X-255447800Y-84937600D02*
X-255651000Y-84937600D01*
X-341249000Y-16789400D02*
X-279755663Y-16941737D01*
X-341934800Y-17475200D02*
X-341249000Y-16789400D01*
X-341934800Y-96367600D02*
X-341934800Y-17475200D01*
X-337007200Y-101295200D02*
X-341934800Y-96367600D01*
X-264134600Y-101295200D02*
X-337007200Y-101295200D01*
X-261188200Y-98348800D02*
X-264134600Y-101295200D01*
X-261188200Y-95123000D02*
X-261188200Y-98348800D01*
X-255651000Y-84937600D02*
X-256946400Y-86233000D01*
X-256946400Y-86233000D02*
X-259765800Y-86233000D01*
X-259765800Y-86233000D02*
X-261162800Y-87630000D01*
X-261162800Y-87630000D02*
X-261162800Y-95148400D01*
X-261162800Y-95148400D02*
X-261188200Y-95123000D01*
X-255365800Y-17317000D02*
X-255365800Y-30302200D01*
X-254990600Y-16941800D02*
X-255365800Y-17317000D01*
X-279730200Y-16941800D02*
X-254990600Y-16941800D01*
%TO.N,A_V-*%
X-255447800Y-87477600D02*
X-255574800Y-87477600D01*
X-256768600Y-97409000D02*
X-256768600Y-96189800D01*
X-262509000Y-103149400D02*
X-256768600Y-97409000D01*
X-337388200Y-103149400D02*
X-262509000Y-103149400D01*
X-343789000Y-96748600D02*
X-337388200Y-103149400D01*
X-343789000Y-16941800D02*
X-343789000Y-96748600D01*
X-342188800Y-15341600D02*
X-343789000Y-16941800D01*
X-342188800Y-15341600D02*
X-282321000Y-15341600D01*
X-255574800Y-87477600D02*
X-256590800Y-88493600D01*
X-256590800Y-88493600D02*
X-256590800Y-96012000D01*
X-256590800Y-96012000D02*
X-256768600Y-96189800D01*
X-282346400Y-15341600D02*
X-282321000Y-15341600D01*
X-282321000Y-15341600D02*
X-251891800Y-15341600D01*
X-251891800Y-15341600D02*
X-251764800Y-15341600D01*
X-282397200Y-15392400D02*
X-282346400Y-15341600D01*
X-251891800Y-15341600D02*
X-251891800Y-30276200D01*
X-251891800Y-30276200D02*
X-251865800Y-30302200D01*
%TO.N,A_I-*%
X-244865800Y-30302200D02*
X-244865800Y-35194600D01*
X-244865800Y-35194600D02*
X-244500400Y-35560000D01*
X-255447800Y-90017600D02*
X-255447800Y-97332800D01*
X-344982800Y-14198600D02*
X-284175200Y-14198600D01*
X-346278200Y-15494000D02*
X-344982800Y-14198600D01*
X-346278200Y-96240600D02*
X-346278200Y-15494000D01*
X-337642200Y-104876600D02*
X-346278200Y-96240600D01*
X-261670800Y-104876600D02*
X-337642200Y-104876600D01*
X-255778000Y-98983800D02*
X-261670800Y-104876600D01*
X-255778000Y-97663000D02*
X-255778000Y-98983800D01*
X-255447800Y-97332800D02*
X-255778000Y-97663000D01*
X-284175200Y-14198600D02*
X-244551200Y-14198600D01*
X-244551200Y-14198600D02*
X-244551200Y-14249400D01*
X-244551200Y-14249400D02*
X-244551200Y-14300200D01*
X-244551200Y-14249400D02*
X-244551200Y-29987600D01*
X-244551200Y-29987600D02*
X-244865800Y-30302200D01*
X-244500400Y-35560000D02*
X-244500400Y-39486840D01*
X-244500400Y-39486840D02*
X-244500400Y-40259000D01*
X-244500400Y-40259000D02*
X-249021600Y-44780200D01*
X-249336560Y-39522400D02*
X-244535960Y-39522400D01*
X-244535960Y-39522400D02*
X-244500400Y-39486840D01*
%TO.N,Net-(J4-Pad2)*%
X-271500600Y-58902600D02*
X-270078200Y-58902600D01*
X-304393600Y-65913000D02*
X-293547800Y-76758800D01*
X-304393600Y-54432200D02*
X-304393600Y-65913000D01*
X-303885600Y-53924200D02*
X-304393600Y-54432200D01*
X-272846800Y-53924200D02*
X-303885600Y-53924200D01*
X-269671800Y-57099200D02*
X-272846800Y-53924200D01*
X-269671800Y-58496200D02*
X-269671800Y-57099200D01*
X-270078200Y-58902600D02*
X-269671800Y-58496200D01*
%TO.N,A_I-_EXT*%
X-247040400Y-35560000D02*
X-247040400Y-31627600D01*
X-247040400Y-31627600D02*
X-248365800Y-30302200D01*
X-255549400Y-36474400D02*
X-247954800Y-36474400D01*
X-247954800Y-36474400D02*
X-247040400Y-35560000D01*
X-269341600Y-44780200D02*
X-269341600Y-36195000D01*
X-269062200Y-36474400D02*
X-255549400Y-36474400D01*
X-269341600Y-36195000D02*
X-269062200Y-36474400D01*
%TO.N,Net-(D1-Pad1)*%
X-298922440Y-46791880D02*
X-304912000Y-46791880D01*
X-304912000Y-46791880D02*
X-305059320Y-46644560D01*
%TO.N,Net-(D1-Pad2)*%
X-291302440Y-46791880D02*
X-288645360Y-46791880D01*
X-288645360Y-46791880D02*
X-288614880Y-46761400D01*
%TO.N,Net-(D2-Pad1)*%
X-314111640Y-70708520D02*
X-314111640Y-72880460D01*
X-314111640Y-72880460D02*
X-312394600Y-74597500D01*
%TO.N,Net-(D2-Pad2)*%
X-306354240Y-73431400D02*
X-306354240Y-70845920D01*
X-306354240Y-70845920D02*
X-306491640Y-70708520D01*
%TO.N,Net-(R3-Pad1)*%
X-276047200Y-76555600D02*
X-276047200Y-63982600D01*
X-275979000Y-63914400D02*
X-270982800Y-63914400D01*
X-276047200Y-63982600D02*
X-275979000Y-63914400D01*
%TO.N,Net-(R4-Pad2)*%
X-293547800Y-56438800D02*
X-286893000Y-56438800D01*
X-281085800Y-63414400D02*
X-270982800Y-63414400D01*
X-286080200Y-58420000D02*
X-281085800Y-63414400D01*
X-286080200Y-57251600D02*
X-286080200Y-58420000D01*
X-286893000Y-56438800D02*
X-286080200Y-57251600D01*
%TO.N,CLK0*%
X-282321000Y-43865800D02*
X-298216320Y-43865800D01*
X-302498760Y-39583360D02*
X-302498760Y-36062920D01*
X-298216320Y-43865800D02*
X-302498760Y-39583360D01*
%TO.N,GPIO6*%
X-198958200Y-89433400D02*
X-198958200Y-94488000D01*
X-199567800Y-95097600D02*
X-244856000Y-95097600D01*
X-198958200Y-94488000D02*
X-199567800Y-95097600D01*
%TO.N,Net-(Resistor_SSR1-Pad1)*%
X-198958200Y-69113400D02*
X-201650600Y-69113400D01*
X-198907400Y-59182000D02*
X-196621400Y-61468000D01*
X-203454000Y-59182000D02*
X-198907400Y-59182000D01*
X-203708000Y-59436000D02*
X-203454000Y-59182000D01*
X-203708000Y-67056000D02*
X-203708000Y-59436000D01*
X-201650600Y-69113400D02*
X-203708000Y-67056000D01*
D26*
%TO.N,Net-(SSR-Ithink1-Pad14)*%
X-175742600Y-70383400D02*
X-172923200Y-70383400D01*
X-172847000Y-70307200D02*
X-172847000Y-64516000D01*
X-172847000Y-64516000D02*
X-172847000Y-64160400D01*
X-172923200Y-70383400D02*
X-172847000Y-70307200D01*
X-172847000Y-64516000D02*
X-172847000Y-63992400D01*
X-172847000Y-63992400D02*
X-175371400Y-61468000D01*
%TO.N,Net-(SSR-Ithink1-Pad11)*%
X-178282600Y-70383400D02*
X-180594000Y-70383400D01*
X-180365400Y-70154800D02*
X-180365400Y-61722000D01*
X-180594000Y-70383400D02*
X-180365400Y-70154800D01*
D25*
%TO.N,Net-(TP2-Pad1)*%
X-270916400Y-68884800D02*
X-270916400Y-65480800D01*
X-270916400Y-65480800D02*
X-270982800Y-65414400D01*
%TO.N,HELP1*%
X-284099000Y-76606400D02*
X-284099000Y-79019400D01*
X-284099000Y-79019400D02*
X-283603700Y-79489300D01*
X-283603700Y-79489300D02*
X-273892310Y-79345235D01*
X-273892310Y-79345235D02*
X-272389600Y-77190600D01*
X-272389600Y-77190600D02*
X-272389600Y-74828400D01*
X-272389600Y-74828400D02*
X-272389600Y-74701400D01*
X-272389600Y-74828400D02*
X-272389600Y-71628000D01*
X-268744700Y-71056500D02*
X-266547600Y-68859400D01*
X-271818100Y-71056500D02*
X-268744700Y-71056500D01*
X-272389600Y-71628000D02*
X-271818100Y-71056500D01*
X-266547600Y-68859400D02*
X-266547600Y-65449600D01*
X-266547600Y-65449600D02*
X-266582800Y-65414400D01*
X-306359320Y-46644560D02*
X-338592160Y-46644560D01*
X-264541000Y-85354160D02*
X-261807960Y-82621120D01*
X-261807960Y-82621120D02*
X-261782560Y-82595720D01*
X-264541000Y-95082360D02*
X-264541000Y-85354160D01*
X-267614400Y-98155760D02*
X-264541000Y-95082360D01*
X-334853280Y-98155760D02*
X-267614400Y-98155760D01*
X-338343240Y-94665800D02*
X-334853280Y-98155760D01*
X-338343240Y-46893480D02*
X-338343240Y-94665800D01*
X-338592160Y-46644560D02*
X-338343240Y-46893480D01*
X-261807960Y-82621120D02*
X-258211320Y-82621120D01*
X-258211320Y-82621120D02*
X-257987800Y-82397600D01*
%TO.N,HELP3*%
X-312394600Y-75897500D02*
X-309031400Y-75897500D01*
X-309031400Y-75897500D02*
X-308119300Y-76809600D01*
X-308119300Y-76809600D02*
X-301066200Y-76809600D01*
X-257987800Y-67157600D02*
X-262788400Y-67157600D01*
X-265031600Y-64914400D02*
X-266582800Y-64914400D01*
X-262788400Y-67157600D02*
X-265031600Y-64914400D01*
X-257987800Y-79857600D02*
X-261467600Y-79857600D01*
X-301066200Y-81610200D02*
X-301066200Y-76809600D01*
X-301244000Y-81788000D02*
X-301066200Y-81610200D01*
X-263398000Y-81788000D02*
X-301244000Y-81788000D01*
X-261467600Y-79857600D02*
X-263398000Y-81788000D01*
X-308356000Y-78740000D02*
X-308356000Y-76572900D01*
X-308356000Y-76572900D02*
X-308119300Y-76809600D01*
%TD*%
M02*
