%TF.GenerationSoftware,KiCad,Pcbnew,(5.1.9-0-10_14)*%
%TF.CreationDate,2021-02-14T15:56:36+00:00*%
%TF.ProjectId,solar_mux_1,736f6c61-725f-46d7-9578-5f312e6b6963,rev?*%
%TF.SameCoordinates,Original*%
%TF.FileFunction,Legend,Top*%
%TF.FilePolarity,Positive*%
%FSLAX46Y46*%
G04 Gerber Fmt 4.6, Leading zero omitted, Abs format (unit mm)*
G04 Created by KiCad (PCBNEW (5.1.9-0-10_14)) date 2021-02-14 15:56:36*
%MOMM*%
%LPD*%
G01*
G04 APERTURE LIST*
%ADD10C,0.120000*%
%ADD11C,0.150000*%
G04 APERTURE END LIST*
D10*
%TO.C,C1*%
X-180919000Y-122829000D02*
G75*
G03*
X-180919000Y-122829000I-4120000J0D01*
G01*
X-189119000Y-122829000D02*
X-180959000Y-122829000D01*
X-189119000Y-122789000D02*
X-180959000Y-122789000D01*
X-189119000Y-122749000D02*
X-180959000Y-122749000D01*
X-189118000Y-122709000D02*
X-180960000Y-122709000D01*
X-189116000Y-122669000D02*
X-180962000Y-122669000D01*
X-189115000Y-122629000D02*
X-180963000Y-122629000D01*
X-189113000Y-122589000D02*
X-186079000Y-122589000D01*
X-183999000Y-122589000D02*
X-180965000Y-122589000D01*
X-189110000Y-122549000D02*
X-186079000Y-122549000D01*
X-183999000Y-122549000D02*
X-180968000Y-122549000D01*
X-189107000Y-122509000D02*
X-186079000Y-122509000D01*
X-183999000Y-122509000D02*
X-180971000Y-122509000D01*
X-189104000Y-122469000D02*
X-186079000Y-122469000D01*
X-183999000Y-122469000D02*
X-180974000Y-122469000D01*
X-189100000Y-122429000D02*
X-186079000Y-122429000D01*
X-183999000Y-122429000D02*
X-180978000Y-122429000D01*
X-189096000Y-122389000D02*
X-186079000Y-122389000D01*
X-183999000Y-122389000D02*
X-180982000Y-122389000D01*
X-189091000Y-122349000D02*
X-186079000Y-122349000D01*
X-183999000Y-122349000D02*
X-180987000Y-122349000D01*
X-189087000Y-122309000D02*
X-186079000Y-122309000D01*
X-183999000Y-122309000D02*
X-180991000Y-122309000D01*
X-189081000Y-122269000D02*
X-186079000Y-122269000D01*
X-183999000Y-122269000D02*
X-180997000Y-122269000D01*
X-189076000Y-122229000D02*
X-186079000Y-122229000D01*
X-183999000Y-122229000D02*
X-181002000Y-122229000D01*
X-189069000Y-122189000D02*
X-186079000Y-122189000D01*
X-183999000Y-122189000D02*
X-181009000Y-122189000D01*
X-189063000Y-122149000D02*
X-186079000Y-122149000D01*
X-183999000Y-122149000D02*
X-181015000Y-122149000D01*
X-189056000Y-122108000D02*
X-186079000Y-122108000D01*
X-183999000Y-122108000D02*
X-181022000Y-122108000D01*
X-189049000Y-122068000D02*
X-186079000Y-122068000D01*
X-183999000Y-122068000D02*
X-181029000Y-122068000D01*
X-189041000Y-122028000D02*
X-186079000Y-122028000D01*
X-183999000Y-122028000D02*
X-181037000Y-122028000D01*
X-189033000Y-121988000D02*
X-186079000Y-121988000D01*
X-183999000Y-121988000D02*
X-181045000Y-121988000D01*
X-189024000Y-121948000D02*
X-186079000Y-121948000D01*
X-183999000Y-121948000D02*
X-181054000Y-121948000D01*
X-189015000Y-121908000D02*
X-186079000Y-121908000D01*
X-183999000Y-121908000D02*
X-181063000Y-121908000D01*
X-189006000Y-121868000D02*
X-186079000Y-121868000D01*
X-183999000Y-121868000D02*
X-181072000Y-121868000D01*
X-188996000Y-121828000D02*
X-186079000Y-121828000D01*
X-183999000Y-121828000D02*
X-181082000Y-121828000D01*
X-188986000Y-121788000D02*
X-186079000Y-121788000D01*
X-183999000Y-121788000D02*
X-181092000Y-121788000D01*
X-188975000Y-121748000D02*
X-186079000Y-121748000D01*
X-183999000Y-121748000D02*
X-181103000Y-121748000D01*
X-188964000Y-121708000D02*
X-186079000Y-121708000D01*
X-183999000Y-121708000D02*
X-181114000Y-121708000D01*
X-188953000Y-121668000D02*
X-186079000Y-121668000D01*
X-183999000Y-121668000D02*
X-181125000Y-121668000D01*
X-188941000Y-121628000D02*
X-186079000Y-121628000D01*
X-183999000Y-121628000D02*
X-181137000Y-121628000D01*
X-188928000Y-121588000D02*
X-186079000Y-121588000D01*
X-183999000Y-121588000D02*
X-181150000Y-121588000D01*
X-188916000Y-121548000D02*
X-186079000Y-121548000D01*
X-183999000Y-121548000D02*
X-181162000Y-121548000D01*
X-188902000Y-121508000D02*
X-186079000Y-121508000D01*
X-183999000Y-121508000D02*
X-181176000Y-121508000D01*
X-188889000Y-121468000D02*
X-186079000Y-121468000D01*
X-183999000Y-121468000D02*
X-181189000Y-121468000D01*
X-188874000Y-121428000D02*
X-186079000Y-121428000D01*
X-183999000Y-121428000D02*
X-181204000Y-121428000D01*
X-188860000Y-121388000D02*
X-186079000Y-121388000D01*
X-183999000Y-121388000D02*
X-181218000Y-121388000D01*
X-188844000Y-121348000D02*
X-186079000Y-121348000D01*
X-183999000Y-121348000D02*
X-181234000Y-121348000D01*
X-188829000Y-121308000D02*
X-186079000Y-121308000D01*
X-183999000Y-121308000D02*
X-181249000Y-121308000D01*
X-188813000Y-121268000D02*
X-186079000Y-121268000D01*
X-183999000Y-121268000D02*
X-181265000Y-121268000D01*
X-188796000Y-121228000D02*
X-186079000Y-121228000D01*
X-183999000Y-121228000D02*
X-181282000Y-121228000D01*
X-188779000Y-121188000D02*
X-186079000Y-121188000D01*
X-183999000Y-121188000D02*
X-181299000Y-121188000D01*
X-188761000Y-121148000D02*
X-186079000Y-121148000D01*
X-183999000Y-121148000D02*
X-181317000Y-121148000D01*
X-188743000Y-121108000D02*
X-186079000Y-121108000D01*
X-183999000Y-121108000D02*
X-181335000Y-121108000D01*
X-188725000Y-121068000D02*
X-186079000Y-121068000D01*
X-183999000Y-121068000D02*
X-181353000Y-121068000D01*
X-188705000Y-121028000D02*
X-186079000Y-121028000D01*
X-183999000Y-121028000D02*
X-181373000Y-121028000D01*
X-188686000Y-120988000D02*
X-186079000Y-120988000D01*
X-183999000Y-120988000D02*
X-181392000Y-120988000D01*
X-188666000Y-120948000D02*
X-186079000Y-120948000D01*
X-183999000Y-120948000D02*
X-181412000Y-120948000D01*
X-188645000Y-120908000D02*
X-186079000Y-120908000D01*
X-183999000Y-120908000D02*
X-181433000Y-120908000D01*
X-188623000Y-120868000D02*
X-186079000Y-120868000D01*
X-183999000Y-120868000D02*
X-181455000Y-120868000D01*
X-188601000Y-120828000D02*
X-186079000Y-120828000D01*
X-183999000Y-120828000D02*
X-181477000Y-120828000D01*
X-188579000Y-120788000D02*
X-186079000Y-120788000D01*
X-183999000Y-120788000D02*
X-181499000Y-120788000D01*
X-188556000Y-120748000D02*
X-186079000Y-120748000D01*
X-183999000Y-120748000D02*
X-181522000Y-120748000D01*
X-188532000Y-120708000D02*
X-186079000Y-120708000D01*
X-183999000Y-120708000D02*
X-181546000Y-120708000D01*
X-188508000Y-120668000D02*
X-186079000Y-120668000D01*
X-183999000Y-120668000D02*
X-181570000Y-120668000D01*
X-188483000Y-120628000D02*
X-186079000Y-120628000D01*
X-183999000Y-120628000D02*
X-181595000Y-120628000D01*
X-188457000Y-120588000D02*
X-186079000Y-120588000D01*
X-183999000Y-120588000D02*
X-181621000Y-120588000D01*
X-188431000Y-120548000D02*
X-186079000Y-120548000D01*
X-183999000Y-120548000D02*
X-181647000Y-120548000D01*
X-188404000Y-120508000D02*
X-181674000Y-120508000D01*
X-188377000Y-120468000D02*
X-181701000Y-120468000D01*
X-188348000Y-120428000D02*
X-181730000Y-120428000D01*
X-188319000Y-120388000D02*
X-181759000Y-120388000D01*
X-188289000Y-120348000D02*
X-181789000Y-120348000D01*
X-188259000Y-120308000D02*
X-181819000Y-120308000D01*
X-188228000Y-120268000D02*
X-181850000Y-120268000D01*
X-188195000Y-120228000D02*
X-181883000Y-120228000D01*
X-188163000Y-120188000D02*
X-181915000Y-120188000D01*
X-188129000Y-120148000D02*
X-181949000Y-120148000D01*
X-188094000Y-120108000D02*
X-181984000Y-120108000D01*
X-188058000Y-120068000D02*
X-182020000Y-120068000D01*
X-188022000Y-120028000D02*
X-182056000Y-120028000D01*
X-187984000Y-119988000D02*
X-182094000Y-119988000D01*
X-187946000Y-119948000D02*
X-182132000Y-119948000D01*
X-187906000Y-119908000D02*
X-182172000Y-119908000D01*
X-187865000Y-119868000D02*
X-182213000Y-119868000D01*
X-187823000Y-119828000D02*
X-182255000Y-119828000D01*
X-187780000Y-119788000D02*
X-182298000Y-119788000D01*
X-187736000Y-119748000D02*
X-182342000Y-119748000D01*
X-187690000Y-119708000D02*
X-182388000Y-119708000D01*
X-187643000Y-119668000D02*
X-182435000Y-119668000D01*
X-187595000Y-119628000D02*
X-182483000Y-119628000D01*
X-187544000Y-119588000D02*
X-182534000Y-119588000D01*
X-187493000Y-119548000D02*
X-182585000Y-119548000D01*
X-187439000Y-119508000D02*
X-182639000Y-119508000D01*
X-187384000Y-119468000D02*
X-182694000Y-119468000D01*
X-187326000Y-119428000D02*
X-182752000Y-119428000D01*
X-187267000Y-119388000D02*
X-182811000Y-119388000D01*
X-187205000Y-119348000D02*
X-182873000Y-119348000D01*
X-187141000Y-119308000D02*
X-182937000Y-119308000D01*
X-187073000Y-119268000D02*
X-183005000Y-119268000D01*
X-187003000Y-119228000D02*
X-183075000Y-119228000D01*
X-186929000Y-119188000D02*
X-183149000Y-119188000D01*
X-186852000Y-119148000D02*
X-183226000Y-119148000D01*
X-186770000Y-119108000D02*
X-183308000Y-119108000D01*
X-186684000Y-119068000D02*
X-183394000Y-119068000D01*
X-186591000Y-119028000D02*
X-183487000Y-119028000D01*
X-186492000Y-118988000D02*
X-183586000Y-118988000D01*
X-186385000Y-118948000D02*
X-183693000Y-118948000D01*
X-186268000Y-118908000D02*
X-183810000Y-118908000D01*
X-186137000Y-118868000D02*
X-183941000Y-118868000D01*
X-185987000Y-118828000D02*
X-184091000Y-118828000D01*
X-185807000Y-118788000D02*
X-184271000Y-118788000D01*
X-185572000Y-118748000D02*
X-184506000Y-118748000D01*
X-187354000Y-127238698D02*
X-187354000Y-126438698D01*
X-187754000Y-126838698D02*
X-186954000Y-126838698D01*
%TO.C,J1*%
X-218126000Y-127702000D02*
X-220786000Y-127702000D01*
X-218126000Y-160782000D02*
X-218126000Y-127702000D01*
X-220786000Y-160782000D02*
X-220786000Y-127702000D01*
X-218126000Y-160782000D02*
X-220786000Y-160782000D01*
X-218126000Y-162052000D02*
X-218126000Y-163382000D01*
X-218126000Y-163382000D02*
X-219456000Y-163382000D01*
%TO.C,J2*%
X-238242800Y-212708800D02*
X-238242800Y-207508800D01*
X-251002800Y-212708800D02*
X-238242800Y-212708800D01*
X-253602800Y-207508800D02*
X-238242800Y-207508800D01*
X-251002800Y-212708800D02*
X-251002800Y-210108800D01*
X-251002800Y-210108800D02*
X-253602800Y-210108800D01*
X-253602800Y-210108800D02*
X-253602800Y-207508800D01*
X-252272800Y-212708800D02*
X-253602800Y-212708800D01*
X-253602800Y-212708800D02*
X-253602800Y-211378800D01*
%TO.C,J3*%
X-258530400Y-104809600D02*
X-258530400Y-103479600D01*
X-257200400Y-104809600D02*
X-258530400Y-104809600D01*
X-258530400Y-102209600D02*
X-258530400Y-99609600D01*
X-255930400Y-102209600D02*
X-258530400Y-102209600D01*
X-255930400Y-104809600D02*
X-255930400Y-102209600D01*
X-258530400Y-99609600D02*
X-243170400Y-99609600D01*
X-255930400Y-104809600D02*
X-243170400Y-104809600D01*
X-243170400Y-104809600D02*
X-243170400Y-99609600D01*
%TO.C,JP1*%
X-189608000Y-160202600D02*
X-189608000Y-160802600D01*
X-191708000Y-159502600D02*
X-190308000Y-159502600D01*
X-192408000Y-160802600D02*
X-192408000Y-160202600D01*
X-190308000Y-161502600D02*
X-191708000Y-161502600D01*
X-191708000Y-161502600D02*
G75*
G02*
X-192408000Y-160802600I0J700000D01*
G01*
X-192408000Y-160202600D02*
G75*
G02*
X-191708000Y-159502600I700000J0D01*
G01*
X-190308000Y-159502600D02*
G75*
G02*
X-189608000Y-160202600I0J-700000D01*
G01*
X-189608000Y-160802600D02*
G75*
G02*
X-190308000Y-161502600I-700000J0D01*
G01*
%TO.C,JP2*%
X-178800000Y-143132000D02*
X-178800000Y-140332000D01*
X-178100000Y-139682000D02*
X-177500000Y-139682000D01*
X-176800000Y-140332000D02*
X-176800000Y-143132000D01*
X-177500000Y-143782000D02*
X-178100000Y-143782000D01*
X-178100000Y-143782000D02*
G75*
G02*
X-178800000Y-143082000I0J700000D01*
G01*
X-176800000Y-143082000D02*
G75*
G02*
X-177500000Y-143782000I-700000J0D01*
G01*
X-177500000Y-139682000D02*
G75*
G02*
X-176800000Y-140382000I0J-700000D01*
G01*
X-178800000Y-140382000D02*
G75*
G02*
X-178100000Y-139682000I700000J0D01*
G01*
%TO.C,JP3*%
X-187244000Y-142222000D02*
X-186644000Y-142222000D01*
X-187944000Y-145672000D02*
X-187944000Y-142872000D01*
X-186644000Y-146322000D02*
X-187244000Y-146322000D01*
X-185944000Y-142872000D02*
X-185944000Y-145672000D01*
X-185944000Y-145622000D02*
G75*
G02*
X-186644000Y-146322000I-700000J0D01*
G01*
X-187244000Y-146322000D02*
G75*
G02*
X-187944000Y-145622000I0J700000D01*
G01*
X-187944000Y-142922000D02*
G75*
G02*
X-187244000Y-142222000I700000J0D01*
G01*
X-186644000Y-142222000D02*
G75*
G02*
X-185944000Y-142922000I0J-700000D01*
G01*
%TO.C,JP4*%
X-183880000Y-143132000D02*
X-183880000Y-140332000D01*
X-183180000Y-139682000D02*
X-182580000Y-139682000D01*
X-181880000Y-140332000D02*
X-181880000Y-143132000D01*
X-182580000Y-143782000D02*
X-183180000Y-143782000D01*
X-183180000Y-143782000D02*
G75*
G02*
X-183880000Y-143082000I0J700000D01*
G01*
X-181880000Y-143082000D02*
G75*
G02*
X-182580000Y-143782000I-700000J0D01*
G01*
X-182580000Y-139682000D02*
G75*
G02*
X-181880000Y-140382000I0J-700000D01*
G01*
X-183880000Y-140382000D02*
G75*
G02*
X-183180000Y-139682000I700000J0D01*
G01*
%TO.C,JP5*%
X-187459400Y-154665400D02*
X-187459400Y-155265400D01*
X-190909400Y-153965400D02*
X-188109400Y-153965400D01*
X-191559400Y-155265400D02*
X-191559400Y-154665400D01*
X-188109400Y-155965400D02*
X-190909400Y-155965400D01*
X-190859400Y-155965400D02*
G75*
G02*
X-191559400Y-155265400I0J700000D01*
G01*
X-191559400Y-154665400D02*
G75*
G02*
X-190859400Y-153965400I700000J0D01*
G01*
X-188159400Y-153965400D02*
G75*
G02*
X-187459400Y-154665400I0J-700000D01*
G01*
X-187459400Y-155265400D02*
G75*
G02*
X-188159400Y-155965400I-700000J0D01*
G01*
%TO.C,R1*%
X-209883000Y-87445000D02*
X-209883000Y-84005000D01*
X-209883000Y-84005000D02*
X-219123000Y-84005000D01*
X-219123000Y-84005000D02*
X-219123000Y-87445000D01*
X-219123000Y-87445000D02*
X-209883000Y-87445000D01*
X-207923000Y-85725000D02*
X-209883000Y-85725000D01*
X-221083000Y-85725000D02*
X-219123000Y-85725000D01*
%TO.C,R2*%
X-213817200Y-180697000D02*
X-213817200Y-178737000D01*
X-213817200Y-167537000D02*
X-213817200Y-169497000D01*
X-212097200Y-178737000D02*
X-212097200Y-169497000D01*
X-215537200Y-178737000D02*
X-212097200Y-178737000D01*
X-215537200Y-169497000D02*
X-215537200Y-178737000D01*
X-212097200Y-169497000D02*
X-215537200Y-169497000D01*
%TO.C,R3*%
X-193929000Y-138914000D02*
X-193929000Y-136954000D01*
X-193929000Y-125754000D02*
X-193929000Y-127714000D01*
X-192209000Y-136954000D02*
X-192209000Y-127714000D01*
X-195649000Y-136954000D02*
X-192209000Y-136954000D01*
X-195649000Y-127714000D02*
X-195649000Y-136954000D01*
X-192209000Y-127714000D02*
X-195649000Y-127714000D01*
%TO.C,R4*%
X-206250800Y-199255800D02*
X-206250800Y-195815800D01*
X-206250800Y-195815800D02*
X-215490800Y-195815800D01*
X-215490800Y-195815800D02*
X-215490800Y-199255800D01*
X-215490800Y-199255800D02*
X-206250800Y-199255800D01*
X-204290800Y-197535800D02*
X-206250800Y-197535800D01*
X-217450800Y-197535800D02*
X-215490800Y-197535800D01*
%TO.C,RN1*%
X-213199000Y-125219000D02*
X-215299000Y-125219000D01*
X-213199000Y-130559000D02*
X-215299000Y-130559000D01*
%TO.C,RN4*%
X-217668820Y-114667840D02*
X-215568820Y-114667840D01*
X-217668820Y-120007840D02*
X-215568820Y-120007840D01*
%TO.C,TP1*%
X-177218000Y-133678000D02*
X-174318000Y-133678000D01*
X-174318000Y-133678000D02*
X-174318000Y-136578000D01*
X-174318000Y-136578000D02*
X-177218000Y-136578000D01*
X-177218000Y-136578000D02*
X-177218000Y-133678000D01*
%TO.C,U11*%
X-239412000Y-108906000D02*
X-241062000Y-108906000D01*
X-239412000Y-116646000D02*
X-239412000Y-108906000D01*
X-244712000Y-116646000D02*
X-239412000Y-116646000D01*
X-244712000Y-108906000D02*
X-244712000Y-116646000D01*
X-243062000Y-108906000D02*
X-244712000Y-108906000D01*
X-241062000Y-108906000D02*
G75*
G02*
X-243062000Y-108906000I-1000000J0D01*
G01*
%TO.C,U12*%
X-243062000Y-120082000D02*
X-244712000Y-120082000D01*
X-244712000Y-120082000D02*
X-244712000Y-127822000D01*
X-244712000Y-127822000D02*
X-239412000Y-127822000D01*
X-239412000Y-127822000D02*
X-239412000Y-120082000D01*
X-239412000Y-120082000D02*
X-241062000Y-120082000D01*
X-241062000Y-120082000D02*
G75*
G02*
X-243062000Y-120082000I-1000000J0D01*
G01*
%TO.C,U13*%
X-239412000Y-130496000D02*
X-241062000Y-130496000D01*
X-239412000Y-138236000D02*
X-239412000Y-130496000D01*
X-244712000Y-138236000D02*
X-239412000Y-138236000D01*
X-244712000Y-130496000D02*
X-244712000Y-138236000D01*
X-243062000Y-130496000D02*
X-244712000Y-130496000D01*
X-241062000Y-130496000D02*
G75*
G02*
X-243062000Y-130496000I-1000000J0D01*
G01*
%TO.C,U14*%
X-243189000Y-142053000D02*
X-244839000Y-142053000D01*
X-244839000Y-142053000D02*
X-244839000Y-149793000D01*
X-244839000Y-149793000D02*
X-239539000Y-149793000D01*
X-239539000Y-149793000D02*
X-239539000Y-142053000D01*
X-239539000Y-142053000D02*
X-241189000Y-142053000D01*
X-241189000Y-142053000D02*
G75*
G02*
X-243189000Y-142053000I-1000000J0D01*
G01*
%TO.C,U15*%
X-239602500Y-153610000D02*
X-241252500Y-153610000D01*
X-239602500Y-161350000D02*
X-239602500Y-153610000D01*
X-244902500Y-161350000D02*
X-239602500Y-161350000D01*
X-244902500Y-153610000D02*
X-244902500Y-161350000D01*
X-243252500Y-153610000D02*
X-244902500Y-153610000D01*
X-241252500Y-153610000D02*
G75*
G02*
X-243252500Y-153610000I-1000000J0D01*
G01*
%TO.C,U16*%
X-243252500Y-163960500D02*
X-244902500Y-163960500D01*
X-244902500Y-163960500D02*
X-244902500Y-171700500D01*
X-244902500Y-171700500D02*
X-239602500Y-171700500D01*
X-239602500Y-171700500D02*
X-239602500Y-163960500D01*
X-239602500Y-163960500D02*
X-241252500Y-163960500D01*
X-241252500Y-163960500D02*
G75*
G02*
X-243252500Y-163960500I-1000000J0D01*
G01*
%TO.C,U17*%
X-243417600Y-175403200D02*
X-245067600Y-175403200D01*
X-245067600Y-175403200D02*
X-245067600Y-183143200D01*
X-245067600Y-183143200D02*
X-239767600Y-183143200D01*
X-239767600Y-183143200D02*
X-239767600Y-175403200D01*
X-239767600Y-175403200D02*
X-241417600Y-175403200D01*
X-241417600Y-175403200D02*
G75*
G02*
X-243417600Y-175403200I-1000000J0D01*
G01*
%TO.C,U20*%
X-239767600Y-187036400D02*
X-241417600Y-187036400D01*
X-239767600Y-194776400D02*
X-239767600Y-187036400D01*
X-245067600Y-194776400D02*
X-239767600Y-194776400D01*
X-245067600Y-187036400D02*
X-245067600Y-194776400D01*
X-243417600Y-187036400D02*
X-245067600Y-187036400D01*
X-241417600Y-187036400D02*
G75*
G02*
X-243417600Y-187036400I-1000000J0D01*
G01*
%TO.C,U21*%
X-248453600Y-199075800D02*
X-248453600Y-197425800D01*
X-248453600Y-197425800D02*
X-256193600Y-197425800D01*
X-256193600Y-197425800D02*
X-256193600Y-202725800D01*
X-256193600Y-202725800D02*
X-248453600Y-202725800D01*
X-248453600Y-202725800D02*
X-248453600Y-201075800D01*
X-248453600Y-201075800D02*
G75*
G02*
X-248453600Y-199075800I0J1000000D01*
G01*
%TO.C,U22*%
X-204128880Y-112649960D02*
X-205778880Y-112649960D01*
X-205778880Y-112649960D02*
X-205778880Y-148329960D01*
X-205778880Y-148329960D02*
X-200478880Y-148329960D01*
X-200478880Y-148329960D02*
X-200478880Y-112649960D01*
X-200478880Y-112649960D02*
X-202128880Y-112649960D01*
X-202128880Y-112649960D02*
G75*
G02*
X-204128880Y-112649960I-1000000J0D01*
G01*
%TO.C,C1*%
D11*
X-189931857Y-122995666D02*
X-189884238Y-123043285D01*
X-189836619Y-123186142D01*
X-189836619Y-123281380D01*
X-189884238Y-123424238D01*
X-189979476Y-123519476D01*
X-190074714Y-123567095D01*
X-190265190Y-123614714D01*
X-190408047Y-123614714D01*
X-190598523Y-123567095D01*
X-190693761Y-123519476D01*
X-190789000Y-123424238D01*
X-190836619Y-123281380D01*
X-190836619Y-123186142D01*
X-190789000Y-123043285D01*
X-190741380Y-122995666D01*
X-189836619Y-122043285D02*
X-189836619Y-122614714D01*
X-189836619Y-122329000D02*
X-190836619Y-122329000D01*
X-190693761Y-122424238D01*
X-190598523Y-122519476D01*
X-190550904Y-122614714D01*
%TO.C,J1*%
X-219789333Y-163834380D02*
X-219789333Y-164548666D01*
X-219836952Y-164691523D01*
X-219932190Y-164786761D01*
X-220075047Y-164834380D01*
X-220170285Y-164834380D01*
X-218789333Y-164834380D02*
X-219360761Y-164834380D01*
X-219075047Y-164834380D02*
X-219075047Y-163834380D01*
X-219170285Y-163977238D01*
X-219265523Y-164072476D01*
X-219360761Y-164120095D01*
%TO.C,J2*%
X-255150419Y-210442133D02*
X-254436133Y-210442133D01*
X-254293276Y-210489752D01*
X-254198038Y-210584990D01*
X-254150419Y-210727847D01*
X-254150419Y-210823085D01*
X-255055180Y-210013561D02*
X-255102800Y-209965942D01*
X-255150419Y-209870704D01*
X-255150419Y-209632609D01*
X-255102800Y-209537371D01*
X-255055180Y-209489752D01*
X-254959942Y-209442133D01*
X-254864704Y-209442133D01*
X-254721847Y-209489752D01*
X-254150419Y-210061180D01*
X-254150419Y-209442133D01*
%TO.C,J3*%
X-260078019Y-102542933D02*
X-259363733Y-102542933D01*
X-259220876Y-102590552D01*
X-259125638Y-102685790D01*
X-259078019Y-102828647D01*
X-259078019Y-102923885D01*
X-260078019Y-102161980D02*
X-260078019Y-101542933D01*
X-259697066Y-101876266D01*
X-259697066Y-101733409D01*
X-259649447Y-101638171D01*
X-259601828Y-101590552D01*
X-259506590Y-101542933D01*
X-259268495Y-101542933D01*
X-259173257Y-101590552D01*
X-259125638Y-101638171D01*
X-259078019Y-101733409D01*
X-259078019Y-102019123D01*
X-259125638Y-102114361D01*
X-259173257Y-102161980D01*
%TO.C,JP1*%
X-191841333Y-161754980D02*
X-191841333Y-162469266D01*
X-191888952Y-162612123D01*
X-191984190Y-162707361D01*
X-192127047Y-162754980D01*
X-192222285Y-162754980D01*
X-191365142Y-162754980D02*
X-191365142Y-161754980D01*
X-190984190Y-161754980D01*
X-190888952Y-161802600D01*
X-190841333Y-161850219D01*
X-190793714Y-161945457D01*
X-190793714Y-162088314D01*
X-190841333Y-162183552D01*
X-190888952Y-162231171D01*
X-190984190Y-162278790D01*
X-191365142Y-162278790D01*
X-189841333Y-162754980D02*
X-190412761Y-162754980D01*
X-190127047Y-162754980D02*
X-190127047Y-161754980D01*
X-190222285Y-161897838D01*
X-190317523Y-161993076D01*
X-190412761Y-162040695D01*
%TO.C,JP2*%
X-180147619Y-142565333D02*
X-179433333Y-142565333D01*
X-179290476Y-142612952D01*
X-179195238Y-142708190D01*
X-179147619Y-142851047D01*
X-179147619Y-142946285D01*
X-179147619Y-142089142D02*
X-180147619Y-142089142D01*
X-180147619Y-141708190D01*
X-180100000Y-141612952D01*
X-180052380Y-141565333D01*
X-179957142Y-141517714D01*
X-179814285Y-141517714D01*
X-179719047Y-141565333D01*
X-179671428Y-141612952D01*
X-179623809Y-141708190D01*
X-179623809Y-142089142D01*
X-180052380Y-141136761D02*
X-180100000Y-141089142D01*
X-180147619Y-140993904D01*
X-180147619Y-140755809D01*
X-180100000Y-140660571D01*
X-180052380Y-140612952D01*
X-179957142Y-140565333D01*
X-179861904Y-140565333D01*
X-179719047Y-140612952D01*
X-179147619Y-141184380D01*
X-179147619Y-140565333D01*
X-177347619Y-144046285D02*
X-177347619Y-144617714D01*
X-177347619Y-144332000D02*
X-178347619Y-144332000D01*
X-178204761Y-144427238D01*
X-178109523Y-144522476D01*
X-178061904Y-144617714D01*
X-178347619Y-139465333D02*
X-178347619Y-138846285D01*
X-177966666Y-139179619D01*
X-177966666Y-139036761D01*
X-177919047Y-138941523D01*
X-177871428Y-138893904D01*
X-177776190Y-138846285D01*
X-177538095Y-138846285D01*
X-177442857Y-138893904D01*
X-177395238Y-138941523D01*
X-177347619Y-139036761D01*
X-177347619Y-139322476D01*
X-177395238Y-139417714D01*
X-177442857Y-139465333D01*
%TO.C,JP3*%
X-185691619Y-145105333D02*
X-184977333Y-145105333D01*
X-184834476Y-145152952D01*
X-184739238Y-145248190D01*
X-184691619Y-145391047D01*
X-184691619Y-145486285D01*
X-184691619Y-144629142D02*
X-185691619Y-144629142D01*
X-185691619Y-144248190D01*
X-185644000Y-144152952D01*
X-185596380Y-144105333D01*
X-185501142Y-144057714D01*
X-185358285Y-144057714D01*
X-185263047Y-144105333D01*
X-185215428Y-144152952D01*
X-185167809Y-144248190D01*
X-185167809Y-144629142D01*
X-185691619Y-143724380D02*
X-185691619Y-143105333D01*
X-185310666Y-143438666D01*
X-185310666Y-143295809D01*
X-185263047Y-143200571D01*
X-185215428Y-143152952D01*
X-185120190Y-143105333D01*
X-184882095Y-143105333D01*
X-184786857Y-143152952D01*
X-184739238Y-143200571D01*
X-184691619Y-143295809D01*
X-184691619Y-143581523D01*
X-184739238Y-143676761D01*
X-184786857Y-143724380D01*
X-187491619Y-147205333D02*
X-187491619Y-146586285D01*
X-187110666Y-146919619D01*
X-187110666Y-146776761D01*
X-187063047Y-146681523D01*
X-187015428Y-146633904D01*
X-186920190Y-146586285D01*
X-186682095Y-146586285D01*
X-186586857Y-146633904D01*
X-186539238Y-146681523D01*
X-186491619Y-146776761D01*
X-186491619Y-147062476D01*
X-186539238Y-147157714D01*
X-186586857Y-147205333D01*
X-186491619Y-141386285D02*
X-186491619Y-141957714D01*
X-186491619Y-141672000D02*
X-187491619Y-141672000D01*
X-187348761Y-141767238D01*
X-187253523Y-141862476D01*
X-187205904Y-141957714D01*
%TO.C,JP4*%
X-185227619Y-142565333D02*
X-184513333Y-142565333D01*
X-184370476Y-142612952D01*
X-184275238Y-142708190D01*
X-184227619Y-142851047D01*
X-184227619Y-142946285D01*
X-184227619Y-142089142D02*
X-185227619Y-142089142D01*
X-185227619Y-141708190D01*
X-185180000Y-141612952D01*
X-185132380Y-141565333D01*
X-185037142Y-141517714D01*
X-184894285Y-141517714D01*
X-184799047Y-141565333D01*
X-184751428Y-141612952D01*
X-184703809Y-141708190D01*
X-184703809Y-142089142D01*
X-184894285Y-140660571D02*
X-184227619Y-140660571D01*
X-185275238Y-140898666D02*
X-184560952Y-141136761D01*
X-184560952Y-140517714D01*
X-182427619Y-144046285D02*
X-182427619Y-144617714D01*
X-182427619Y-144332000D02*
X-183427619Y-144332000D01*
X-183284761Y-144427238D01*
X-183189523Y-144522476D01*
X-183141904Y-144617714D01*
X-183427619Y-139465333D02*
X-183427619Y-138846285D01*
X-183046666Y-139179619D01*
X-183046666Y-139036761D01*
X-182999047Y-138941523D01*
X-182951428Y-138893904D01*
X-182856190Y-138846285D01*
X-182618095Y-138846285D01*
X-182522857Y-138893904D01*
X-182475238Y-138941523D01*
X-182427619Y-139036761D01*
X-182427619Y-139322476D01*
X-182475238Y-139417714D01*
X-182522857Y-139465333D01*
%TO.C,JP5*%
X-190342733Y-156217780D02*
X-190342733Y-156932066D01*
X-190390352Y-157074923D01*
X-190485590Y-157170161D01*
X-190628447Y-157217780D01*
X-190723685Y-157217780D01*
X-189866542Y-157217780D02*
X-189866542Y-156217780D01*
X-189485590Y-156217780D01*
X-189390352Y-156265400D01*
X-189342733Y-156313019D01*
X-189295114Y-156408257D01*
X-189295114Y-156551114D01*
X-189342733Y-156646352D01*
X-189390352Y-156693971D01*
X-189485590Y-156741590D01*
X-189866542Y-156741590D01*
X-188390352Y-156217780D02*
X-188866542Y-156217780D01*
X-188914161Y-156693971D01*
X-188866542Y-156646352D01*
X-188771304Y-156598733D01*
X-188533209Y-156598733D01*
X-188437971Y-156646352D01*
X-188390352Y-156693971D01*
X-188342733Y-156789209D01*
X-188342733Y-157027304D01*
X-188390352Y-157122542D01*
X-188437971Y-157170161D01*
X-188533209Y-157217780D01*
X-188771304Y-157217780D01*
X-188866542Y-157170161D01*
X-188914161Y-157122542D01*
X-192442733Y-154417780D02*
X-191823685Y-154417780D01*
X-192157019Y-154798733D01*
X-192014161Y-154798733D01*
X-191918923Y-154846352D01*
X-191871304Y-154893971D01*
X-191823685Y-154989209D01*
X-191823685Y-155227304D01*
X-191871304Y-155322542D01*
X-191918923Y-155370161D01*
X-192014161Y-155417780D01*
X-192299876Y-155417780D01*
X-192395114Y-155370161D01*
X-192442733Y-155322542D01*
X-186623685Y-155417780D02*
X-187195114Y-155417780D01*
X-186909400Y-155417780D02*
X-186909400Y-154417780D01*
X-187004638Y-154560638D01*
X-187099876Y-154655876D01*
X-187195114Y-154703495D01*
%TO.C,R1*%
X-214669666Y-88897380D02*
X-215003000Y-88421190D01*
X-215241095Y-88897380D02*
X-215241095Y-87897380D01*
X-214860142Y-87897380D01*
X-214764904Y-87945000D01*
X-214717285Y-87992619D01*
X-214669666Y-88087857D01*
X-214669666Y-88230714D01*
X-214717285Y-88325952D01*
X-214764904Y-88373571D01*
X-214860142Y-88421190D01*
X-215241095Y-88421190D01*
X-213717285Y-88897380D02*
X-214288714Y-88897380D01*
X-214003000Y-88897380D02*
X-214003000Y-87897380D01*
X-214098238Y-88040238D01*
X-214193476Y-88135476D01*
X-214288714Y-88183095D01*
%TO.C,R2*%
X-210644819Y-174283666D02*
X-211121009Y-174617000D01*
X-210644819Y-174855095D02*
X-211644819Y-174855095D01*
X-211644819Y-174474142D01*
X-211597200Y-174378904D01*
X-211549580Y-174331285D01*
X-211454342Y-174283666D01*
X-211311485Y-174283666D01*
X-211216247Y-174331285D01*
X-211168628Y-174378904D01*
X-211121009Y-174474142D01*
X-211121009Y-174855095D01*
X-211549580Y-173902714D02*
X-211597200Y-173855095D01*
X-211644819Y-173759857D01*
X-211644819Y-173521761D01*
X-211597200Y-173426523D01*
X-211549580Y-173378904D01*
X-211454342Y-173331285D01*
X-211359104Y-173331285D01*
X-211216247Y-173378904D01*
X-210644819Y-173950333D01*
X-210644819Y-173331285D01*
%TO.C,R3*%
X-190756619Y-132500666D02*
X-191232809Y-132834000D01*
X-190756619Y-133072095D02*
X-191756619Y-133072095D01*
X-191756619Y-132691142D01*
X-191709000Y-132595904D01*
X-191661380Y-132548285D01*
X-191566142Y-132500666D01*
X-191423285Y-132500666D01*
X-191328047Y-132548285D01*
X-191280428Y-132595904D01*
X-191232809Y-132691142D01*
X-191232809Y-133072095D01*
X-191756619Y-132167333D02*
X-191756619Y-131548285D01*
X-191375666Y-131881619D01*
X-191375666Y-131738761D01*
X-191328047Y-131643523D01*
X-191280428Y-131595904D01*
X-191185190Y-131548285D01*
X-190947095Y-131548285D01*
X-190851857Y-131595904D01*
X-190804238Y-131643523D01*
X-190756619Y-131738761D01*
X-190756619Y-132024476D01*
X-190804238Y-132119714D01*
X-190851857Y-132167333D01*
%TO.C,R4*%
X-211037466Y-200708180D02*
X-211370800Y-200231990D01*
X-211608895Y-200708180D02*
X-211608895Y-199708180D01*
X-211227942Y-199708180D01*
X-211132704Y-199755800D01*
X-211085085Y-199803419D01*
X-211037466Y-199898657D01*
X-211037466Y-200041514D01*
X-211085085Y-200136752D01*
X-211132704Y-200184371D01*
X-211227942Y-200231990D01*
X-211608895Y-200231990D01*
X-210180323Y-200041514D02*
X-210180323Y-200708180D01*
X-210418419Y-199660561D02*
X-210656514Y-200374847D01*
X-210037466Y-200374847D01*
%TO.C,RN1*%
X-214939476Y-124841380D02*
X-215272809Y-124365190D01*
X-215510904Y-124841380D02*
X-215510904Y-123841380D01*
X-215129952Y-123841380D01*
X-215034714Y-123889000D01*
X-214987095Y-123936619D01*
X-214939476Y-124031857D01*
X-214939476Y-124174714D01*
X-214987095Y-124269952D01*
X-215034714Y-124317571D01*
X-215129952Y-124365190D01*
X-215510904Y-124365190D01*
X-214510904Y-124841380D02*
X-214510904Y-123841380D01*
X-213939476Y-124841380D01*
X-213939476Y-123841380D01*
X-212939476Y-124841380D02*
X-213510904Y-124841380D01*
X-213225190Y-124841380D02*
X-213225190Y-123841380D01*
X-213320428Y-123984238D01*
X-213415666Y-124079476D01*
X-213510904Y-124127095D01*
%TO.C,RN4*%
X-217309296Y-121290220D02*
X-217642629Y-120814030D01*
X-217880724Y-121290220D02*
X-217880724Y-120290220D01*
X-217499772Y-120290220D01*
X-217404534Y-120337840D01*
X-217356915Y-120385459D01*
X-217309296Y-120480697D01*
X-217309296Y-120623554D01*
X-217356915Y-120718792D01*
X-217404534Y-120766411D01*
X-217499772Y-120814030D01*
X-217880724Y-120814030D01*
X-216880724Y-121290220D02*
X-216880724Y-120290220D01*
X-216309296Y-121290220D01*
X-216309296Y-120290220D01*
X-215404534Y-120623554D02*
X-215404534Y-121290220D01*
X-215642629Y-120242601D02*
X-215880724Y-120956887D01*
X-215261677Y-120956887D01*
%TO.C,TP1*%
X-177029904Y-132432380D02*
X-176458476Y-132432380D01*
X-176744190Y-133432380D02*
X-176744190Y-132432380D01*
X-176125142Y-133432380D02*
X-176125142Y-132432380D01*
X-175744190Y-132432380D01*
X-175648952Y-132480000D01*
X-175601333Y-132527619D01*
X-175553714Y-132622857D01*
X-175553714Y-132765714D01*
X-175601333Y-132860952D01*
X-175648952Y-132908571D01*
X-175744190Y-132956190D01*
X-176125142Y-132956190D01*
X-174601333Y-133432380D02*
X-175172761Y-133432380D01*
X-174887047Y-133432380D02*
X-174887047Y-132432380D01*
X-174982285Y-132575238D01*
X-175077523Y-132670476D01*
X-175172761Y-132718095D01*
%TO.C,U11*%
X-243300095Y-107358380D02*
X-243300095Y-108167904D01*
X-243252476Y-108263142D01*
X-243204857Y-108310761D01*
X-243109619Y-108358380D01*
X-242919142Y-108358380D01*
X-242823904Y-108310761D01*
X-242776285Y-108263142D01*
X-242728666Y-108167904D01*
X-242728666Y-107358380D01*
X-241728666Y-108358380D02*
X-242300095Y-108358380D01*
X-242014380Y-108358380D02*
X-242014380Y-107358380D01*
X-242109619Y-107501238D01*
X-242204857Y-107596476D01*
X-242300095Y-107644095D01*
X-240776285Y-108358380D02*
X-241347714Y-108358380D01*
X-241062000Y-108358380D02*
X-241062000Y-107358380D01*
X-241157238Y-107501238D01*
X-241252476Y-107596476D01*
X-241347714Y-107644095D01*
%TO.C,U12*%
X-243300095Y-118534380D02*
X-243300095Y-119343904D01*
X-243252476Y-119439142D01*
X-243204857Y-119486761D01*
X-243109619Y-119534380D01*
X-242919142Y-119534380D01*
X-242823904Y-119486761D01*
X-242776285Y-119439142D01*
X-242728666Y-119343904D01*
X-242728666Y-118534380D01*
X-241728666Y-119534380D02*
X-242300095Y-119534380D01*
X-242014380Y-119534380D02*
X-242014380Y-118534380D01*
X-242109619Y-118677238D01*
X-242204857Y-118772476D01*
X-242300095Y-118820095D01*
X-241347714Y-118629619D02*
X-241300095Y-118582000D01*
X-241204857Y-118534380D01*
X-240966761Y-118534380D01*
X-240871523Y-118582000D01*
X-240823904Y-118629619D01*
X-240776285Y-118724857D01*
X-240776285Y-118820095D01*
X-240823904Y-118962952D01*
X-241395333Y-119534380D01*
X-240776285Y-119534380D01*
%TO.C,U13*%
X-243300095Y-128948380D02*
X-243300095Y-129757904D01*
X-243252476Y-129853142D01*
X-243204857Y-129900761D01*
X-243109619Y-129948380D01*
X-242919142Y-129948380D01*
X-242823904Y-129900761D01*
X-242776285Y-129853142D01*
X-242728666Y-129757904D01*
X-242728666Y-128948380D01*
X-241728666Y-129948380D02*
X-242300095Y-129948380D01*
X-242014380Y-129948380D02*
X-242014380Y-128948380D01*
X-242109619Y-129091238D01*
X-242204857Y-129186476D01*
X-242300095Y-129234095D01*
X-241395333Y-128948380D02*
X-240776285Y-128948380D01*
X-241109619Y-129329333D01*
X-240966761Y-129329333D01*
X-240871523Y-129376952D01*
X-240823904Y-129424571D01*
X-240776285Y-129519809D01*
X-240776285Y-129757904D01*
X-240823904Y-129853142D01*
X-240871523Y-129900761D01*
X-240966761Y-129948380D01*
X-241252476Y-129948380D01*
X-241347714Y-129900761D01*
X-241395333Y-129853142D01*
%TO.C,U14*%
X-243427095Y-140505380D02*
X-243427095Y-141314904D01*
X-243379476Y-141410142D01*
X-243331857Y-141457761D01*
X-243236619Y-141505380D01*
X-243046142Y-141505380D01*
X-242950904Y-141457761D01*
X-242903285Y-141410142D01*
X-242855666Y-141314904D01*
X-242855666Y-140505380D01*
X-241855666Y-141505380D02*
X-242427095Y-141505380D01*
X-242141380Y-141505380D02*
X-242141380Y-140505380D01*
X-242236619Y-140648238D01*
X-242331857Y-140743476D01*
X-242427095Y-140791095D01*
X-240998523Y-140838714D02*
X-240998523Y-141505380D01*
X-241236619Y-140457761D02*
X-241474714Y-141172047D01*
X-240855666Y-141172047D01*
%TO.C,U15*%
X-243490595Y-152062380D02*
X-243490595Y-152871904D01*
X-243442976Y-152967142D01*
X-243395357Y-153014761D01*
X-243300119Y-153062380D01*
X-243109642Y-153062380D01*
X-243014404Y-153014761D01*
X-242966785Y-152967142D01*
X-242919166Y-152871904D01*
X-242919166Y-152062380D01*
X-241919166Y-153062380D02*
X-242490595Y-153062380D01*
X-242204880Y-153062380D02*
X-242204880Y-152062380D01*
X-242300119Y-152205238D01*
X-242395357Y-152300476D01*
X-242490595Y-152348095D01*
X-241014404Y-152062380D02*
X-241490595Y-152062380D01*
X-241538214Y-152538571D01*
X-241490595Y-152490952D01*
X-241395357Y-152443333D01*
X-241157261Y-152443333D01*
X-241062023Y-152490952D01*
X-241014404Y-152538571D01*
X-240966785Y-152633809D01*
X-240966785Y-152871904D01*
X-241014404Y-152967142D01*
X-241062023Y-153014761D01*
X-241157261Y-153062380D01*
X-241395357Y-153062380D01*
X-241490595Y-153014761D01*
X-241538214Y-152967142D01*
%TO.C,U16*%
X-243490595Y-162412880D02*
X-243490595Y-163222404D01*
X-243442976Y-163317642D01*
X-243395357Y-163365261D01*
X-243300119Y-163412880D01*
X-243109642Y-163412880D01*
X-243014404Y-163365261D01*
X-242966785Y-163317642D01*
X-242919166Y-163222404D01*
X-242919166Y-162412880D01*
X-241919166Y-163412880D02*
X-242490595Y-163412880D01*
X-242204880Y-163412880D02*
X-242204880Y-162412880D01*
X-242300119Y-162555738D01*
X-242395357Y-162650976D01*
X-242490595Y-162698595D01*
X-241062023Y-162412880D02*
X-241252500Y-162412880D01*
X-241347738Y-162460500D01*
X-241395357Y-162508119D01*
X-241490595Y-162650976D01*
X-241538214Y-162841452D01*
X-241538214Y-163222404D01*
X-241490595Y-163317642D01*
X-241442976Y-163365261D01*
X-241347738Y-163412880D01*
X-241157261Y-163412880D01*
X-241062023Y-163365261D01*
X-241014404Y-163317642D01*
X-240966785Y-163222404D01*
X-240966785Y-162984309D01*
X-241014404Y-162889071D01*
X-241062023Y-162841452D01*
X-241157261Y-162793833D01*
X-241347738Y-162793833D01*
X-241442976Y-162841452D01*
X-241490595Y-162889071D01*
X-241538214Y-162984309D01*
%TO.C,U17*%
X-243655695Y-173855580D02*
X-243655695Y-174665104D01*
X-243608076Y-174760342D01*
X-243560457Y-174807961D01*
X-243465219Y-174855580D01*
X-243274742Y-174855580D01*
X-243179504Y-174807961D01*
X-243131885Y-174760342D01*
X-243084266Y-174665104D01*
X-243084266Y-173855580D01*
X-242084266Y-174855580D02*
X-242655695Y-174855580D01*
X-242369980Y-174855580D02*
X-242369980Y-173855580D01*
X-242465219Y-173998438D01*
X-242560457Y-174093676D01*
X-242655695Y-174141295D01*
X-241750933Y-173855580D02*
X-241084266Y-173855580D01*
X-241512838Y-174855580D01*
%TO.C,U20*%
X-243655695Y-185488780D02*
X-243655695Y-186298304D01*
X-243608076Y-186393542D01*
X-243560457Y-186441161D01*
X-243465219Y-186488780D01*
X-243274742Y-186488780D01*
X-243179504Y-186441161D01*
X-243131885Y-186393542D01*
X-243084266Y-186298304D01*
X-243084266Y-185488780D01*
X-242655695Y-185584019D02*
X-242608076Y-185536400D01*
X-242512838Y-185488780D01*
X-242274742Y-185488780D01*
X-242179504Y-185536400D01*
X-242131885Y-185584019D01*
X-242084266Y-185679257D01*
X-242084266Y-185774495D01*
X-242131885Y-185917352D01*
X-242703314Y-186488780D01*
X-242084266Y-186488780D01*
X-241465219Y-185488780D02*
X-241369980Y-185488780D01*
X-241274742Y-185536400D01*
X-241227123Y-185584019D01*
X-241179504Y-185679257D01*
X-241131885Y-185869733D01*
X-241131885Y-186107828D01*
X-241179504Y-186298304D01*
X-241227123Y-186393542D01*
X-241274742Y-186441161D01*
X-241369980Y-186488780D01*
X-241465219Y-186488780D01*
X-241560457Y-186441161D01*
X-241608076Y-186393542D01*
X-241655695Y-186298304D01*
X-241703314Y-186107828D01*
X-241703314Y-185869733D01*
X-241655695Y-185679257D01*
X-241608076Y-185584019D01*
X-241560457Y-185536400D01*
X-241465219Y-185488780D01*
%TO.C,U21*%
X-248001219Y-201313895D02*
X-247191695Y-201313895D01*
X-247096457Y-201266276D01*
X-247048838Y-201218657D01*
X-247001219Y-201123419D01*
X-247001219Y-200932942D01*
X-247048838Y-200837704D01*
X-247096457Y-200790085D01*
X-247191695Y-200742466D01*
X-248001219Y-200742466D01*
X-247905980Y-200313895D02*
X-247953600Y-200266276D01*
X-248001219Y-200171038D01*
X-248001219Y-199932942D01*
X-247953600Y-199837704D01*
X-247905980Y-199790085D01*
X-247810742Y-199742466D01*
X-247715504Y-199742466D01*
X-247572647Y-199790085D01*
X-247001219Y-200361514D01*
X-247001219Y-199742466D01*
X-247001219Y-198790085D02*
X-247001219Y-199361514D01*
X-247001219Y-199075800D02*
X-248001219Y-199075800D01*
X-247858361Y-199171038D01*
X-247763123Y-199266276D01*
X-247715504Y-199361514D01*
%TO.C,U22*%
X-204366975Y-111102340D02*
X-204366975Y-111911864D01*
X-204319356Y-112007102D01*
X-204271737Y-112054721D01*
X-204176499Y-112102340D01*
X-203986022Y-112102340D01*
X-203890784Y-112054721D01*
X-203843165Y-112007102D01*
X-203795546Y-111911864D01*
X-203795546Y-111102340D01*
X-203366975Y-111197579D02*
X-203319356Y-111149960D01*
X-203224118Y-111102340D01*
X-202986022Y-111102340D01*
X-202890784Y-111149960D01*
X-202843165Y-111197579D01*
X-202795546Y-111292817D01*
X-202795546Y-111388055D01*
X-202843165Y-111530912D01*
X-203414594Y-112102340D01*
X-202795546Y-112102340D01*
X-202414594Y-111197579D02*
X-202366975Y-111149960D01*
X-202271737Y-111102340D01*
X-202033641Y-111102340D01*
X-201938403Y-111149960D01*
X-201890784Y-111197579D01*
X-201843165Y-111292817D01*
X-201843165Y-111388055D01*
X-201890784Y-111530912D01*
X-202462213Y-112102340D01*
X-201843165Y-112102340D01*
%TD*%
M02*
