%TF.GenerationSoftware,KiCad,Pcbnew,(5.1.9-0-10_14)*%
%TF.CreationDate,2021-02-14T15:56:36+00:00*%
%TF.ProjectId,solar_mux_1,736f6c61-725f-46d7-9578-5f312e6b6963,rev?*%
%TF.SameCoordinates,Original*%
%TF.FileFunction,Copper,L2,Bot*%
%TF.FilePolarity,Positive*%
%FSLAX46Y46*%
G04 Gerber Fmt 4.6, Leading zero omitted, Abs format (unit mm)*
G04 Created by KiCad (PCBNEW (5.1.9-0-10_14)) date 2021-02-14 15:56:36*
%MOMM*%
%LPD*%
G01*
G04 APERTURE LIST*
%TA.AperFunction,ComponentPad*%
%ADD10R,1.600000X1.600000*%
%TD*%
%TA.AperFunction,ComponentPad*%
%ADD11C,1.600000*%
%TD*%
%TA.AperFunction,ComponentPad*%
%ADD12R,1.700000X1.700000*%
%TD*%
%TA.AperFunction,ComponentPad*%
%ADD13O,1.700000X1.700000*%
%TD*%
%TA.AperFunction,ComponentPad*%
%ADD14O,1.600000X1.600000*%
%TD*%
%TA.AperFunction,Conductor*%
%ADD15C,0.250000*%
%TD*%
G04 APERTURE END LIST*
D10*
%TO.P,C1,1*%
%TO.N,+5V*%
X-185039000Y-124079000D03*
D11*
%TO.P,C1,2*%
%TO.N,GND*%
X-185039000Y-121579000D03*
%TD*%
D12*
%TO.P,J1,1*%
%TO.N,+5V*%
X-219456000Y-162052000D03*
D13*
%TO.P,J1,2*%
%TO.N,+3V3*%
X-219456000Y-159512000D03*
%TO.P,J1,3*%
%TO.N,V_D*%
X-219456000Y-156972000D03*
%TO.P,J1,4*%
%TO.N,SDA*%
X-219456000Y-154432000D03*
%TO.P,J1,5*%
%TO.N,SCL*%
X-219456000Y-151892000D03*
%TO.P,J1,6*%
%TO.N,Net-(J1-Pad6)*%
X-219456000Y-149352000D03*
%TO.P,J1,7*%
%TO.N,MISO*%
X-219456000Y-146812000D03*
%TO.P,J1,8*%
%TO.N,MOSI*%
X-219456000Y-144272000D03*
%TO.P,J1,9*%
%TO.N,SCK*%
X-219456000Y-141732000D03*
%TO.P,J1,10*%
%TO.N,GND*%
X-219456000Y-139192000D03*
%TO.P,J1,11*%
%TO.N,I+*%
X-219456000Y-136652000D03*
%TO.P,J1,12*%
%TO.N,V+*%
X-219456000Y-134112000D03*
%TO.P,J1,13*%
%TO.N,V-*%
X-219456000Y-131572000D03*
%TO.P,J1,14*%
%TO.N,I-*%
X-219456000Y-129032000D03*
%TD*%
D12*
%TO.P,J2,1*%
%TO.N,/I4*%
X-252272800Y-211378800D03*
D13*
%TO.P,J2,2*%
%TO.N,/RSense*%
X-252272800Y-208838800D03*
%TO.P,J2,3*%
%TO.N,/V4*%
X-249732800Y-211378800D03*
%TO.P,J2,4*%
%TO.N,Net-(J2-Pad4)*%
X-249732800Y-208838800D03*
%TO.P,J2,5*%
%TO.N,/I5*%
X-247192800Y-211378800D03*
%TO.P,J2,6*%
%TO.N,/VB*%
X-247192800Y-208838800D03*
%TO.P,J2,7*%
%TO.N,/V5*%
X-244652800Y-211378800D03*
%TO.P,J2,8*%
%TO.N,/IB*%
X-244652800Y-208838800D03*
%TO.P,J2,9*%
%TO.N,/I6*%
X-242112800Y-211378800D03*
%TO.P,J2,10*%
%TO.N,Net-(J2-Pad10)*%
X-242112800Y-208838800D03*
%TO.P,J2,11*%
%TO.N,/V6*%
X-239572800Y-211378800D03*
%TO.P,J2,12*%
%TO.N,Net-(J2-Pad12)*%
X-239572800Y-208838800D03*
%TD*%
%TO.P,J3,12*%
%TO.N,/V3*%
X-244500400Y-100939600D03*
%TO.P,J3,11*%
%TO.N,Net-(J3-Pad11)*%
X-244500400Y-103479600D03*
%TO.P,J3,10*%
%TO.N,/I3*%
X-247040400Y-100939600D03*
%TO.P,J3,9*%
%TO.N,Net-(J3-Pad9)*%
X-247040400Y-103479600D03*
%TO.P,J3,8*%
%TO.N,/V2*%
X-249580400Y-100939600D03*
%TO.P,J3,7*%
%TO.N,/IT*%
X-249580400Y-103479600D03*
%TO.P,J3,6*%
%TO.N,/I2*%
X-252120400Y-100939600D03*
%TO.P,J3,5*%
%TO.N,/VT*%
X-252120400Y-103479600D03*
%TO.P,J3,4*%
%TO.N,/V1*%
X-254660400Y-100939600D03*
%TO.P,J3,3*%
%TO.N,GND*%
X-254660400Y-103479600D03*
%TO.P,J3,2*%
%TO.N,/I1*%
X-257200400Y-100939600D03*
D12*
%TO.P,J3,1*%
%TO.N,GND*%
X-257200400Y-103479600D03*
%TD*%
D11*
%TO.P,R1,1*%
%TO.N,Net-(R1-Pad1)*%
X-206883000Y-85725000D03*
D14*
%TO.P,R1,2*%
%TO.N,/TOP*%
X-222123000Y-85725000D03*
%TD*%
%TO.P,R2,2*%
%TO.N,/BOT*%
X-213817200Y-181737000D03*
D11*
%TO.P,R2,1*%
%TO.N,Net-(R2-Pad1)*%
X-213817200Y-166497000D03*
%TD*%
D14*
%TO.P,R3,2*%
%TO.N,Net-(R3-Pad2)*%
X-193929000Y-139954000D03*
D11*
%TO.P,R3,1*%
%TO.N,+5V*%
X-193929000Y-124714000D03*
%TD*%
%TO.P,R4,1*%
%TO.N,Net-(R4-Pad1)*%
X-203250800Y-197535800D03*
D14*
%TO.P,R4,2*%
%TO.N,/V_D_EN*%
X-218490800Y-197535800D03*
%TD*%
%TO.P,U1,6*%
%TO.N,/VT*%
X-265176000Y-110236000D03*
%TO.P,U1,3*%
%TO.N,Net-(U1-Pad3)*%
X-257556000Y-115316000D03*
%TO.P,U1,5*%
%TO.N,Net-(U1-Pad5)*%
X-265176000Y-112776000D03*
%TO.P,U1,2*%
%TO.N,GND*%
X-257556000Y-112776000D03*
%TO.P,U1,4*%
%TO.N,V-*%
X-265176000Y-115316000D03*
D10*
%TO.P,U1,1*%
%TO.N,/TOP*%
X-257556000Y-110236000D03*
%TD*%
%TO.P,U2,1*%
%TO.N,/P1*%
X-257556000Y-121412000D03*
D14*
%TO.P,U2,4*%
%TO.N,V+*%
X-265176000Y-126492000D03*
%TO.P,U2,2*%
%TO.N,GND*%
X-257556000Y-123952000D03*
%TO.P,U2,5*%
%TO.N,Net-(U2-Pad5)*%
X-265176000Y-123952000D03*
%TO.P,U2,3*%
%TO.N,Net-(U2-Pad3)*%
X-257556000Y-126492000D03*
%TO.P,U2,6*%
%TO.N,/V1*%
X-265176000Y-121412000D03*
%TD*%
%TO.P,U3,6*%
%TO.N,/V2*%
X-265303000Y-131699000D03*
%TO.P,U3,3*%
%TO.N,Net-(U3-Pad3)*%
X-257683000Y-136779000D03*
%TO.P,U3,5*%
%TO.N,Net-(U3-Pad5)*%
X-265303000Y-134239000D03*
%TO.P,U3,2*%
%TO.N,GND*%
X-257683000Y-134239000D03*
%TO.P,U3,4*%
%TO.N,V+*%
X-265303000Y-136779000D03*
D10*
%TO.P,U3,1*%
%TO.N,/P2*%
X-257683000Y-131699000D03*
%TD*%
%TO.P,U4,1*%
%TO.N,/P3*%
X-257619500Y-143383000D03*
D14*
%TO.P,U4,4*%
%TO.N,V+*%
X-265239500Y-148463000D03*
%TO.P,U4,2*%
%TO.N,GND*%
X-257619500Y-145923000D03*
%TO.P,U4,5*%
%TO.N,Net-(U4-Pad5)*%
X-265239500Y-145923000D03*
%TO.P,U4,3*%
%TO.N,Net-(U4-Pad3)*%
X-257619500Y-148463000D03*
%TO.P,U4,6*%
%TO.N,/V3*%
X-265239500Y-143383000D03*
%TD*%
%TO.P,U5,6*%
%TO.N,/V4*%
X-265430000Y-155003500D03*
%TO.P,U5,3*%
%TO.N,Net-(U5-Pad3)*%
X-257810000Y-160083500D03*
%TO.P,U5,5*%
%TO.N,Net-(U5-Pad5)*%
X-265430000Y-157543500D03*
%TO.P,U5,2*%
%TO.N,GND*%
X-257810000Y-157543500D03*
%TO.P,U5,4*%
%TO.N,V+*%
X-265430000Y-160083500D03*
D10*
%TO.P,U5,1*%
%TO.N,/P4*%
X-257810000Y-155003500D03*
%TD*%
%TO.P,U6,1*%
%TO.N,/P5*%
X-257810000Y-165227000D03*
D14*
%TO.P,U6,4*%
%TO.N,V+*%
X-265430000Y-170307000D03*
%TO.P,U6,2*%
%TO.N,GND*%
X-257810000Y-167767000D03*
%TO.P,U6,5*%
%TO.N,Net-(U6-Pad5)*%
X-265430000Y-167767000D03*
%TO.P,U6,3*%
%TO.N,Net-(U6-Pad3)*%
X-257810000Y-170307000D03*
%TO.P,U6,6*%
%TO.N,/V5*%
X-265430000Y-165227000D03*
%TD*%
D10*
%TO.P,U7,1*%
%TO.N,/P6*%
X-257810000Y-176657000D03*
D14*
%TO.P,U7,4*%
%TO.N,V+*%
X-265430000Y-181737000D03*
%TO.P,U7,2*%
%TO.N,GND*%
X-257810000Y-179197000D03*
%TO.P,U7,5*%
%TO.N,Net-(U7-Pad5)*%
X-265430000Y-179197000D03*
%TO.P,U7,3*%
%TO.N,Net-(U7-Pad3)*%
X-257810000Y-181737000D03*
%TO.P,U7,6*%
%TO.N,/V6*%
X-265430000Y-176657000D03*
%TD*%
%TO.P,U10,6*%
%TO.N,/VB*%
X-265633200Y-188417200D03*
%TO.P,U10,3*%
%TO.N,Net-(U10-Pad3)*%
X-258013200Y-193497200D03*
%TO.P,U10,5*%
%TO.N,Net-(U10-Pad5)*%
X-265633200Y-190957200D03*
%TO.P,U10,2*%
%TO.N,GND*%
X-258013200Y-190957200D03*
%TO.P,U10,4*%
%TO.N,V-*%
X-265633200Y-193497200D03*
D10*
%TO.P,U10,1*%
%TO.N,/BOT*%
X-258013200Y-188417200D03*
%TD*%
D14*
%TO.P,U11,6*%
%TO.N,/IT*%
X-238252000Y-110236000D03*
%TO.P,U11,3*%
%TO.N,Net-(U11-Pad3)*%
X-245872000Y-115316000D03*
%TO.P,U11,5*%
%TO.N,Net-(U11-Pad5)*%
X-238252000Y-112776000D03*
%TO.P,U11,2*%
%TO.N,GND*%
X-245872000Y-112776000D03*
%TO.P,U11,4*%
%TO.N,I-*%
X-238252000Y-115316000D03*
D10*
%TO.P,U11,1*%
%TO.N,/TOP*%
X-245872000Y-110236000D03*
%TD*%
%TO.P,U12,1*%
%TO.N,/P1*%
X-245872000Y-121412000D03*
D14*
%TO.P,U12,4*%
%TO.N,I+*%
X-238252000Y-126492000D03*
%TO.P,U12,2*%
%TO.N,GND*%
X-245872000Y-123952000D03*
%TO.P,U12,5*%
%TO.N,Net-(U12-Pad5)*%
X-238252000Y-123952000D03*
%TO.P,U12,3*%
%TO.N,Net-(U12-Pad3)*%
X-245872000Y-126492000D03*
%TO.P,U12,6*%
%TO.N,/I1*%
X-238252000Y-121412000D03*
%TD*%
%TO.P,U13,6*%
%TO.N,/I2*%
X-238252000Y-131826000D03*
%TO.P,U13,3*%
%TO.N,Net-(U13-Pad3)*%
X-245872000Y-136906000D03*
%TO.P,U13,5*%
%TO.N,Net-(U13-Pad5)*%
X-238252000Y-134366000D03*
%TO.P,U13,2*%
%TO.N,GND*%
X-245872000Y-134366000D03*
%TO.P,U13,4*%
%TO.N,I+*%
X-238252000Y-136906000D03*
D10*
%TO.P,U13,1*%
%TO.N,/P2*%
X-245872000Y-131826000D03*
%TD*%
%TO.P,U14,1*%
%TO.N,/P3*%
X-245999000Y-143383000D03*
D14*
%TO.P,U14,4*%
%TO.N,I+*%
X-238379000Y-148463000D03*
%TO.P,U14,2*%
%TO.N,GND*%
X-245999000Y-145923000D03*
%TO.P,U14,5*%
%TO.N,Net-(U14-Pad5)*%
X-238379000Y-145923000D03*
%TO.P,U14,3*%
%TO.N,Net-(U14-Pad3)*%
X-245999000Y-148463000D03*
%TO.P,U14,6*%
%TO.N,/I3*%
X-238379000Y-143383000D03*
%TD*%
%TO.P,U15,6*%
%TO.N,/I4*%
X-238442500Y-154940000D03*
%TO.P,U15,3*%
%TO.N,Net-(U15-Pad3)*%
X-246062500Y-160020000D03*
%TO.P,U15,5*%
%TO.N,Net-(U15-Pad5)*%
X-238442500Y-157480000D03*
%TO.P,U15,2*%
%TO.N,GND*%
X-246062500Y-157480000D03*
%TO.P,U15,4*%
%TO.N,I+*%
X-238442500Y-160020000D03*
D10*
%TO.P,U15,1*%
%TO.N,/P4*%
X-246062500Y-154940000D03*
%TD*%
%TO.P,U16,1*%
%TO.N,/P5*%
X-246062500Y-165290500D03*
D14*
%TO.P,U16,4*%
%TO.N,I+*%
X-238442500Y-170370500D03*
%TO.P,U16,2*%
%TO.N,GND*%
X-246062500Y-167830500D03*
%TO.P,U16,5*%
%TO.N,Net-(U16-Pad5)*%
X-238442500Y-167830500D03*
%TO.P,U16,3*%
%TO.N,Net-(U16-Pad3)*%
X-246062500Y-170370500D03*
%TO.P,U16,6*%
%TO.N,/I5*%
X-238442500Y-165290500D03*
%TD*%
D10*
%TO.P,U17,1*%
%TO.N,/P6*%
X-246227600Y-176733200D03*
D14*
%TO.P,U17,4*%
%TO.N,I+*%
X-238607600Y-181813200D03*
%TO.P,U17,2*%
%TO.N,GND*%
X-246227600Y-179273200D03*
%TO.P,U17,5*%
%TO.N,Net-(U17-Pad5)*%
X-238607600Y-179273200D03*
%TO.P,U17,3*%
%TO.N,Net-(U17-Pad3)*%
X-246227600Y-181813200D03*
%TO.P,U17,6*%
%TO.N,/I6*%
X-238607600Y-176733200D03*
%TD*%
%TO.P,U20,6*%
%TO.N,/IB*%
X-238607600Y-188366400D03*
%TO.P,U20,3*%
%TO.N,Net-(U20-Pad3)*%
X-246227600Y-193446400D03*
%TO.P,U20,5*%
%TO.N,Net-(U20-Pad5)*%
X-238607600Y-190906400D03*
%TO.P,U20,2*%
%TO.N,GND*%
X-246227600Y-190906400D03*
%TO.P,U20,4*%
%TO.N,I-*%
X-238607600Y-193446400D03*
D10*
%TO.P,U20,1*%
%TO.N,/BOT*%
X-246227600Y-188366400D03*
%TD*%
%TO.P,U21,1*%
%TO.N,/V_D_EN*%
X-249783600Y-196265800D03*
D14*
%TO.P,U21,4*%
%TO.N,Net-(U21-Pad4)*%
X-254863600Y-203885800D03*
%TO.P,U21,2*%
%TO.N,GND*%
X-252323600Y-196265800D03*
%TO.P,U21,5*%
%TO.N,/RSense*%
X-252323600Y-203885800D03*
%TO.P,U21,3*%
%TO.N,Net-(U21-Pad3)*%
X-254863600Y-196265800D03*
%TO.P,U21,6*%
%TO.N,V_D*%
X-249783600Y-203885800D03*
%TD*%
D10*
%TO.P,U22,1*%
%TO.N,Net-(RN4-Pad4)*%
X-206938880Y-113979960D03*
D14*
%TO.P,U22,15*%
%TO.N,A0*%
X-199318880Y-146999960D03*
%TO.P,U22,2*%
%TO.N,Net-(RN4-Pad3)*%
X-206938880Y-116519960D03*
%TO.P,U22,16*%
%TO.N,A1*%
X-199318880Y-144459960D03*
%TO.P,U22,3*%
%TO.N,Net-(RN4-Pad2)*%
X-206938880Y-119059960D03*
%TO.P,U22,17*%
%TO.N,A2*%
X-199318880Y-141919960D03*
%TO.P,U22,4*%
%TO.N,Net-(RN4-Pad1)*%
X-206938880Y-121599960D03*
%TO.P,U22,18*%
%TO.N,Net-(R3-Pad2)*%
X-199318880Y-139379960D03*
%TO.P,U22,5*%
%TO.N,Net-(RN1-Pad8)*%
X-206938880Y-124139960D03*
%TO.P,U22,19*%
%TO.N,Net-(U22-Pad19)*%
X-199318880Y-136839960D03*
%TO.P,U22,6*%
%TO.N,Net-(RN1-Pad7)*%
X-206938880Y-126679960D03*
%TO.P,U22,20*%
%TO.N,Net-(U22-Pad20)*%
X-199318880Y-134299960D03*
%TO.P,U22,7*%
%TO.N,Net-(RN1-Pad6)*%
X-206938880Y-129219960D03*
%TO.P,U22,21*%
%TO.N,Net-(R1-Pad1)*%
X-199318880Y-131759960D03*
%TO.P,U22,8*%
%TO.N,Net-(RN1-Pad5)*%
X-206938880Y-131759960D03*
%TO.P,U22,22*%
%TO.N,Net-(R2-Pad1)*%
X-199318880Y-129219960D03*
%TO.P,U22,9*%
%TO.N,+5V*%
X-206938880Y-134299960D03*
%TO.P,U22,23*%
%TO.N,Net-(R4-Pad1)*%
X-199318880Y-126679960D03*
%TO.P,U22,10*%
%TO.N,GND*%
X-206938880Y-136839960D03*
%TO.P,U22,24*%
%TO.N,Net-(U22-Pad24)*%
X-199318880Y-124139960D03*
%TO.P,U22,11*%
%TO.N,~CS*%
X-206938880Y-139379960D03*
%TO.P,U22,25*%
%TO.N,Net-(U22-Pad25)*%
X-199318880Y-121599960D03*
%TO.P,U22,12*%
%TO.N,SCK*%
X-206938880Y-141919960D03*
%TO.P,U22,26*%
%TO.N,Net-(U22-Pad26)*%
X-199318880Y-119059960D03*
%TO.P,U22,13*%
%TO.N,MOSI*%
X-206938880Y-144459960D03*
%TO.P,U22,27*%
%TO.N,Net-(U22-Pad27)*%
X-199318880Y-116519960D03*
%TO.P,U22,14*%
%TO.N,MISO*%
X-206938880Y-146999960D03*
%TO.P,U22,28*%
%TO.N,Net-(U22-Pad28)*%
X-199318880Y-113979960D03*
%TD*%
D15*
%TO.N,I-*%
X-238252000Y-115316000D02*
X-243357400Y-115316000D01*
X-241046000Y-191008000D02*
X-238607600Y-193446400D01*
X-241046000Y-186690000D02*
X-241046000Y-191008000D01*
X-240563400Y-186207400D02*
X-241046000Y-186690000D01*
X-245973600Y-186207400D02*
X-240563400Y-186207400D01*
X-248539000Y-183642000D02*
X-245973600Y-186207400D01*
X-248539000Y-120040400D02*
X-248539000Y-183642000D01*
X-249656600Y-118922800D02*
X-248539000Y-120040400D01*
X-246964200Y-118922800D02*
X-249656600Y-118922800D01*
X-243357400Y-115316000D02*
X-246964200Y-118922800D01*
%TO.N,V+*%
X-265176000Y-126492000D02*
X-267157200Y-126492000D01*
X-267843000Y-181737000D02*
X-265430000Y-181737000D01*
X-268046200Y-181940200D02*
X-267843000Y-181737000D01*
X-268046200Y-127381000D02*
X-268046200Y-136956800D01*
X-268046200Y-136956800D02*
X-268046200Y-148767800D01*
X-268046200Y-148767800D02*
X-268046200Y-160299400D01*
X-268046200Y-160299400D02*
X-268046200Y-170307000D01*
X-268046200Y-170307000D02*
X-268046200Y-181940200D01*
X-267157200Y-126492000D02*
X-268046200Y-127381000D01*
X-265430000Y-170307000D02*
X-268046200Y-170307000D01*
X-268046200Y-170307000D02*
X-268020800Y-170307000D01*
X-268020800Y-170307000D02*
X-268046200Y-170307000D01*
X-265430000Y-160083500D02*
X-267830300Y-160083500D01*
X-267830300Y-160083500D02*
X-268046200Y-160299400D01*
X-265239500Y-148463000D02*
X-267741400Y-148463000D01*
X-267741400Y-148463000D02*
X-268046200Y-148767800D01*
X-265303000Y-136779000D02*
X-267868400Y-136779000D01*
X-267868400Y-136779000D02*
X-268046200Y-136956800D01*
%TO.N,GND*%
X-245872000Y-112776000D02*
X-243789200Y-112776000D01*
X-210159600Y-129895600D02*
X-219456000Y-139192000D01*
X-210159600Y-107721400D02*
X-210159600Y-129895600D01*
X-211328000Y-106553000D02*
X-210159600Y-107721400D01*
X-237566200Y-106553000D02*
X-211328000Y-106553000D01*
X-243789200Y-112776000D02*
X-237566200Y-106553000D01*
%TO.N,V_D*%
X-219456000Y-156972000D02*
X-223824800Y-156972000D01*
X-213487000Y-203885800D02*
X-249783600Y-203885800D01*
X-211023200Y-201422000D02*
X-213487000Y-203885800D01*
X-211023200Y-176885600D02*
X-211023200Y-201422000D01*
X-209550000Y-175412400D02*
X-211023200Y-176885600D01*
X-219354400Y-175412400D02*
X-209550000Y-175412400D01*
X-224510600Y-170256200D02*
X-219354400Y-175412400D01*
X-224510600Y-157657800D02*
X-224510600Y-170256200D01*
X-223824800Y-156972000D02*
X-224510600Y-157657800D01*
%TO.N,+5V*%
X-219456000Y-162052000D02*
X-215392000Y-162052000D01*
X-211556600Y-138917680D02*
X-206938880Y-134299960D01*
X-211556600Y-158216600D02*
X-211556600Y-138917680D01*
X-215392000Y-162052000D02*
X-211556600Y-158216600D01*
%TO.N,/P6*%
X-246227600Y-176733200D02*
X-246227600Y-174498000D01*
X-216458800Y-126771400D02*
X-215950800Y-127279400D01*
X-230174800Y-126771400D02*
X-216458800Y-126771400D01*
X-231089200Y-127685800D02*
X-230174800Y-126771400D01*
X-231089200Y-139598400D02*
X-231089200Y-127685800D01*
X-232206800Y-140716000D02*
X-231089200Y-139598400D01*
X-232206800Y-170459400D02*
X-232206800Y-140716000D01*
X-235559600Y-173812200D02*
X-232206800Y-170459400D01*
X-245541800Y-173812200D02*
X-235559600Y-173812200D01*
X-246227600Y-174498000D02*
X-245541800Y-173812200D01*
%TO.N,/P5*%
X-246062500Y-165290500D02*
X-246062500Y-163512500D01*
X-231013000Y-125907800D02*
X-215874600Y-125907800D01*
X-231876600Y-126771400D02*
X-231013000Y-125907800D01*
X-231876600Y-139268200D02*
X-231876600Y-126771400D01*
X-233070400Y-140462000D02*
X-231876600Y-139268200D01*
X-233070400Y-159334200D02*
X-233070400Y-140462000D01*
X-236753400Y-163017200D02*
X-233070400Y-159334200D01*
X-245567200Y-163017200D02*
X-236753400Y-163017200D01*
X-246062500Y-163512500D02*
X-245567200Y-163017200D01*
%TO.N,/P2*%
X-245872000Y-131826000D02*
X-245872000Y-129819400D01*
X-234111800Y-116662200D02*
X-218236800Y-116662200D01*
X-235051600Y-117602000D02*
X-234111800Y-116662200D01*
X-235051600Y-127787400D02*
X-235051600Y-117602000D01*
X-236270800Y-129006600D02*
X-235051600Y-127787400D01*
X-245059200Y-129006600D02*
X-236270800Y-129006600D01*
X-245872000Y-129819400D02*
X-245059200Y-129006600D01*
%TO.N,/P1*%
X-245872000Y-121412000D02*
X-245872000Y-118541800D01*
X-218160600Y-115265200D02*
X-218109800Y-115316000D01*
X-234086400Y-115265200D02*
X-218160600Y-115265200D01*
X-236575600Y-117754400D02*
X-234086400Y-115265200D01*
X-245084600Y-117754400D02*
X-236575600Y-117754400D01*
X-245872000Y-118541800D02*
X-245084600Y-117754400D01*
%TO.N,/P4*%
X-246062500Y-154940000D02*
X-246062500Y-152590500D01*
X-232638600Y-119405400D02*
X-218186000Y-119405400D01*
X-232867200Y-119634000D02*
X-232638600Y-119405400D01*
X-232867200Y-138480800D02*
X-232867200Y-119634000D01*
X-234010200Y-139623800D02*
X-232867200Y-138480800D01*
X-234010200Y-149275800D02*
X-234010200Y-139623800D01*
X-236067600Y-151333200D02*
X-234010200Y-149275800D01*
X-244805200Y-151333200D02*
X-236067600Y-151333200D01*
X-246062500Y-152590500D02*
X-244805200Y-151333200D01*
%TO.N,/P3*%
X-245999000Y-143383000D02*
X-245999000Y-141020800D01*
X-233502200Y-117983000D02*
X-218135200Y-117983000D01*
X-234162600Y-118643400D02*
X-233502200Y-117983000D01*
X-234162600Y-137210800D02*
X-234162600Y-118643400D01*
X-237312200Y-140360400D02*
X-234162600Y-137210800D01*
X-245338600Y-140360400D02*
X-237312200Y-140360400D01*
X-245999000Y-141020800D02*
X-245338600Y-140360400D01*
%TO.N,/VT*%
X-252120400Y-103479600D02*
X-252120400Y-103378000D01*
X-263118600Y-108178600D02*
X-265176000Y-110236000D01*
X-263118600Y-102362000D02*
X-263118600Y-108178600D01*
X-259842000Y-99085400D02*
X-263118600Y-102362000D01*
X-251714000Y-99085400D02*
X-259842000Y-99085400D01*
X-250825000Y-98196400D02*
X-251714000Y-99085400D01*
X-250825000Y-102082600D02*
X-250825000Y-98196400D01*
X-252120400Y-103378000D02*
X-250825000Y-102082600D01*
%TO.N,/TOP*%
X-245872000Y-110236000D02*
X-245872000Y-107848400D01*
X-223748600Y-85725000D02*
X-222123000Y-85725000D01*
X-245872000Y-107848400D02*
X-223748600Y-85725000D01*
%TO.N,/V1*%
X-254660400Y-100939600D02*
X-254660400Y-101447600D01*
X-261797800Y-121412000D02*
X-265176000Y-121412000D01*
X-261772400Y-121437400D02*
X-261797800Y-121412000D01*
X-261772400Y-107061000D02*
X-261772400Y-121437400D01*
X-261264400Y-106553000D02*
X-261772400Y-107061000D01*
X-254889000Y-106553000D02*
X-261264400Y-106553000D01*
X-253415800Y-105079800D02*
X-254889000Y-106553000D01*
X-253415800Y-102692200D02*
X-253415800Y-105079800D01*
X-254660400Y-101447600D02*
X-253415800Y-102692200D01*
%TO.N,/V2*%
X-265303000Y-131699000D02*
X-260807200Y-131699000D01*
X-248285000Y-102235000D02*
X-249580400Y-100939600D01*
X-248285000Y-105968800D02*
X-248285000Y-102235000D01*
X-249605800Y-107289600D02*
X-248285000Y-105968800D01*
X-260019800Y-107289600D02*
X-249605800Y-107289600D01*
X-260502400Y-107772200D02*
X-260019800Y-107289600D01*
X-260502400Y-131394200D02*
X-260502400Y-107772200D01*
X-260807200Y-131699000D02*
X-260502400Y-131394200D01*
%TO.N,/V3*%
X-244500400Y-100939600D02*
X-244500400Y-101320600D01*
X-259791200Y-143383000D02*
X-265239500Y-143383000D01*
X-259664200Y-143510000D02*
X-259791200Y-143383000D01*
X-259664200Y-108229400D02*
X-259664200Y-143510000D01*
X-259791200Y-108102400D02*
X-259664200Y-108229400D01*
X-247650000Y-108102400D02*
X-259791200Y-108102400D01*
X-245719600Y-106172000D02*
X-247650000Y-108102400D01*
X-245719600Y-102539800D02*
X-245719600Y-106172000D01*
X-244500400Y-101320600D02*
X-245719600Y-102539800D01*
%TO.N,/V4*%
X-249732800Y-211378800D02*
X-249732800Y-214249000D01*
X-259651500Y-155003500D02*
X-265430000Y-155003500D01*
X-259562600Y-155092400D02*
X-259651500Y-155003500D01*
X-259562600Y-213106000D02*
X-259562600Y-155092400D01*
X-258445000Y-214223600D02*
X-259562600Y-213106000D01*
X-249758200Y-214223600D02*
X-258445000Y-214223600D01*
X-249732800Y-214249000D02*
X-249758200Y-214223600D01*
%TO.N,/V5*%
X-265430000Y-165227000D02*
X-260654800Y-165227000D01*
X-244652800Y-216255600D02*
X-244652800Y-211378800D01*
X-244754400Y-216357200D02*
X-244652800Y-216255600D01*
X-260426200Y-216357200D02*
X-244754400Y-216357200D01*
X-260477000Y-216306400D02*
X-260426200Y-216357200D01*
X-260477000Y-165404800D02*
X-260477000Y-216306400D01*
X-260654800Y-165227000D02*
X-260477000Y-165404800D01*
%TO.N,/V6*%
X-239572800Y-211378800D02*
X-239572800Y-217551000D01*
X-261569200Y-176657000D02*
X-265430000Y-176657000D01*
X-261569200Y-217322400D02*
X-261569200Y-176657000D01*
X-261696200Y-217449400D02*
X-261569200Y-217322400D01*
X-239674400Y-217449400D02*
X-261696200Y-217449400D01*
X-239572800Y-217551000D02*
X-239674400Y-217449400D01*
%TO.N,/VB*%
X-247192800Y-208838800D02*
X-247192800Y-206425800D01*
X-263245600Y-190804800D02*
X-265633200Y-188417200D01*
X-263245600Y-217805000D02*
X-263245600Y-190804800D01*
X-264185400Y-218744800D02*
X-263245600Y-217805000D01*
X-236702600Y-218744800D02*
X-264185400Y-218744800D01*
X-236296200Y-218338400D02*
X-236702600Y-218744800D01*
X-236296200Y-207314800D02*
X-236296200Y-218338400D01*
X-235712000Y-206730600D02*
X-236296200Y-207314800D01*
X-246888000Y-206730600D02*
X-235712000Y-206730600D01*
X-247192800Y-206425800D02*
X-246888000Y-206730600D01*
%TO.N,/BOT*%
X-246227600Y-188366400D02*
X-244170200Y-188366400D01*
X-227634800Y-195554600D02*
X-213817200Y-181737000D01*
X-239572800Y-195554600D02*
X-227634800Y-195554600D01*
X-242620800Y-192506600D02*
X-239572800Y-195554600D01*
X-242620800Y-189915800D02*
X-242620800Y-192506600D01*
X-244170200Y-188366400D02*
X-242620800Y-189915800D01*
%TO.N,/V_D_EN*%
X-249783600Y-196265800D02*
X-246989600Y-196265800D01*
X-220116400Y-199161400D02*
X-218490800Y-197535800D01*
X-244094000Y-199161400D02*
X-220116400Y-199161400D01*
X-246989600Y-196265800D02*
X-244094000Y-199161400D01*
%TO.N,Net-(R4-Pad1)*%
X-199318880Y-126679960D02*
X-198028560Y-126679960D01*
X-203250800Y-131800600D02*
X-203250800Y-197535800D01*
X-201930000Y-130479800D02*
X-203250800Y-131800600D01*
X-197789800Y-130479800D02*
X-201930000Y-130479800D01*
X-197764400Y-130454400D02*
X-197789800Y-130479800D01*
X-197764400Y-126944120D02*
X-197764400Y-130454400D01*
X-198028560Y-126679960D02*
X-197764400Y-126944120D01*
%TO.N,Net-(R2-Pad1)*%
X-199318880Y-129219960D02*
X-202651360Y-129219960D01*
X-204165200Y-156845000D02*
X-213817200Y-166497000D01*
X-204165200Y-130733800D02*
X-204165200Y-156845000D01*
X-202651360Y-129219960D02*
X-204165200Y-130733800D01*
%TO.N,Net-(R1-Pad1)*%
X-199318880Y-131759960D02*
X-197297040Y-131759960D01*
X-201549000Y-85725000D02*
X-206883000Y-85725000D01*
X-197104000Y-90170000D02*
X-201549000Y-85725000D01*
X-197104000Y-131566920D02*
X-197104000Y-90170000D01*
X-197297040Y-131759960D02*
X-197104000Y-131566920D01*
%TD*%
M02*
