%TF.GenerationSoftware,KiCad,Pcbnew,(5.1.9-0-10_14)*%
%TF.CreationDate,2021-02-14T15:56:36+00:00*%
%TF.ProjectId,solar_mux_1,736f6c61-725f-46d7-9578-5f312e6b6963,rev?*%
%TF.SameCoordinates,Original*%
%TF.FileFunction,Soldermask,Top*%
%TF.FilePolarity,Negative*%
%FSLAX46Y46*%
G04 Gerber Fmt 4.6, Leading zero omitted, Abs format (unit mm)*
G04 Created by KiCad (PCBNEW (5.1.9-0-10_14)) date 2021-02-14 15:56:36*
%MOMM*%
%LPD*%
G01*
G04 APERTURE LIST*
%ADD10R,1.600000X1.600000*%
%ADD11C,1.600000*%
%ADD12R,1.700000X1.700000*%
%ADD13O,1.700000X1.700000*%
%ADD14C,0.100000*%
%ADD15R,1.500000X1.000000*%
%ADD16R,1.000000X1.500000*%
%ADD17O,1.600000X1.600000*%
%ADD18R,0.900000X0.900000*%
%ADD19R,2.500000X2.500000*%
G04 APERTURE END LIST*
D10*
%TO.C,C1*%
X-185039000Y-124079000D03*
D11*
X-185039000Y-121579000D03*
%TD*%
D12*
%TO.C,J1*%
X-219456000Y-162052000D03*
D13*
X-219456000Y-159512000D03*
X-219456000Y-156972000D03*
X-219456000Y-154432000D03*
X-219456000Y-151892000D03*
X-219456000Y-149352000D03*
X-219456000Y-146812000D03*
X-219456000Y-144272000D03*
X-219456000Y-141732000D03*
X-219456000Y-139192000D03*
X-219456000Y-136652000D03*
X-219456000Y-134112000D03*
X-219456000Y-131572000D03*
X-219456000Y-129032000D03*
%TD*%
D12*
%TO.C,J2*%
X-252272800Y-211378800D03*
D13*
X-252272800Y-208838800D03*
X-249732800Y-211378800D03*
X-249732800Y-208838800D03*
X-247192800Y-211378800D03*
X-247192800Y-208838800D03*
X-244652800Y-211378800D03*
X-244652800Y-208838800D03*
X-242112800Y-211378800D03*
X-242112800Y-208838800D03*
X-239572800Y-211378800D03*
X-239572800Y-208838800D03*
%TD*%
%TO.C,J3*%
X-244500400Y-100939600D03*
X-244500400Y-103479600D03*
X-247040400Y-100939600D03*
X-247040400Y-103479600D03*
X-249580400Y-100939600D03*
X-249580400Y-103479600D03*
X-252120400Y-100939600D03*
X-252120400Y-103479600D03*
X-254660400Y-100939600D03*
X-254660400Y-103479600D03*
X-257200400Y-100939600D03*
D12*
X-257200400Y-103479600D03*
%TD*%
D14*
%TO.C,JP1*%
G36*
X-190858000Y-159752600D02*
G01*
X-190358000Y-159752600D01*
X-190358000Y-159753202D01*
X-190333466Y-159753202D01*
X-190284635Y-159758012D01*
X-190236510Y-159767584D01*
X-190189555Y-159781828D01*
X-190144222Y-159800605D01*
X-190100949Y-159823736D01*
X-190060150Y-159850996D01*
X-190022221Y-159882124D01*
X-189987524Y-159916821D01*
X-189956396Y-159954750D01*
X-189929136Y-159995549D01*
X-189906005Y-160038822D01*
X-189887228Y-160084155D01*
X-189872984Y-160131110D01*
X-189863412Y-160179235D01*
X-189858602Y-160228066D01*
X-189858602Y-160252600D01*
X-189858000Y-160252600D01*
X-189858000Y-160752600D01*
X-189858602Y-160752600D01*
X-189858602Y-160777134D01*
X-189863412Y-160825965D01*
X-189872984Y-160874090D01*
X-189887228Y-160921045D01*
X-189906005Y-160966378D01*
X-189929136Y-161009651D01*
X-189956396Y-161050450D01*
X-189987524Y-161088379D01*
X-190022221Y-161123076D01*
X-190060150Y-161154204D01*
X-190100949Y-161181464D01*
X-190144222Y-161204595D01*
X-190189555Y-161223372D01*
X-190236510Y-161237616D01*
X-190284635Y-161247188D01*
X-190333466Y-161251998D01*
X-190358000Y-161251998D01*
X-190358000Y-161252600D01*
X-190858000Y-161252600D01*
X-190858000Y-159752600D01*
G37*
G36*
X-191658000Y-161251998D02*
G01*
X-191682534Y-161251998D01*
X-191731365Y-161247188D01*
X-191779490Y-161237616D01*
X-191826445Y-161223372D01*
X-191871778Y-161204595D01*
X-191915051Y-161181464D01*
X-191955850Y-161154204D01*
X-191993779Y-161123076D01*
X-192028476Y-161088379D01*
X-192059604Y-161050450D01*
X-192086864Y-161009651D01*
X-192109995Y-160966378D01*
X-192128772Y-160921045D01*
X-192143016Y-160874090D01*
X-192152588Y-160825965D01*
X-192157398Y-160777134D01*
X-192157398Y-160752600D01*
X-192158000Y-160752600D01*
X-192158000Y-160252600D01*
X-192157398Y-160252600D01*
X-192157398Y-160228066D01*
X-192152588Y-160179235D01*
X-192143016Y-160131110D01*
X-192128772Y-160084155D01*
X-192109995Y-160038822D01*
X-192086864Y-159995549D01*
X-192059604Y-159954750D01*
X-192028476Y-159916821D01*
X-191993779Y-159882124D01*
X-191955850Y-159850996D01*
X-191915051Y-159823736D01*
X-191871778Y-159800605D01*
X-191826445Y-159781828D01*
X-191779490Y-159767584D01*
X-191731365Y-159758012D01*
X-191682534Y-159753202D01*
X-191658000Y-159753202D01*
X-191658000Y-159752600D01*
X-191158000Y-159752600D01*
X-191158000Y-161252600D01*
X-191658000Y-161252600D01*
X-191658000Y-161251998D01*
G37*
%TD*%
D15*
%TO.C,JP2*%
X-177800000Y-141732000D03*
D14*
G36*
X-178549398Y-140432000D02*
G01*
X-178549398Y-140407466D01*
X-178544588Y-140358635D01*
X-178535016Y-140310510D01*
X-178520772Y-140263555D01*
X-178501995Y-140218222D01*
X-178478864Y-140174949D01*
X-178451604Y-140134150D01*
X-178420476Y-140096221D01*
X-178385779Y-140061524D01*
X-178347850Y-140030396D01*
X-178307051Y-140003136D01*
X-178263778Y-139980005D01*
X-178218445Y-139961228D01*
X-178171490Y-139946984D01*
X-178123365Y-139937412D01*
X-178074534Y-139932602D01*
X-178050000Y-139932602D01*
X-178050000Y-139932000D01*
X-177550000Y-139932000D01*
X-177550000Y-139932602D01*
X-177525466Y-139932602D01*
X-177476635Y-139937412D01*
X-177428510Y-139946984D01*
X-177381555Y-139961228D01*
X-177336222Y-139980005D01*
X-177292949Y-140003136D01*
X-177252150Y-140030396D01*
X-177214221Y-140061524D01*
X-177179524Y-140096221D01*
X-177148396Y-140134150D01*
X-177121136Y-140174949D01*
X-177098005Y-140218222D01*
X-177079228Y-140263555D01*
X-177064984Y-140310510D01*
X-177055412Y-140358635D01*
X-177050602Y-140407466D01*
X-177050602Y-140432000D01*
X-177050000Y-140432000D01*
X-177050000Y-140982000D01*
X-178550000Y-140982000D01*
X-178550000Y-140432000D01*
X-178549398Y-140432000D01*
G37*
G36*
X-177050000Y-142482000D02*
G01*
X-177050000Y-143032000D01*
X-177050602Y-143032000D01*
X-177050602Y-143056534D01*
X-177055412Y-143105365D01*
X-177064984Y-143153490D01*
X-177079228Y-143200445D01*
X-177098005Y-143245778D01*
X-177121136Y-143289051D01*
X-177148396Y-143329850D01*
X-177179524Y-143367779D01*
X-177214221Y-143402476D01*
X-177252150Y-143433604D01*
X-177292949Y-143460864D01*
X-177336222Y-143483995D01*
X-177381555Y-143502772D01*
X-177428510Y-143517016D01*
X-177476635Y-143526588D01*
X-177525466Y-143531398D01*
X-177550000Y-143531398D01*
X-177550000Y-143532000D01*
X-178050000Y-143532000D01*
X-178050000Y-143531398D01*
X-178074534Y-143531398D01*
X-178123365Y-143526588D01*
X-178171490Y-143517016D01*
X-178218445Y-143502772D01*
X-178263778Y-143483995D01*
X-178307051Y-143460864D01*
X-178347850Y-143433604D01*
X-178385779Y-143402476D01*
X-178420476Y-143367779D01*
X-178451604Y-143329850D01*
X-178478864Y-143289051D01*
X-178501995Y-143245778D01*
X-178520772Y-143200445D01*
X-178535016Y-143153490D01*
X-178544588Y-143105365D01*
X-178549398Y-143056534D01*
X-178549398Y-143032000D01*
X-178550000Y-143032000D01*
X-178550000Y-142482000D01*
X-177050000Y-142482000D01*
G37*
%TD*%
%TO.C,JP3*%
G36*
X-187694000Y-143522000D02*
G01*
X-187694000Y-142972000D01*
X-187693398Y-142972000D01*
X-187693398Y-142947466D01*
X-187688588Y-142898635D01*
X-187679016Y-142850510D01*
X-187664772Y-142803555D01*
X-187645995Y-142758222D01*
X-187622864Y-142714949D01*
X-187595604Y-142674150D01*
X-187564476Y-142636221D01*
X-187529779Y-142601524D01*
X-187491850Y-142570396D01*
X-187451051Y-142543136D01*
X-187407778Y-142520005D01*
X-187362445Y-142501228D01*
X-187315490Y-142486984D01*
X-187267365Y-142477412D01*
X-187218534Y-142472602D01*
X-187194000Y-142472602D01*
X-187194000Y-142472000D01*
X-186694000Y-142472000D01*
X-186694000Y-142472602D01*
X-186669466Y-142472602D01*
X-186620635Y-142477412D01*
X-186572510Y-142486984D01*
X-186525555Y-142501228D01*
X-186480222Y-142520005D01*
X-186436949Y-142543136D01*
X-186396150Y-142570396D01*
X-186358221Y-142601524D01*
X-186323524Y-142636221D01*
X-186292396Y-142674150D01*
X-186265136Y-142714949D01*
X-186242005Y-142758222D01*
X-186223228Y-142803555D01*
X-186208984Y-142850510D01*
X-186199412Y-142898635D01*
X-186194602Y-142947466D01*
X-186194602Y-142972000D01*
X-186194000Y-142972000D01*
X-186194000Y-143522000D01*
X-187694000Y-143522000D01*
G37*
G36*
X-186194602Y-145572000D02*
G01*
X-186194602Y-145596534D01*
X-186199412Y-145645365D01*
X-186208984Y-145693490D01*
X-186223228Y-145740445D01*
X-186242005Y-145785778D01*
X-186265136Y-145829051D01*
X-186292396Y-145869850D01*
X-186323524Y-145907779D01*
X-186358221Y-145942476D01*
X-186396150Y-145973604D01*
X-186436949Y-146000864D01*
X-186480222Y-146023995D01*
X-186525555Y-146042772D01*
X-186572510Y-146057016D01*
X-186620635Y-146066588D01*
X-186669466Y-146071398D01*
X-186694000Y-146071398D01*
X-186694000Y-146072000D01*
X-187194000Y-146072000D01*
X-187194000Y-146071398D01*
X-187218534Y-146071398D01*
X-187267365Y-146066588D01*
X-187315490Y-146057016D01*
X-187362445Y-146042772D01*
X-187407778Y-146023995D01*
X-187451051Y-146000864D01*
X-187491850Y-145973604D01*
X-187529779Y-145942476D01*
X-187564476Y-145907779D01*
X-187595604Y-145869850D01*
X-187622864Y-145829051D01*
X-187645995Y-145785778D01*
X-187664772Y-145740445D01*
X-187679016Y-145693490D01*
X-187688588Y-145645365D01*
X-187693398Y-145596534D01*
X-187693398Y-145572000D01*
X-187694000Y-145572000D01*
X-187694000Y-145022000D01*
X-186194000Y-145022000D01*
X-186194000Y-145572000D01*
X-186194602Y-145572000D01*
G37*
D15*
X-186944000Y-144272000D03*
%TD*%
%TO.C,JP4*%
X-182880000Y-141732000D03*
D14*
G36*
X-183629398Y-140432000D02*
G01*
X-183629398Y-140407466D01*
X-183624588Y-140358635D01*
X-183615016Y-140310510D01*
X-183600772Y-140263555D01*
X-183581995Y-140218222D01*
X-183558864Y-140174949D01*
X-183531604Y-140134150D01*
X-183500476Y-140096221D01*
X-183465779Y-140061524D01*
X-183427850Y-140030396D01*
X-183387051Y-140003136D01*
X-183343778Y-139980005D01*
X-183298445Y-139961228D01*
X-183251490Y-139946984D01*
X-183203365Y-139937412D01*
X-183154534Y-139932602D01*
X-183130000Y-139932602D01*
X-183130000Y-139932000D01*
X-182630000Y-139932000D01*
X-182630000Y-139932602D01*
X-182605466Y-139932602D01*
X-182556635Y-139937412D01*
X-182508510Y-139946984D01*
X-182461555Y-139961228D01*
X-182416222Y-139980005D01*
X-182372949Y-140003136D01*
X-182332150Y-140030396D01*
X-182294221Y-140061524D01*
X-182259524Y-140096221D01*
X-182228396Y-140134150D01*
X-182201136Y-140174949D01*
X-182178005Y-140218222D01*
X-182159228Y-140263555D01*
X-182144984Y-140310510D01*
X-182135412Y-140358635D01*
X-182130602Y-140407466D01*
X-182130602Y-140432000D01*
X-182130000Y-140432000D01*
X-182130000Y-140982000D01*
X-183630000Y-140982000D01*
X-183630000Y-140432000D01*
X-183629398Y-140432000D01*
G37*
G36*
X-182130000Y-142482000D02*
G01*
X-182130000Y-143032000D01*
X-182130602Y-143032000D01*
X-182130602Y-143056534D01*
X-182135412Y-143105365D01*
X-182144984Y-143153490D01*
X-182159228Y-143200445D01*
X-182178005Y-143245778D01*
X-182201136Y-143289051D01*
X-182228396Y-143329850D01*
X-182259524Y-143367779D01*
X-182294221Y-143402476D01*
X-182332150Y-143433604D01*
X-182372949Y-143460864D01*
X-182416222Y-143483995D01*
X-182461555Y-143502772D01*
X-182508510Y-143517016D01*
X-182556635Y-143526588D01*
X-182605466Y-143531398D01*
X-182630000Y-143531398D01*
X-182630000Y-143532000D01*
X-183130000Y-143532000D01*
X-183130000Y-143531398D01*
X-183154534Y-143531398D01*
X-183203365Y-143526588D01*
X-183251490Y-143517016D01*
X-183298445Y-143502772D01*
X-183343778Y-143483995D01*
X-183387051Y-143460864D01*
X-183427850Y-143433604D01*
X-183465779Y-143402476D01*
X-183500476Y-143367779D01*
X-183531604Y-143329850D01*
X-183558864Y-143289051D01*
X-183581995Y-143245778D01*
X-183600772Y-143200445D01*
X-183615016Y-143153490D01*
X-183624588Y-143105365D01*
X-183629398Y-143056534D01*
X-183629398Y-143032000D01*
X-183630000Y-143032000D01*
X-183630000Y-142482000D01*
X-182130000Y-142482000D01*
G37*
%TD*%
%TO.C,JP5*%
G36*
X-188759400Y-154215400D02*
G01*
X-188209400Y-154215400D01*
X-188209400Y-154216002D01*
X-188184866Y-154216002D01*
X-188136035Y-154220812D01*
X-188087910Y-154230384D01*
X-188040955Y-154244628D01*
X-187995622Y-154263405D01*
X-187952349Y-154286536D01*
X-187911550Y-154313796D01*
X-187873621Y-154344924D01*
X-187838924Y-154379621D01*
X-187807796Y-154417550D01*
X-187780536Y-154458349D01*
X-187757405Y-154501622D01*
X-187738628Y-154546955D01*
X-187724384Y-154593910D01*
X-187714812Y-154642035D01*
X-187710002Y-154690866D01*
X-187710002Y-154715400D01*
X-187709400Y-154715400D01*
X-187709400Y-155215400D01*
X-187710002Y-155215400D01*
X-187710002Y-155239934D01*
X-187714812Y-155288765D01*
X-187724384Y-155336890D01*
X-187738628Y-155383845D01*
X-187757405Y-155429178D01*
X-187780536Y-155472451D01*
X-187807796Y-155513250D01*
X-187838924Y-155551179D01*
X-187873621Y-155585876D01*
X-187911550Y-155617004D01*
X-187952349Y-155644264D01*
X-187995622Y-155667395D01*
X-188040955Y-155686172D01*
X-188087910Y-155700416D01*
X-188136035Y-155709988D01*
X-188184866Y-155714798D01*
X-188209400Y-155714798D01*
X-188209400Y-155715400D01*
X-188759400Y-155715400D01*
X-188759400Y-154215400D01*
G37*
G36*
X-190809400Y-155714798D02*
G01*
X-190833934Y-155714798D01*
X-190882765Y-155709988D01*
X-190930890Y-155700416D01*
X-190977845Y-155686172D01*
X-191023178Y-155667395D01*
X-191066451Y-155644264D01*
X-191107250Y-155617004D01*
X-191145179Y-155585876D01*
X-191179876Y-155551179D01*
X-191211004Y-155513250D01*
X-191238264Y-155472451D01*
X-191261395Y-155429178D01*
X-191280172Y-155383845D01*
X-191294416Y-155336890D01*
X-191303988Y-155288765D01*
X-191308798Y-155239934D01*
X-191308798Y-155215400D01*
X-191309400Y-155215400D01*
X-191309400Y-154715400D01*
X-191308798Y-154715400D01*
X-191308798Y-154690866D01*
X-191303988Y-154642035D01*
X-191294416Y-154593910D01*
X-191280172Y-154546955D01*
X-191261395Y-154501622D01*
X-191238264Y-154458349D01*
X-191211004Y-154417550D01*
X-191179876Y-154379621D01*
X-191145179Y-154344924D01*
X-191107250Y-154313796D01*
X-191066451Y-154286536D01*
X-191023178Y-154263405D01*
X-190977845Y-154244628D01*
X-190930890Y-154230384D01*
X-190882765Y-154220812D01*
X-190833934Y-154216002D01*
X-190809400Y-154216002D01*
X-190809400Y-154215400D01*
X-190259400Y-154215400D01*
X-190259400Y-155715400D01*
X-190809400Y-155715400D01*
X-190809400Y-155714798D01*
G37*
D16*
X-189509400Y-154965400D03*
%TD*%
D11*
%TO.C,R1*%
X-206883000Y-85725000D03*
D17*
X-222123000Y-85725000D03*
%TD*%
%TO.C,R2*%
X-213817200Y-181737000D03*
D11*
X-213817200Y-166497000D03*
%TD*%
D17*
%TO.C,R3*%
X-193929000Y-139954000D03*
D11*
X-193929000Y-124714000D03*
%TD*%
%TO.C,R4*%
X-203250800Y-197535800D03*
D17*
X-218490800Y-197535800D03*
%TD*%
D18*
%TO.C,RN1*%
X-212749000Y-128549000D03*
X-212749000Y-129889000D03*
X-212749000Y-125889000D03*
X-212749000Y-127229000D03*
X-215749000Y-128549000D03*
X-215749000Y-127229000D03*
X-215749000Y-129889000D03*
X-215749000Y-125889000D03*
%TD*%
%TO.C,RN4*%
X-215118820Y-119337840D03*
X-215118820Y-115337840D03*
X-215118820Y-117997840D03*
X-215118820Y-116677840D03*
X-218118820Y-117997840D03*
X-218118820Y-119337840D03*
X-218118820Y-115337840D03*
X-218118820Y-116677840D03*
%TD*%
D19*
%TO.C,TP1*%
X-175768000Y-135128000D03*
%TD*%
D17*
%TO.C,U1*%
X-265176000Y-110236000D03*
X-257556000Y-115316000D03*
X-265176000Y-112776000D03*
X-257556000Y-112776000D03*
X-265176000Y-115316000D03*
D10*
X-257556000Y-110236000D03*
%TD*%
%TO.C,U2*%
X-257556000Y-121412000D03*
D17*
X-265176000Y-126492000D03*
X-257556000Y-123952000D03*
X-265176000Y-123952000D03*
X-257556000Y-126492000D03*
X-265176000Y-121412000D03*
%TD*%
%TO.C,U3*%
X-265303000Y-131699000D03*
X-257683000Y-136779000D03*
X-265303000Y-134239000D03*
X-257683000Y-134239000D03*
X-265303000Y-136779000D03*
D10*
X-257683000Y-131699000D03*
%TD*%
%TO.C,U4*%
X-257619500Y-143383000D03*
D17*
X-265239500Y-148463000D03*
X-257619500Y-145923000D03*
X-265239500Y-145923000D03*
X-257619500Y-148463000D03*
X-265239500Y-143383000D03*
%TD*%
%TO.C,U5*%
X-265430000Y-155003500D03*
X-257810000Y-160083500D03*
X-265430000Y-157543500D03*
X-257810000Y-157543500D03*
X-265430000Y-160083500D03*
D10*
X-257810000Y-155003500D03*
%TD*%
%TO.C,U6*%
X-257810000Y-165227000D03*
D17*
X-265430000Y-170307000D03*
X-257810000Y-167767000D03*
X-265430000Y-167767000D03*
X-257810000Y-170307000D03*
X-265430000Y-165227000D03*
%TD*%
D10*
%TO.C,U7*%
X-257810000Y-176657000D03*
D17*
X-265430000Y-181737000D03*
X-257810000Y-179197000D03*
X-265430000Y-179197000D03*
X-257810000Y-181737000D03*
X-265430000Y-176657000D03*
%TD*%
%TO.C,U10*%
X-265633200Y-188417200D03*
X-258013200Y-193497200D03*
X-265633200Y-190957200D03*
X-258013200Y-190957200D03*
X-265633200Y-193497200D03*
D10*
X-258013200Y-188417200D03*
%TD*%
D17*
%TO.C,U11*%
X-238252000Y-110236000D03*
X-245872000Y-115316000D03*
X-238252000Y-112776000D03*
X-245872000Y-112776000D03*
X-238252000Y-115316000D03*
D10*
X-245872000Y-110236000D03*
%TD*%
%TO.C,U12*%
X-245872000Y-121412000D03*
D17*
X-238252000Y-126492000D03*
X-245872000Y-123952000D03*
X-238252000Y-123952000D03*
X-245872000Y-126492000D03*
X-238252000Y-121412000D03*
%TD*%
%TO.C,U13*%
X-238252000Y-131826000D03*
X-245872000Y-136906000D03*
X-238252000Y-134366000D03*
X-245872000Y-134366000D03*
X-238252000Y-136906000D03*
D10*
X-245872000Y-131826000D03*
%TD*%
%TO.C,U14*%
X-245999000Y-143383000D03*
D17*
X-238379000Y-148463000D03*
X-245999000Y-145923000D03*
X-238379000Y-145923000D03*
X-245999000Y-148463000D03*
X-238379000Y-143383000D03*
%TD*%
%TO.C,U15*%
X-238442500Y-154940000D03*
X-246062500Y-160020000D03*
X-238442500Y-157480000D03*
X-246062500Y-157480000D03*
X-238442500Y-160020000D03*
D10*
X-246062500Y-154940000D03*
%TD*%
%TO.C,U16*%
X-246062500Y-165290500D03*
D17*
X-238442500Y-170370500D03*
X-246062500Y-167830500D03*
X-238442500Y-167830500D03*
X-246062500Y-170370500D03*
X-238442500Y-165290500D03*
%TD*%
D10*
%TO.C,U17*%
X-246227600Y-176733200D03*
D17*
X-238607600Y-181813200D03*
X-246227600Y-179273200D03*
X-238607600Y-179273200D03*
X-246227600Y-181813200D03*
X-238607600Y-176733200D03*
%TD*%
%TO.C,U20*%
X-238607600Y-188366400D03*
X-246227600Y-193446400D03*
X-238607600Y-190906400D03*
X-246227600Y-190906400D03*
X-238607600Y-193446400D03*
D10*
X-246227600Y-188366400D03*
%TD*%
%TO.C,U21*%
X-249783600Y-196265800D03*
D17*
X-254863600Y-203885800D03*
X-252323600Y-196265800D03*
X-252323600Y-203885800D03*
X-254863600Y-196265800D03*
X-249783600Y-203885800D03*
%TD*%
D10*
%TO.C,U22*%
X-206938880Y-113979960D03*
D17*
X-199318880Y-146999960D03*
X-206938880Y-116519960D03*
X-199318880Y-144459960D03*
X-206938880Y-119059960D03*
X-199318880Y-141919960D03*
X-206938880Y-121599960D03*
X-199318880Y-139379960D03*
X-206938880Y-124139960D03*
X-199318880Y-136839960D03*
X-206938880Y-126679960D03*
X-199318880Y-134299960D03*
X-206938880Y-129219960D03*
X-199318880Y-131759960D03*
X-206938880Y-131759960D03*
X-199318880Y-129219960D03*
X-206938880Y-134299960D03*
X-199318880Y-126679960D03*
X-206938880Y-136839960D03*
X-199318880Y-124139960D03*
X-206938880Y-139379960D03*
X-199318880Y-121599960D03*
X-206938880Y-141919960D03*
X-199318880Y-119059960D03*
X-206938880Y-144459960D03*
X-199318880Y-116519960D03*
X-206938880Y-146999960D03*
X-199318880Y-113979960D03*
%TD*%
M02*
