%TF.GenerationSoftware,KiCad,Pcbnew,(5.1.9-0-10_14)*%
%TF.CreationDate,2021-02-14T15:56:36+00:00*%
%TF.ProjectId,solar_mux_1,736f6c61-725f-46d7-9578-5f312e6b6963,rev?*%
%TF.SameCoordinates,Original*%
%TF.FileFunction,Soldermask,Bot*%
%TF.FilePolarity,Negative*%
%FSLAX46Y46*%
G04 Gerber Fmt 4.6, Leading zero omitted, Abs format (unit mm)*
G04 Created by KiCad (PCBNEW (5.1.9-0-10_14)) date 2021-02-14 15:56:36*
%MOMM*%
%LPD*%
G01*
G04 APERTURE LIST*
%ADD10R,1.600000X1.600000*%
%ADD11C,1.600000*%
%ADD12R,1.700000X1.700000*%
%ADD13O,1.700000X1.700000*%
%ADD14O,1.600000X1.600000*%
G04 APERTURE END LIST*
D10*
%TO.C,C1*%
X-185039000Y-124079000D03*
D11*
X-185039000Y-121579000D03*
%TD*%
D12*
%TO.C,J1*%
X-219456000Y-162052000D03*
D13*
X-219456000Y-159512000D03*
X-219456000Y-156972000D03*
X-219456000Y-154432000D03*
X-219456000Y-151892000D03*
X-219456000Y-149352000D03*
X-219456000Y-146812000D03*
X-219456000Y-144272000D03*
X-219456000Y-141732000D03*
X-219456000Y-139192000D03*
X-219456000Y-136652000D03*
X-219456000Y-134112000D03*
X-219456000Y-131572000D03*
X-219456000Y-129032000D03*
%TD*%
D12*
%TO.C,J2*%
X-252272800Y-211378800D03*
D13*
X-252272800Y-208838800D03*
X-249732800Y-211378800D03*
X-249732800Y-208838800D03*
X-247192800Y-211378800D03*
X-247192800Y-208838800D03*
X-244652800Y-211378800D03*
X-244652800Y-208838800D03*
X-242112800Y-211378800D03*
X-242112800Y-208838800D03*
X-239572800Y-211378800D03*
X-239572800Y-208838800D03*
%TD*%
%TO.C,J3*%
X-244500400Y-100939600D03*
X-244500400Y-103479600D03*
X-247040400Y-100939600D03*
X-247040400Y-103479600D03*
X-249580400Y-100939600D03*
X-249580400Y-103479600D03*
X-252120400Y-100939600D03*
X-252120400Y-103479600D03*
X-254660400Y-100939600D03*
X-254660400Y-103479600D03*
X-257200400Y-100939600D03*
D12*
X-257200400Y-103479600D03*
%TD*%
D11*
%TO.C,R1*%
X-206883000Y-85725000D03*
D14*
X-222123000Y-85725000D03*
%TD*%
%TO.C,R2*%
X-213817200Y-181737000D03*
D11*
X-213817200Y-166497000D03*
%TD*%
D14*
%TO.C,R3*%
X-193929000Y-139954000D03*
D11*
X-193929000Y-124714000D03*
%TD*%
%TO.C,R4*%
X-203250800Y-197535800D03*
D14*
X-218490800Y-197535800D03*
%TD*%
%TO.C,U1*%
X-265176000Y-110236000D03*
X-257556000Y-115316000D03*
X-265176000Y-112776000D03*
X-257556000Y-112776000D03*
X-265176000Y-115316000D03*
D10*
X-257556000Y-110236000D03*
%TD*%
%TO.C,U2*%
X-257556000Y-121412000D03*
D14*
X-265176000Y-126492000D03*
X-257556000Y-123952000D03*
X-265176000Y-123952000D03*
X-257556000Y-126492000D03*
X-265176000Y-121412000D03*
%TD*%
%TO.C,U3*%
X-265303000Y-131699000D03*
X-257683000Y-136779000D03*
X-265303000Y-134239000D03*
X-257683000Y-134239000D03*
X-265303000Y-136779000D03*
D10*
X-257683000Y-131699000D03*
%TD*%
%TO.C,U4*%
X-257619500Y-143383000D03*
D14*
X-265239500Y-148463000D03*
X-257619500Y-145923000D03*
X-265239500Y-145923000D03*
X-257619500Y-148463000D03*
X-265239500Y-143383000D03*
%TD*%
%TO.C,U5*%
X-265430000Y-155003500D03*
X-257810000Y-160083500D03*
X-265430000Y-157543500D03*
X-257810000Y-157543500D03*
X-265430000Y-160083500D03*
D10*
X-257810000Y-155003500D03*
%TD*%
%TO.C,U6*%
X-257810000Y-165227000D03*
D14*
X-265430000Y-170307000D03*
X-257810000Y-167767000D03*
X-265430000Y-167767000D03*
X-257810000Y-170307000D03*
X-265430000Y-165227000D03*
%TD*%
D10*
%TO.C,U7*%
X-257810000Y-176657000D03*
D14*
X-265430000Y-181737000D03*
X-257810000Y-179197000D03*
X-265430000Y-179197000D03*
X-257810000Y-181737000D03*
X-265430000Y-176657000D03*
%TD*%
%TO.C,U10*%
X-265633200Y-188417200D03*
X-258013200Y-193497200D03*
X-265633200Y-190957200D03*
X-258013200Y-190957200D03*
X-265633200Y-193497200D03*
D10*
X-258013200Y-188417200D03*
%TD*%
D14*
%TO.C,U11*%
X-238252000Y-110236000D03*
X-245872000Y-115316000D03*
X-238252000Y-112776000D03*
X-245872000Y-112776000D03*
X-238252000Y-115316000D03*
D10*
X-245872000Y-110236000D03*
%TD*%
%TO.C,U12*%
X-245872000Y-121412000D03*
D14*
X-238252000Y-126492000D03*
X-245872000Y-123952000D03*
X-238252000Y-123952000D03*
X-245872000Y-126492000D03*
X-238252000Y-121412000D03*
%TD*%
%TO.C,U13*%
X-238252000Y-131826000D03*
X-245872000Y-136906000D03*
X-238252000Y-134366000D03*
X-245872000Y-134366000D03*
X-238252000Y-136906000D03*
D10*
X-245872000Y-131826000D03*
%TD*%
%TO.C,U14*%
X-245999000Y-143383000D03*
D14*
X-238379000Y-148463000D03*
X-245999000Y-145923000D03*
X-238379000Y-145923000D03*
X-245999000Y-148463000D03*
X-238379000Y-143383000D03*
%TD*%
%TO.C,U15*%
X-238442500Y-154940000D03*
X-246062500Y-160020000D03*
X-238442500Y-157480000D03*
X-246062500Y-157480000D03*
X-238442500Y-160020000D03*
D10*
X-246062500Y-154940000D03*
%TD*%
%TO.C,U16*%
X-246062500Y-165290500D03*
D14*
X-238442500Y-170370500D03*
X-246062500Y-167830500D03*
X-238442500Y-167830500D03*
X-246062500Y-170370500D03*
X-238442500Y-165290500D03*
%TD*%
D10*
%TO.C,U17*%
X-246227600Y-176733200D03*
D14*
X-238607600Y-181813200D03*
X-246227600Y-179273200D03*
X-238607600Y-179273200D03*
X-246227600Y-181813200D03*
X-238607600Y-176733200D03*
%TD*%
%TO.C,U20*%
X-238607600Y-188366400D03*
X-246227600Y-193446400D03*
X-238607600Y-190906400D03*
X-246227600Y-190906400D03*
X-238607600Y-193446400D03*
D10*
X-246227600Y-188366400D03*
%TD*%
%TO.C,U21*%
X-249783600Y-196265800D03*
D14*
X-254863600Y-203885800D03*
X-252323600Y-196265800D03*
X-252323600Y-203885800D03*
X-254863600Y-196265800D03*
X-249783600Y-203885800D03*
%TD*%
D10*
%TO.C,U22*%
X-206938880Y-113979960D03*
D14*
X-199318880Y-146999960D03*
X-206938880Y-116519960D03*
X-199318880Y-144459960D03*
X-206938880Y-119059960D03*
X-199318880Y-141919960D03*
X-206938880Y-121599960D03*
X-199318880Y-139379960D03*
X-206938880Y-124139960D03*
X-199318880Y-136839960D03*
X-206938880Y-126679960D03*
X-199318880Y-134299960D03*
X-206938880Y-129219960D03*
X-199318880Y-131759960D03*
X-206938880Y-131759960D03*
X-199318880Y-129219960D03*
X-206938880Y-134299960D03*
X-199318880Y-126679960D03*
X-206938880Y-136839960D03*
X-199318880Y-124139960D03*
X-206938880Y-139379960D03*
X-199318880Y-121599960D03*
X-206938880Y-141919960D03*
X-199318880Y-119059960D03*
X-206938880Y-144459960D03*
X-199318880Y-116519960D03*
X-206938880Y-146999960D03*
X-199318880Y-113979960D03*
%TD*%
M02*
