%TF.GenerationSoftware,KiCad,Pcbnew,(5.1.9-0-10_14)*%
%TF.CreationDate,2021-02-14T15:56:36+00:00*%
%TF.ProjectId,solar_mux_1,736f6c61-725f-46d7-9578-5f312e6b6963,rev?*%
%TF.SameCoordinates,Original*%
%TF.FileFunction,Copper,L1,Top*%
%TF.FilePolarity,Positive*%
%FSLAX46Y46*%
G04 Gerber Fmt 4.6, Leading zero omitted, Abs format (unit mm)*
G04 Created by KiCad (PCBNEW (5.1.9-0-10_14)) date 2021-02-14 15:56:36*
%MOMM*%
%LPD*%
G01*
G04 APERTURE LIST*
%TA.AperFunction,ComponentPad*%
%ADD10R,1.600000X1.600000*%
%TD*%
%TA.AperFunction,ComponentPad*%
%ADD11C,1.600000*%
%TD*%
%TA.AperFunction,ComponentPad*%
%ADD12R,1.700000X1.700000*%
%TD*%
%TA.AperFunction,ComponentPad*%
%ADD13O,1.700000X1.700000*%
%TD*%
%TA.AperFunction,SMDPad,CuDef*%
%ADD14C,0.100000*%
%TD*%
%TA.AperFunction,SMDPad,CuDef*%
%ADD15R,1.500000X1.000000*%
%TD*%
%TA.AperFunction,SMDPad,CuDef*%
%ADD16R,1.000000X1.500000*%
%TD*%
%TA.AperFunction,ComponentPad*%
%ADD17O,1.600000X1.600000*%
%TD*%
%TA.AperFunction,SMDPad,CuDef*%
%ADD18R,0.900000X0.900000*%
%TD*%
%TA.AperFunction,SMDPad,CuDef*%
%ADD19R,2.500000X2.500000*%
%TD*%
%TA.AperFunction,Conductor*%
%ADD20C,0.250000*%
%TD*%
G04 APERTURE END LIST*
D10*
%TO.P,C1,1*%
%TO.N,+5V*%
X-185039000Y-124079000D03*
D11*
%TO.P,C1,2*%
%TO.N,GND*%
X-185039000Y-121579000D03*
%TD*%
D12*
%TO.P,J1,1*%
%TO.N,+5V*%
X-219456000Y-162052000D03*
D13*
%TO.P,J1,2*%
%TO.N,+3V3*%
X-219456000Y-159512000D03*
%TO.P,J1,3*%
%TO.N,V_D*%
X-219456000Y-156972000D03*
%TO.P,J1,4*%
%TO.N,SDA*%
X-219456000Y-154432000D03*
%TO.P,J1,5*%
%TO.N,SCL*%
X-219456000Y-151892000D03*
%TO.P,J1,6*%
%TO.N,Net-(J1-Pad6)*%
X-219456000Y-149352000D03*
%TO.P,J1,7*%
%TO.N,MISO*%
X-219456000Y-146812000D03*
%TO.P,J1,8*%
%TO.N,MOSI*%
X-219456000Y-144272000D03*
%TO.P,J1,9*%
%TO.N,SCK*%
X-219456000Y-141732000D03*
%TO.P,J1,10*%
%TO.N,GND*%
X-219456000Y-139192000D03*
%TO.P,J1,11*%
%TO.N,I+*%
X-219456000Y-136652000D03*
%TO.P,J1,12*%
%TO.N,V+*%
X-219456000Y-134112000D03*
%TO.P,J1,13*%
%TO.N,V-*%
X-219456000Y-131572000D03*
%TO.P,J1,14*%
%TO.N,I-*%
X-219456000Y-129032000D03*
%TD*%
D12*
%TO.P,J2,1*%
%TO.N,/I4*%
X-252272800Y-211378800D03*
D13*
%TO.P,J2,2*%
%TO.N,/RSense*%
X-252272800Y-208838800D03*
%TO.P,J2,3*%
%TO.N,/V4*%
X-249732800Y-211378800D03*
%TO.P,J2,4*%
%TO.N,Net-(J2-Pad4)*%
X-249732800Y-208838800D03*
%TO.P,J2,5*%
%TO.N,/I5*%
X-247192800Y-211378800D03*
%TO.P,J2,6*%
%TO.N,/VB*%
X-247192800Y-208838800D03*
%TO.P,J2,7*%
%TO.N,/V5*%
X-244652800Y-211378800D03*
%TO.P,J2,8*%
%TO.N,/IB*%
X-244652800Y-208838800D03*
%TO.P,J2,9*%
%TO.N,/I6*%
X-242112800Y-211378800D03*
%TO.P,J2,10*%
%TO.N,Net-(J2-Pad10)*%
X-242112800Y-208838800D03*
%TO.P,J2,11*%
%TO.N,/V6*%
X-239572800Y-211378800D03*
%TO.P,J2,12*%
%TO.N,Net-(J2-Pad12)*%
X-239572800Y-208838800D03*
%TD*%
%TO.P,J3,12*%
%TO.N,/V3*%
X-244500400Y-100939600D03*
%TO.P,J3,11*%
%TO.N,Net-(J3-Pad11)*%
X-244500400Y-103479600D03*
%TO.P,J3,10*%
%TO.N,/I3*%
X-247040400Y-100939600D03*
%TO.P,J3,9*%
%TO.N,Net-(J3-Pad9)*%
X-247040400Y-103479600D03*
%TO.P,J3,8*%
%TO.N,/V2*%
X-249580400Y-100939600D03*
%TO.P,J3,7*%
%TO.N,/IT*%
X-249580400Y-103479600D03*
%TO.P,J3,6*%
%TO.N,/I2*%
X-252120400Y-100939600D03*
%TO.P,J3,5*%
%TO.N,/VT*%
X-252120400Y-103479600D03*
%TO.P,J3,4*%
%TO.N,/V1*%
X-254660400Y-100939600D03*
%TO.P,J3,3*%
%TO.N,GND*%
X-254660400Y-103479600D03*
%TO.P,J3,2*%
%TO.N,/I1*%
X-257200400Y-100939600D03*
D12*
%TO.P,J3,1*%
%TO.N,GND*%
X-257200400Y-103479600D03*
%TD*%
%TA.AperFunction,SMDPad,CuDef*%
D14*
%TO.P,JP1,1*%
%TO.N,~CS*%
G36*
X-190858000Y-159752600D02*
G01*
X-190358000Y-159752600D01*
X-190358000Y-159753202D01*
X-190333466Y-159753202D01*
X-190284635Y-159758012D01*
X-190236510Y-159767584D01*
X-190189555Y-159781828D01*
X-190144222Y-159800605D01*
X-190100949Y-159823736D01*
X-190060150Y-159850996D01*
X-190022221Y-159882124D01*
X-189987524Y-159916821D01*
X-189956396Y-159954750D01*
X-189929136Y-159995549D01*
X-189906005Y-160038822D01*
X-189887228Y-160084155D01*
X-189872984Y-160131110D01*
X-189863412Y-160179235D01*
X-189858602Y-160228066D01*
X-189858602Y-160252600D01*
X-189858000Y-160252600D01*
X-189858000Y-160752600D01*
X-189858602Y-160752600D01*
X-189858602Y-160777134D01*
X-189863412Y-160825965D01*
X-189872984Y-160874090D01*
X-189887228Y-160921045D01*
X-189906005Y-160966378D01*
X-189929136Y-161009651D01*
X-189956396Y-161050450D01*
X-189987524Y-161088379D01*
X-190022221Y-161123076D01*
X-190060150Y-161154204D01*
X-190100949Y-161181464D01*
X-190144222Y-161204595D01*
X-190189555Y-161223372D01*
X-190236510Y-161237616D01*
X-190284635Y-161247188D01*
X-190333466Y-161251998D01*
X-190358000Y-161251998D01*
X-190358000Y-161252600D01*
X-190858000Y-161252600D01*
X-190858000Y-159752600D01*
G37*
%TD.AperFunction*%
%TA.AperFunction,SMDPad,CuDef*%
%TO.P,JP1,2*%
%TO.N,Net-(J1-Pad6)*%
G36*
X-191658000Y-161251998D02*
G01*
X-191682534Y-161251998D01*
X-191731365Y-161247188D01*
X-191779490Y-161237616D01*
X-191826445Y-161223372D01*
X-191871778Y-161204595D01*
X-191915051Y-161181464D01*
X-191955850Y-161154204D01*
X-191993779Y-161123076D01*
X-192028476Y-161088379D01*
X-192059604Y-161050450D01*
X-192086864Y-161009651D01*
X-192109995Y-160966378D01*
X-192128772Y-160921045D01*
X-192143016Y-160874090D01*
X-192152588Y-160825965D01*
X-192157398Y-160777134D01*
X-192157398Y-160752600D01*
X-192158000Y-160752600D01*
X-192158000Y-160252600D01*
X-192157398Y-160252600D01*
X-192157398Y-160228066D01*
X-192152588Y-160179235D01*
X-192143016Y-160131110D01*
X-192128772Y-160084155D01*
X-192109995Y-160038822D01*
X-192086864Y-159995549D01*
X-192059604Y-159954750D01*
X-192028476Y-159916821D01*
X-191993779Y-159882124D01*
X-191955850Y-159850996D01*
X-191915051Y-159823736D01*
X-191871778Y-159800605D01*
X-191826445Y-159781828D01*
X-191779490Y-159767584D01*
X-191731365Y-159758012D01*
X-191682534Y-159753202D01*
X-191658000Y-159753202D01*
X-191658000Y-159752600D01*
X-191158000Y-159752600D01*
X-191158000Y-161252600D01*
X-191658000Y-161252600D01*
X-191658000Y-161251998D01*
G37*
%TD.AperFunction*%
%TD*%
D15*
%TO.P,JP2,2*%
%TO.N,A0*%
X-177800000Y-141732000D03*
%TA.AperFunction,SMDPad,CuDef*%
D14*
%TO.P,JP2,3*%
%TO.N,GND*%
G36*
X-178549398Y-140432000D02*
G01*
X-178549398Y-140407466D01*
X-178544588Y-140358635D01*
X-178535016Y-140310510D01*
X-178520772Y-140263555D01*
X-178501995Y-140218222D01*
X-178478864Y-140174949D01*
X-178451604Y-140134150D01*
X-178420476Y-140096221D01*
X-178385779Y-140061524D01*
X-178347850Y-140030396D01*
X-178307051Y-140003136D01*
X-178263778Y-139980005D01*
X-178218445Y-139961228D01*
X-178171490Y-139946984D01*
X-178123365Y-139937412D01*
X-178074534Y-139932602D01*
X-178050000Y-139932602D01*
X-178050000Y-139932000D01*
X-177550000Y-139932000D01*
X-177550000Y-139932602D01*
X-177525466Y-139932602D01*
X-177476635Y-139937412D01*
X-177428510Y-139946984D01*
X-177381555Y-139961228D01*
X-177336222Y-139980005D01*
X-177292949Y-140003136D01*
X-177252150Y-140030396D01*
X-177214221Y-140061524D01*
X-177179524Y-140096221D01*
X-177148396Y-140134150D01*
X-177121136Y-140174949D01*
X-177098005Y-140218222D01*
X-177079228Y-140263555D01*
X-177064984Y-140310510D01*
X-177055412Y-140358635D01*
X-177050602Y-140407466D01*
X-177050602Y-140432000D01*
X-177050000Y-140432000D01*
X-177050000Y-140982000D01*
X-178550000Y-140982000D01*
X-178550000Y-140432000D01*
X-178549398Y-140432000D01*
G37*
%TD.AperFunction*%
%TA.AperFunction,SMDPad,CuDef*%
%TO.P,JP2,1*%
%TO.N,+5V*%
G36*
X-177050000Y-142482000D02*
G01*
X-177050000Y-143032000D01*
X-177050602Y-143032000D01*
X-177050602Y-143056534D01*
X-177055412Y-143105365D01*
X-177064984Y-143153490D01*
X-177079228Y-143200445D01*
X-177098005Y-143245778D01*
X-177121136Y-143289051D01*
X-177148396Y-143329850D01*
X-177179524Y-143367779D01*
X-177214221Y-143402476D01*
X-177252150Y-143433604D01*
X-177292949Y-143460864D01*
X-177336222Y-143483995D01*
X-177381555Y-143502772D01*
X-177428510Y-143517016D01*
X-177476635Y-143526588D01*
X-177525466Y-143531398D01*
X-177550000Y-143531398D01*
X-177550000Y-143532000D01*
X-178050000Y-143532000D01*
X-178050000Y-143531398D01*
X-178074534Y-143531398D01*
X-178123365Y-143526588D01*
X-178171490Y-143517016D01*
X-178218445Y-143502772D01*
X-178263778Y-143483995D01*
X-178307051Y-143460864D01*
X-178347850Y-143433604D01*
X-178385779Y-143402476D01*
X-178420476Y-143367779D01*
X-178451604Y-143329850D01*
X-178478864Y-143289051D01*
X-178501995Y-143245778D01*
X-178520772Y-143200445D01*
X-178535016Y-143153490D01*
X-178544588Y-143105365D01*
X-178549398Y-143056534D01*
X-178549398Y-143032000D01*
X-178550000Y-143032000D01*
X-178550000Y-142482000D01*
X-177050000Y-142482000D01*
G37*
%TD.AperFunction*%
%TD*%
%TA.AperFunction,SMDPad,CuDef*%
%TO.P,JP3,1*%
%TO.N,+5V*%
G36*
X-187694000Y-143522000D02*
G01*
X-187694000Y-142972000D01*
X-187693398Y-142972000D01*
X-187693398Y-142947466D01*
X-187688588Y-142898635D01*
X-187679016Y-142850510D01*
X-187664772Y-142803555D01*
X-187645995Y-142758222D01*
X-187622864Y-142714949D01*
X-187595604Y-142674150D01*
X-187564476Y-142636221D01*
X-187529779Y-142601524D01*
X-187491850Y-142570396D01*
X-187451051Y-142543136D01*
X-187407778Y-142520005D01*
X-187362445Y-142501228D01*
X-187315490Y-142486984D01*
X-187267365Y-142477412D01*
X-187218534Y-142472602D01*
X-187194000Y-142472602D01*
X-187194000Y-142472000D01*
X-186694000Y-142472000D01*
X-186694000Y-142472602D01*
X-186669466Y-142472602D01*
X-186620635Y-142477412D01*
X-186572510Y-142486984D01*
X-186525555Y-142501228D01*
X-186480222Y-142520005D01*
X-186436949Y-142543136D01*
X-186396150Y-142570396D01*
X-186358221Y-142601524D01*
X-186323524Y-142636221D01*
X-186292396Y-142674150D01*
X-186265136Y-142714949D01*
X-186242005Y-142758222D01*
X-186223228Y-142803555D01*
X-186208984Y-142850510D01*
X-186199412Y-142898635D01*
X-186194602Y-142947466D01*
X-186194602Y-142972000D01*
X-186194000Y-142972000D01*
X-186194000Y-143522000D01*
X-187694000Y-143522000D01*
G37*
%TD.AperFunction*%
%TA.AperFunction,SMDPad,CuDef*%
%TO.P,JP3,3*%
%TO.N,GND*%
G36*
X-186194602Y-145572000D02*
G01*
X-186194602Y-145596534D01*
X-186199412Y-145645365D01*
X-186208984Y-145693490D01*
X-186223228Y-145740445D01*
X-186242005Y-145785778D01*
X-186265136Y-145829051D01*
X-186292396Y-145869850D01*
X-186323524Y-145907779D01*
X-186358221Y-145942476D01*
X-186396150Y-145973604D01*
X-186436949Y-146000864D01*
X-186480222Y-146023995D01*
X-186525555Y-146042772D01*
X-186572510Y-146057016D01*
X-186620635Y-146066588D01*
X-186669466Y-146071398D01*
X-186694000Y-146071398D01*
X-186694000Y-146072000D01*
X-187194000Y-146072000D01*
X-187194000Y-146071398D01*
X-187218534Y-146071398D01*
X-187267365Y-146066588D01*
X-187315490Y-146057016D01*
X-187362445Y-146042772D01*
X-187407778Y-146023995D01*
X-187451051Y-146000864D01*
X-187491850Y-145973604D01*
X-187529779Y-145942476D01*
X-187564476Y-145907779D01*
X-187595604Y-145869850D01*
X-187622864Y-145829051D01*
X-187645995Y-145785778D01*
X-187664772Y-145740445D01*
X-187679016Y-145693490D01*
X-187688588Y-145645365D01*
X-187693398Y-145596534D01*
X-187693398Y-145572000D01*
X-187694000Y-145572000D01*
X-187694000Y-145022000D01*
X-186194000Y-145022000D01*
X-186194000Y-145572000D01*
X-186194602Y-145572000D01*
G37*
%TD.AperFunction*%
D15*
%TO.P,JP3,2*%
%TO.N,A1*%
X-186944000Y-144272000D03*
%TD*%
%TO.P,JP4,2*%
%TO.N,A2*%
X-182880000Y-141732000D03*
%TA.AperFunction,SMDPad,CuDef*%
D14*
%TO.P,JP4,3*%
%TO.N,GND*%
G36*
X-183629398Y-140432000D02*
G01*
X-183629398Y-140407466D01*
X-183624588Y-140358635D01*
X-183615016Y-140310510D01*
X-183600772Y-140263555D01*
X-183581995Y-140218222D01*
X-183558864Y-140174949D01*
X-183531604Y-140134150D01*
X-183500476Y-140096221D01*
X-183465779Y-140061524D01*
X-183427850Y-140030396D01*
X-183387051Y-140003136D01*
X-183343778Y-139980005D01*
X-183298445Y-139961228D01*
X-183251490Y-139946984D01*
X-183203365Y-139937412D01*
X-183154534Y-139932602D01*
X-183130000Y-139932602D01*
X-183130000Y-139932000D01*
X-182630000Y-139932000D01*
X-182630000Y-139932602D01*
X-182605466Y-139932602D01*
X-182556635Y-139937412D01*
X-182508510Y-139946984D01*
X-182461555Y-139961228D01*
X-182416222Y-139980005D01*
X-182372949Y-140003136D01*
X-182332150Y-140030396D01*
X-182294221Y-140061524D01*
X-182259524Y-140096221D01*
X-182228396Y-140134150D01*
X-182201136Y-140174949D01*
X-182178005Y-140218222D01*
X-182159228Y-140263555D01*
X-182144984Y-140310510D01*
X-182135412Y-140358635D01*
X-182130602Y-140407466D01*
X-182130602Y-140432000D01*
X-182130000Y-140432000D01*
X-182130000Y-140982000D01*
X-183630000Y-140982000D01*
X-183630000Y-140432000D01*
X-183629398Y-140432000D01*
G37*
%TD.AperFunction*%
%TA.AperFunction,SMDPad,CuDef*%
%TO.P,JP4,1*%
%TO.N,+5V*%
G36*
X-182130000Y-142482000D02*
G01*
X-182130000Y-143032000D01*
X-182130602Y-143032000D01*
X-182130602Y-143056534D01*
X-182135412Y-143105365D01*
X-182144984Y-143153490D01*
X-182159228Y-143200445D01*
X-182178005Y-143245778D01*
X-182201136Y-143289051D01*
X-182228396Y-143329850D01*
X-182259524Y-143367779D01*
X-182294221Y-143402476D01*
X-182332150Y-143433604D01*
X-182372949Y-143460864D01*
X-182416222Y-143483995D01*
X-182461555Y-143502772D01*
X-182508510Y-143517016D01*
X-182556635Y-143526588D01*
X-182605466Y-143531398D01*
X-182630000Y-143531398D01*
X-182630000Y-143532000D01*
X-183130000Y-143532000D01*
X-183130000Y-143531398D01*
X-183154534Y-143531398D01*
X-183203365Y-143526588D01*
X-183251490Y-143517016D01*
X-183298445Y-143502772D01*
X-183343778Y-143483995D01*
X-183387051Y-143460864D01*
X-183427850Y-143433604D01*
X-183465779Y-143402476D01*
X-183500476Y-143367779D01*
X-183531604Y-143329850D01*
X-183558864Y-143289051D01*
X-183581995Y-143245778D01*
X-183600772Y-143200445D01*
X-183615016Y-143153490D01*
X-183624588Y-143105365D01*
X-183629398Y-143056534D01*
X-183629398Y-143032000D01*
X-183630000Y-143032000D01*
X-183630000Y-142482000D01*
X-182130000Y-142482000D01*
G37*
%TD.AperFunction*%
%TD*%
%TA.AperFunction,SMDPad,CuDef*%
%TO.P,JP5,1*%
%TO.N,+5V*%
G36*
X-188759400Y-154215400D02*
G01*
X-188209400Y-154215400D01*
X-188209400Y-154216002D01*
X-188184866Y-154216002D01*
X-188136035Y-154220812D01*
X-188087910Y-154230384D01*
X-188040955Y-154244628D01*
X-187995622Y-154263405D01*
X-187952349Y-154286536D01*
X-187911550Y-154313796D01*
X-187873621Y-154344924D01*
X-187838924Y-154379621D01*
X-187807796Y-154417550D01*
X-187780536Y-154458349D01*
X-187757405Y-154501622D01*
X-187738628Y-154546955D01*
X-187724384Y-154593910D01*
X-187714812Y-154642035D01*
X-187710002Y-154690866D01*
X-187710002Y-154715400D01*
X-187709400Y-154715400D01*
X-187709400Y-155215400D01*
X-187710002Y-155215400D01*
X-187710002Y-155239934D01*
X-187714812Y-155288765D01*
X-187724384Y-155336890D01*
X-187738628Y-155383845D01*
X-187757405Y-155429178D01*
X-187780536Y-155472451D01*
X-187807796Y-155513250D01*
X-187838924Y-155551179D01*
X-187873621Y-155585876D01*
X-187911550Y-155617004D01*
X-187952349Y-155644264D01*
X-187995622Y-155667395D01*
X-188040955Y-155686172D01*
X-188087910Y-155700416D01*
X-188136035Y-155709988D01*
X-188184866Y-155714798D01*
X-188209400Y-155714798D01*
X-188209400Y-155715400D01*
X-188759400Y-155715400D01*
X-188759400Y-154215400D01*
G37*
%TD.AperFunction*%
%TA.AperFunction,SMDPad,CuDef*%
%TO.P,JP5,3*%
%TO.N,GND*%
G36*
X-190809400Y-155714798D02*
G01*
X-190833934Y-155714798D01*
X-190882765Y-155709988D01*
X-190930890Y-155700416D01*
X-190977845Y-155686172D01*
X-191023178Y-155667395D01*
X-191066451Y-155644264D01*
X-191107250Y-155617004D01*
X-191145179Y-155585876D01*
X-191179876Y-155551179D01*
X-191211004Y-155513250D01*
X-191238264Y-155472451D01*
X-191261395Y-155429178D01*
X-191280172Y-155383845D01*
X-191294416Y-155336890D01*
X-191303988Y-155288765D01*
X-191308798Y-155239934D01*
X-191308798Y-155215400D01*
X-191309400Y-155215400D01*
X-191309400Y-154715400D01*
X-191308798Y-154715400D01*
X-191308798Y-154690866D01*
X-191303988Y-154642035D01*
X-191294416Y-154593910D01*
X-191280172Y-154546955D01*
X-191261395Y-154501622D01*
X-191238264Y-154458349D01*
X-191211004Y-154417550D01*
X-191179876Y-154379621D01*
X-191145179Y-154344924D01*
X-191107250Y-154313796D01*
X-191066451Y-154286536D01*
X-191023178Y-154263405D01*
X-190977845Y-154244628D01*
X-190930890Y-154230384D01*
X-190882765Y-154220812D01*
X-190833934Y-154216002D01*
X-190809400Y-154216002D01*
X-190809400Y-154215400D01*
X-190259400Y-154215400D01*
X-190259400Y-155715400D01*
X-190809400Y-155715400D01*
X-190809400Y-155714798D01*
G37*
%TD.AperFunction*%
D16*
%TO.P,JP5,2*%
%TO.N,~CS*%
X-189509400Y-154965400D03*
%TD*%
D11*
%TO.P,R1,1*%
%TO.N,Net-(R1-Pad1)*%
X-206883000Y-85725000D03*
D17*
%TO.P,R1,2*%
%TO.N,/TOP*%
X-222123000Y-85725000D03*
%TD*%
%TO.P,R2,2*%
%TO.N,/BOT*%
X-213817200Y-181737000D03*
D11*
%TO.P,R2,1*%
%TO.N,Net-(R2-Pad1)*%
X-213817200Y-166497000D03*
%TD*%
D17*
%TO.P,R3,2*%
%TO.N,Net-(R3-Pad2)*%
X-193929000Y-139954000D03*
D11*
%TO.P,R3,1*%
%TO.N,+5V*%
X-193929000Y-124714000D03*
%TD*%
%TO.P,R4,1*%
%TO.N,Net-(R4-Pad1)*%
X-203250800Y-197535800D03*
D17*
%TO.P,R4,2*%
%TO.N,/V_D_EN*%
X-218490800Y-197535800D03*
%TD*%
D18*
%TO.P,RN1,6*%
%TO.N,Net-(RN1-Pad6)*%
X-212749000Y-128549000D03*
%TO.P,RN1,5*%
%TO.N,Net-(RN1-Pad5)*%
X-212749000Y-129889000D03*
%TO.P,RN1,8*%
%TO.N,Net-(RN1-Pad8)*%
X-212749000Y-125889000D03*
%TO.P,RN1,7*%
%TO.N,Net-(RN1-Pad7)*%
X-212749000Y-127229000D03*
%TO.P,RN1,3*%
%TO.N,Net-(RN1-Pad3)*%
X-215749000Y-128549000D03*
%TO.P,RN1,2*%
%TO.N,/P6*%
X-215749000Y-127229000D03*
%TO.P,RN1,4*%
%TO.N,Net-(RN1-Pad4)*%
X-215749000Y-129889000D03*
%TO.P,RN1,1*%
%TO.N,/P5*%
X-215749000Y-125889000D03*
%TD*%
%TO.P,RN4,1*%
%TO.N,Net-(RN4-Pad1)*%
X-215118820Y-119337840D03*
%TO.P,RN4,4*%
%TO.N,Net-(RN4-Pad4)*%
X-215118820Y-115337840D03*
%TO.P,RN4,2*%
%TO.N,Net-(RN4-Pad2)*%
X-215118820Y-117997840D03*
%TO.P,RN4,3*%
%TO.N,Net-(RN4-Pad3)*%
X-215118820Y-116677840D03*
%TO.P,RN4,7*%
%TO.N,/P3*%
X-218118820Y-117997840D03*
%TO.P,RN4,8*%
%TO.N,/P4*%
X-218118820Y-119337840D03*
%TO.P,RN4,5*%
%TO.N,/P1*%
X-218118820Y-115337840D03*
%TO.P,RN4,6*%
%TO.N,/P2*%
X-218118820Y-116677840D03*
%TD*%
D19*
%TO.P,TP1,1*%
%TO.N,GND*%
X-175768000Y-135128000D03*
%TD*%
D17*
%TO.P,U1,6*%
%TO.N,/VT*%
X-265176000Y-110236000D03*
%TO.P,U1,3*%
%TO.N,Net-(U1-Pad3)*%
X-257556000Y-115316000D03*
%TO.P,U1,5*%
%TO.N,Net-(U1-Pad5)*%
X-265176000Y-112776000D03*
%TO.P,U1,2*%
%TO.N,GND*%
X-257556000Y-112776000D03*
%TO.P,U1,4*%
%TO.N,V-*%
X-265176000Y-115316000D03*
D10*
%TO.P,U1,1*%
%TO.N,/TOP*%
X-257556000Y-110236000D03*
%TD*%
%TO.P,U2,1*%
%TO.N,/P1*%
X-257556000Y-121412000D03*
D17*
%TO.P,U2,4*%
%TO.N,V+*%
X-265176000Y-126492000D03*
%TO.P,U2,2*%
%TO.N,GND*%
X-257556000Y-123952000D03*
%TO.P,U2,5*%
%TO.N,Net-(U2-Pad5)*%
X-265176000Y-123952000D03*
%TO.P,U2,3*%
%TO.N,Net-(U2-Pad3)*%
X-257556000Y-126492000D03*
%TO.P,U2,6*%
%TO.N,/V1*%
X-265176000Y-121412000D03*
%TD*%
%TO.P,U3,6*%
%TO.N,/V2*%
X-265303000Y-131699000D03*
%TO.P,U3,3*%
%TO.N,Net-(U3-Pad3)*%
X-257683000Y-136779000D03*
%TO.P,U3,5*%
%TO.N,Net-(U3-Pad5)*%
X-265303000Y-134239000D03*
%TO.P,U3,2*%
%TO.N,GND*%
X-257683000Y-134239000D03*
%TO.P,U3,4*%
%TO.N,V+*%
X-265303000Y-136779000D03*
D10*
%TO.P,U3,1*%
%TO.N,/P2*%
X-257683000Y-131699000D03*
%TD*%
%TO.P,U4,1*%
%TO.N,/P3*%
X-257619500Y-143383000D03*
D17*
%TO.P,U4,4*%
%TO.N,V+*%
X-265239500Y-148463000D03*
%TO.P,U4,2*%
%TO.N,GND*%
X-257619500Y-145923000D03*
%TO.P,U4,5*%
%TO.N,Net-(U4-Pad5)*%
X-265239500Y-145923000D03*
%TO.P,U4,3*%
%TO.N,Net-(U4-Pad3)*%
X-257619500Y-148463000D03*
%TO.P,U4,6*%
%TO.N,/V3*%
X-265239500Y-143383000D03*
%TD*%
%TO.P,U5,6*%
%TO.N,/V4*%
X-265430000Y-155003500D03*
%TO.P,U5,3*%
%TO.N,Net-(U5-Pad3)*%
X-257810000Y-160083500D03*
%TO.P,U5,5*%
%TO.N,Net-(U5-Pad5)*%
X-265430000Y-157543500D03*
%TO.P,U5,2*%
%TO.N,GND*%
X-257810000Y-157543500D03*
%TO.P,U5,4*%
%TO.N,V+*%
X-265430000Y-160083500D03*
D10*
%TO.P,U5,1*%
%TO.N,/P4*%
X-257810000Y-155003500D03*
%TD*%
%TO.P,U6,1*%
%TO.N,/P5*%
X-257810000Y-165227000D03*
D17*
%TO.P,U6,4*%
%TO.N,V+*%
X-265430000Y-170307000D03*
%TO.P,U6,2*%
%TO.N,GND*%
X-257810000Y-167767000D03*
%TO.P,U6,5*%
%TO.N,Net-(U6-Pad5)*%
X-265430000Y-167767000D03*
%TO.P,U6,3*%
%TO.N,Net-(U6-Pad3)*%
X-257810000Y-170307000D03*
%TO.P,U6,6*%
%TO.N,/V5*%
X-265430000Y-165227000D03*
%TD*%
D10*
%TO.P,U7,1*%
%TO.N,/P6*%
X-257810000Y-176657000D03*
D17*
%TO.P,U7,4*%
%TO.N,V+*%
X-265430000Y-181737000D03*
%TO.P,U7,2*%
%TO.N,GND*%
X-257810000Y-179197000D03*
%TO.P,U7,5*%
%TO.N,Net-(U7-Pad5)*%
X-265430000Y-179197000D03*
%TO.P,U7,3*%
%TO.N,Net-(U7-Pad3)*%
X-257810000Y-181737000D03*
%TO.P,U7,6*%
%TO.N,/V6*%
X-265430000Y-176657000D03*
%TD*%
%TO.P,U10,6*%
%TO.N,/VB*%
X-265633200Y-188417200D03*
%TO.P,U10,3*%
%TO.N,Net-(U10-Pad3)*%
X-258013200Y-193497200D03*
%TO.P,U10,5*%
%TO.N,Net-(U10-Pad5)*%
X-265633200Y-190957200D03*
%TO.P,U10,2*%
%TO.N,GND*%
X-258013200Y-190957200D03*
%TO.P,U10,4*%
%TO.N,V-*%
X-265633200Y-193497200D03*
D10*
%TO.P,U10,1*%
%TO.N,/BOT*%
X-258013200Y-188417200D03*
%TD*%
D17*
%TO.P,U11,6*%
%TO.N,/IT*%
X-238252000Y-110236000D03*
%TO.P,U11,3*%
%TO.N,Net-(U11-Pad3)*%
X-245872000Y-115316000D03*
%TO.P,U11,5*%
%TO.N,Net-(U11-Pad5)*%
X-238252000Y-112776000D03*
%TO.P,U11,2*%
%TO.N,GND*%
X-245872000Y-112776000D03*
%TO.P,U11,4*%
%TO.N,I-*%
X-238252000Y-115316000D03*
D10*
%TO.P,U11,1*%
%TO.N,/TOP*%
X-245872000Y-110236000D03*
%TD*%
%TO.P,U12,1*%
%TO.N,/P1*%
X-245872000Y-121412000D03*
D17*
%TO.P,U12,4*%
%TO.N,I+*%
X-238252000Y-126492000D03*
%TO.P,U12,2*%
%TO.N,GND*%
X-245872000Y-123952000D03*
%TO.P,U12,5*%
%TO.N,Net-(U12-Pad5)*%
X-238252000Y-123952000D03*
%TO.P,U12,3*%
%TO.N,Net-(U12-Pad3)*%
X-245872000Y-126492000D03*
%TO.P,U12,6*%
%TO.N,/I1*%
X-238252000Y-121412000D03*
%TD*%
%TO.P,U13,6*%
%TO.N,/I2*%
X-238252000Y-131826000D03*
%TO.P,U13,3*%
%TO.N,Net-(U13-Pad3)*%
X-245872000Y-136906000D03*
%TO.P,U13,5*%
%TO.N,Net-(U13-Pad5)*%
X-238252000Y-134366000D03*
%TO.P,U13,2*%
%TO.N,GND*%
X-245872000Y-134366000D03*
%TO.P,U13,4*%
%TO.N,I+*%
X-238252000Y-136906000D03*
D10*
%TO.P,U13,1*%
%TO.N,/P2*%
X-245872000Y-131826000D03*
%TD*%
%TO.P,U14,1*%
%TO.N,/P3*%
X-245999000Y-143383000D03*
D17*
%TO.P,U14,4*%
%TO.N,I+*%
X-238379000Y-148463000D03*
%TO.P,U14,2*%
%TO.N,GND*%
X-245999000Y-145923000D03*
%TO.P,U14,5*%
%TO.N,Net-(U14-Pad5)*%
X-238379000Y-145923000D03*
%TO.P,U14,3*%
%TO.N,Net-(U14-Pad3)*%
X-245999000Y-148463000D03*
%TO.P,U14,6*%
%TO.N,/I3*%
X-238379000Y-143383000D03*
%TD*%
%TO.P,U15,6*%
%TO.N,/I4*%
X-238442500Y-154940000D03*
%TO.P,U15,3*%
%TO.N,Net-(U15-Pad3)*%
X-246062500Y-160020000D03*
%TO.P,U15,5*%
%TO.N,Net-(U15-Pad5)*%
X-238442500Y-157480000D03*
%TO.P,U15,2*%
%TO.N,GND*%
X-246062500Y-157480000D03*
%TO.P,U15,4*%
%TO.N,I+*%
X-238442500Y-160020000D03*
D10*
%TO.P,U15,1*%
%TO.N,/P4*%
X-246062500Y-154940000D03*
%TD*%
%TO.P,U16,1*%
%TO.N,/P5*%
X-246062500Y-165290500D03*
D17*
%TO.P,U16,4*%
%TO.N,I+*%
X-238442500Y-170370500D03*
%TO.P,U16,2*%
%TO.N,GND*%
X-246062500Y-167830500D03*
%TO.P,U16,5*%
%TO.N,Net-(U16-Pad5)*%
X-238442500Y-167830500D03*
%TO.P,U16,3*%
%TO.N,Net-(U16-Pad3)*%
X-246062500Y-170370500D03*
%TO.P,U16,6*%
%TO.N,/I5*%
X-238442500Y-165290500D03*
%TD*%
D10*
%TO.P,U17,1*%
%TO.N,/P6*%
X-246227600Y-176733200D03*
D17*
%TO.P,U17,4*%
%TO.N,I+*%
X-238607600Y-181813200D03*
%TO.P,U17,2*%
%TO.N,GND*%
X-246227600Y-179273200D03*
%TO.P,U17,5*%
%TO.N,Net-(U17-Pad5)*%
X-238607600Y-179273200D03*
%TO.P,U17,3*%
%TO.N,Net-(U17-Pad3)*%
X-246227600Y-181813200D03*
%TO.P,U17,6*%
%TO.N,/I6*%
X-238607600Y-176733200D03*
%TD*%
%TO.P,U20,6*%
%TO.N,/IB*%
X-238607600Y-188366400D03*
%TO.P,U20,3*%
%TO.N,Net-(U20-Pad3)*%
X-246227600Y-193446400D03*
%TO.P,U20,5*%
%TO.N,Net-(U20-Pad5)*%
X-238607600Y-190906400D03*
%TO.P,U20,2*%
%TO.N,GND*%
X-246227600Y-190906400D03*
%TO.P,U20,4*%
%TO.N,I-*%
X-238607600Y-193446400D03*
D10*
%TO.P,U20,1*%
%TO.N,/BOT*%
X-246227600Y-188366400D03*
%TD*%
%TO.P,U21,1*%
%TO.N,/V_D_EN*%
X-249783600Y-196265800D03*
D17*
%TO.P,U21,4*%
%TO.N,Net-(U21-Pad4)*%
X-254863600Y-203885800D03*
%TO.P,U21,2*%
%TO.N,GND*%
X-252323600Y-196265800D03*
%TO.P,U21,5*%
%TO.N,/RSense*%
X-252323600Y-203885800D03*
%TO.P,U21,3*%
%TO.N,Net-(U21-Pad3)*%
X-254863600Y-196265800D03*
%TO.P,U21,6*%
%TO.N,V_D*%
X-249783600Y-203885800D03*
%TD*%
D10*
%TO.P,U22,1*%
%TO.N,Net-(RN4-Pad4)*%
X-206938880Y-113979960D03*
D17*
%TO.P,U22,15*%
%TO.N,A0*%
X-199318880Y-146999960D03*
%TO.P,U22,2*%
%TO.N,Net-(RN4-Pad3)*%
X-206938880Y-116519960D03*
%TO.P,U22,16*%
%TO.N,A1*%
X-199318880Y-144459960D03*
%TO.P,U22,3*%
%TO.N,Net-(RN4-Pad2)*%
X-206938880Y-119059960D03*
%TO.P,U22,17*%
%TO.N,A2*%
X-199318880Y-141919960D03*
%TO.P,U22,4*%
%TO.N,Net-(RN4-Pad1)*%
X-206938880Y-121599960D03*
%TO.P,U22,18*%
%TO.N,Net-(R3-Pad2)*%
X-199318880Y-139379960D03*
%TO.P,U22,5*%
%TO.N,Net-(RN1-Pad8)*%
X-206938880Y-124139960D03*
%TO.P,U22,19*%
%TO.N,Net-(U22-Pad19)*%
X-199318880Y-136839960D03*
%TO.P,U22,6*%
%TO.N,Net-(RN1-Pad7)*%
X-206938880Y-126679960D03*
%TO.P,U22,20*%
%TO.N,Net-(U22-Pad20)*%
X-199318880Y-134299960D03*
%TO.P,U22,7*%
%TO.N,Net-(RN1-Pad6)*%
X-206938880Y-129219960D03*
%TO.P,U22,21*%
%TO.N,Net-(R1-Pad1)*%
X-199318880Y-131759960D03*
%TO.P,U22,8*%
%TO.N,Net-(RN1-Pad5)*%
X-206938880Y-131759960D03*
%TO.P,U22,22*%
%TO.N,Net-(R2-Pad1)*%
X-199318880Y-129219960D03*
%TO.P,U22,9*%
%TO.N,+5V*%
X-206938880Y-134299960D03*
%TO.P,U22,23*%
%TO.N,Net-(R4-Pad1)*%
X-199318880Y-126679960D03*
%TO.P,U22,10*%
%TO.N,GND*%
X-206938880Y-136839960D03*
%TO.P,U22,24*%
%TO.N,Net-(U22-Pad24)*%
X-199318880Y-124139960D03*
%TO.P,U22,11*%
%TO.N,~CS*%
X-206938880Y-139379960D03*
%TO.P,U22,25*%
%TO.N,Net-(U22-Pad25)*%
X-199318880Y-121599960D03*
%TO.P,U22,12*%
%TO.N,SCK*%
X-206938880Y-141919960D03*
%TO.P,U22,26*%
%TO.N,Net-(U22-Pad26)*%
X-199318880Y-119059960D03*
%TO.P,U22,13*%
%TO.N,MOSI*%
X-206938880Y-144459960D03*
%TO.P,U22,27*%
%TO.N,Net-(U22-Pad27)*%
X-199318880Y-116519960D03*
%TO.P,U22,14*%
%TO.N,MISO*%
X-206938880Y-146999960D03*
%TO.P,U22,28*%
%TO.N,Net-(U22-Pad28)*%
X-199318880Y-113979960D03*
%TD*%
D20*
%TO.N,I-*%
X-219456000Y-129032000D02*
X-219456000Y-125933200D01*
X-225399600Y-115316000D02*
X-238252000Y-115316000D01*
X-225323400Y-115392200D02*
X-225399600Y-115316000D01*
X-225323400Y-120065800D02*
X-225323400Y-115392200D01*
X-219456000Y-125933200D02*
X-225323400Y-120065800D01*
%TO.N,V-*%
X-219456000Y-131572000D02*
X-217779600Y-131572000D01*
X-267589000Y-112903000D02*
X-265176000Y-115316000D01*
X-267589000Y-92125800D02*
X-267589000Y-112903000D01*
X-267462000Y-91998800D02*
X-267589000Y-92125800D01*
X-222326200Y-91998800D02*
X-267462000Y-91998800D01*
X-221818200Y-92506800D02*
X-222326200Y-91998800D01*
X-221818200Y-121285000D02*
X-221818200Y-92506800D01*
X-218033600Y-125069600D02*
X-221818200Y-121285000D01*
X-218033600Y-131318000D02*
X-218033600Y-125069600D01*
X-217779600Y-131572000D02*
X-218033600Y-131318000D01*
X-265633200Y-193497200D02*
X-270535400Y-193497200D01*
X-263194800Y-117297200D02*
X-265176000Y-115316000D01*
X-263194800Y-127965200D02*
X-263194800Y-117297200D01*
X-264210800Y-128981200D02*
X-263194800Y-127965200D01*
X-266573000Y-128981200D02*
X-264210800Y-128981200D01*
X-270383000Y-132791200D02*
X-266573000Y-128981200D01*
X-270383000Y-193344800D02*
X-270383000Y-132791200D01*
X-270535400Y-193497200D02*
X-270383000Y-193344800D01*
%TO.N,V+*%
X-219456000Y-134112000D02*
X-216941400Y-134112000D01*
X-269671800Y-121996200D02*
X-265176000Y-126492000D01*
X-269671800Y-90805000D02*
X-269671800Y-121996200D01*
X-269214600Y-90347800D02*
X-269671800Y-90805000D01*
X-220751400Y-90347800D02*
X-269214600Y-90347800D01*
X-220167200Y-90932000D02*
X-220751400Y-90347800D01*
X-220167200Y-120650000D02*
X-220167200Y-90932000D01*
X-217068400Y-123748800D02*
X-220167200Y-120650000D01*
X-217068400Y-133985000D02*
X-217068400Y-123748800D01*
X-216941400Y-134112000D02*
X-217068400Y-133985000D01*
%TO.N,I+*%
X-238607600Y-181813200D02*
X-236093000Y-181813200D01*
X-236474000Y-128270000D02*
X-238252000Y-126492000D01*
X-236474000Y-181432200D02*
X-236474000Y-170535600D01*
X-236474000Y-170535600D02*
X-236474000Y-160401000D01*
X-236474000Y-160401000D02*
X-236474000Y-148818600D01*
X-236474000Y-148818600D02*
X-236474000Y-136906000D01*
X-236474000Y-136906000D02*
X-236474000Y-128270000D01*
X-236093000Y-181813200D02*
X-236474000Y-181432200D01*
X-238252000Y-136906000D02*
X-236626400Y-136906000D01*
X-236626400Y-136906000D02*
X-236474000Y-136906000D01*
X-238379000Y-148463000D02*
X-236829600Y-148463000D01*
X-236829600Y-148463000D02*
X-236474000Y-148818600D01*
X-238442500Y-160020000D02*
X-236855000Y-160020000D01*
X-236855000Y-160020000D02*
X-236474000Y-160401000D01*
X-238442500Y-170370500D02*
X-236474000Y-170370500D01*
X-236575600Y-170535600D02*
X-236474000Y-170535600D01*
X-236575600Y-170472100D02*
X-236575600Y-170535600D01*
X-236474000Y-170370500D02*
X-236575600Y-170472100D01*
X-236626400Y-136906000D02*
X-219710000Y-136906000D01*
X-219710000Y-136906000D02*
X-219456000Y-136652000D01*
%TO.N,GND*%
X-206938880Y-136839960D02*
X-210378040Y-136839960D01*
X-185039000Y-110744000D02*
X-185039000Y-121579000D01*
X-185674000Y-110109000D02*
X-185039000Y-110744000D01*
X-204724000Y-110109000D02*
X-185674000Y-110109000D01*
X-204724000Y-132969000D02*
X-204724000Y-110109000D01*
X-209169000Y-132969000D02*
X-204724000Y-132969000D01*
X-210439000Y-134239000D02*
X-209169000Y-132969000D01*
X-210439000Y-136779000D02*
X-210439000Y-134239000D01*
X-210378040Y-136839960D02*
X-210439000Y-136779000D01*
X-177800000Y-140432000D02*
X-177800000Y-135636000D01*
X-177292000Y-135128000D02*
X-175768000Y-135128000D01*
X-177800000Y-135636000D02*
X-177292000Y-135128000D01*
X-182880000Y-140432000D02*
X-177800000Y-140432000D01*
X-186944000Y-145572000D02*
X-196372000Y-145572000D01*
X-196372000Y-145572000D02*
X-196596000Y-145796000D01*
X-196596000Y-145796000D02*
X-203708000Y-145796000D01*
X-203708000Y-145796000D02*
X-204724000Y-144780000D01*
X-204724000Y-139054840D02*
X-206938880Y-136839960D01*
X-204724000Y-144780000D02*
X-204724000Y-139054840D01*
X-175768000Y-135128000D02*
X-175768000Y-136652000D01*
X-204724000Y-147320000D02*
X-204724000Y-144780000D01*
X-202692000Y-149352000D02*
X-204724000Y-147320000D01*
X-174752000Y-149352000D02*
X-175615600Y-149352000D01*
X-175615600Y-149352000D02*
X-191135000Y-149352000D01*
X-191135000Y-149352000D02*
X-202692000Y-149352000D01*
X-174244000Y-148844000D02*
X-174752000Y-149352000D01*
X-174244000Y-138176000D02*
X-174244000Y-148844000D01*
X-175768000Y-136652000D02*
X-174244000Y-138176000D01*
X-175768000Y-135128000D02*
X-175768000Y-110236000D01*
X-182880000Y-110744000D02*
X-184912000Y-110744000D01*
X-182372000Y-110236000D02*
X-182880000Y-110744000D01*
X-175768000Y-110236000D02*
X-182372000Y-110236000D01*
X-257556000Y-112776000D02*
X-245872000Y-112776000D01*
X-219456000Y-139192000D02*
X-212852000Y-139192000D01*
X-212852000Y-139192000D02*
X-210312000Y-136652000D01*
X-258013200Y-190957200D02*
X-252120400Y-190957200D01*
X-252120400Y-190957200D02*
X-246278400Y-190957200D01*
X-246278400Y-190957200D02*
X-246227600Y-190906400D01*
X-257810000Y-179197000D02*
X-246303800Y-179197000D01*
X-246303800Y-179197000D02*
X-246227600Y-179273200D01*
X-257810000Y-167767000D02*
X-246126000Y-167767000D01*
X-246126000Y-167767000D02*
X-246062500Y-167830500D01*
X-257810000Y-157543500D02*
X-246126000Y-157543500D01*
X-246126000Y-157543500D02*
X-246062500Y-157480000D01*
X-257619500Y-145923000D02*
X-245999000Y-145923000D01*
X-257683000Y-134239000D02*
X-245999000Y-134239000D01*
X-245999000Y-134239000D02*
X-245872000Y-134366000D01*
X-257556000Y-123952000D02*
X-245872000Y-123952000D01*
X-244348000Y-190804800D02*
X-244348000Y-179273200D01*
X-244348000Y-179273200D02*
X-244348000Y-176225200D01*
X-244297200Y-176174400D02*
X-244297200Y-168097200D01*
X-244348000Y-176225200D02*
X-244297200Y-176174400D01*
X-244297200Y-168097200D02*
X-244297200Y-157480000D01*
X-244297200Y-157480000D02*
X-244297200Y-145948400D01*
X-244297200Y-145948400D02*
X-244297200Y-134569200D01*
X-244297200Y-134569200D02*
X-244297200Y-123748800D01*
X-244398800Y-112776000D02*
X-245872000Y-112776000D01*
X-244297200Y-123748800D02*
X-244297200Y-112674400D01*
X-244297200Y-112674400D02*
X-244398800Y-112776000D01*
X-245872000Y-123952000D02*
X-244500400Y-123952000D01*
X-244500400Y-123952000D02*
X-244297200Y-123748800D01*
X-245872000Y-134366000D02*
X-244500400Y-134366000D01*
X-244500400Y-134366000D02*
X-244297200Y-134569200D01*
X-245999000Y-145923000D02*
X-244297200Y-145923000D01*
X-244297200Y-145923000D02*
X-244297200Y-145948400D01*
X-246062500Y-157480000D02*
X-244297200Y-157480000D01*
X-244297200Y-157480000D02*
X-244398800Y-157480000D01*
X-244398800Y-157480000D02*
X-244297200Y-157480000D01*
X-246062500Y-167830500D02*
X-244563900Y-167830500D01*
X-244563900Y-167830500D02*
X-244297200Y-168097200D01*
X-246227600Y-179273200D02*
X-244348000Y-179273200D01*
X-244348000Y-179273200D02*
X-244297200Y-179273200D01*
X-244297200Y-179273200D02*
X-244348000Y-179273200D01*
X-246227600Y-190906400D02*
X-244449600Y-190906400D01*
X-244449600Y-190906400D02*
X-244348000Y-190804800D01*
X-257200400Y-103479600D02*
X-254660400Y-103479600D01*
X-252323600Y-196265800D02*
X-252323600Y-191160400D01*
X-252323600Y-191160400D02*
X-252120400Y-190957200D01*
X-257200400Y-103479600D02*
X-257200400Y-106273600D01*
X-259359400Y-110972600D02*
X-257556000Y-112776000D01*
X-259359400Y-108432600D02*
X-259359400Y-110972600D01*
X-257200400Y-106273600D02*
X-259359400Y-108432600D01*
X-190809400Y-154965400D02*
X-190809400Y-149677600D01*
X-190809400Y-149677600D02*
X-191135000Y-149352000D01*
%TO.N,SCK*%
X-219456000Y-141732000D02*
X-207126840Y-141732000D01*
X-207126840Y-141732000D02*
X-206938880Y-141919960D01*
%TO.N,MOSI*%
X-219456000Y-144272000D02*
X-207126840Y-144272000D01*
X-207126840Y-144272000D02*
X-206938880Y-144459960D01*
%TO.N,MISO*%
X-219456000Y-146812000D02*
X-207126840Y-146812000D01*
X-207126840Y-146812000D02*
X-206938880Y-146999960D01*
%TO.N,Net-(J1-Pad6)*%
X-191658000Y-160502600D02*
X-202006200Y-160502600D01*
X-213156800Y-149352000D02*
X-219456000Y-149352000D01*
X-202006200Y-160502600D02*
X-213156800Y-149352000D01*
%TO.N,+5V*%
X-193929000Y-124714000D02*
X-185674000Y-124714000D01*
X-185674000Y-124714000D02*
X-185039000Y-124079000D01*
X-193929000Y-124714000D02*
X-193929000Y-122809000D01*
X-193929000Y-122809000D02*
X-202819000Y-122809000D01*
X-202819000Y-122809000D02*
X-203454000Y-123444000D01*
X-203454000Y-123444000D02*
X-203454000Y-134874000D01*
X-203454000Y-134874000D02*
X-203708000Y-134620000D01*
X-204028040Y-134299960D02*
X-206938880Y-134299960D01*
X-203708000Y-134620000D02*
X-204028040Y-134299960D01*
X-186944000Y-142972000D02*
X-182940000Y-142972000D01*
X-182940000Y-142972000D02*
X-182880000Y-143032000D01*
X-186944000Y-142972000D02*
X-197328000Y-142972000D01*
X-203708000Y-142748000D02*
X-203708000Y-134620000D01*
X-203200000Y-143256000D02*
X-203708000Y-142748000D01*
X-197612000Y-143256000D02*
X-203200000Y-143256000D01*
X-197328000Y-142972000D02*
X-197612000Y-143256000D01*
X-182880000Y-143032000D02*
X-177800000Y-143032000D01*
X-188209400Y-154965400D02*
X-188209400Y-164968400D01*
X-213715600Y-162052000D02*
X-219456000Y-162052000D01*
X-211251800Y-164515800D02*
X-213715600Y-162052000D01*
X-188662000Y-164515800D02*
X-211251800Y-164515800D01*
X-188209400Y-164968400D02*
X-188662000Y-164515800D01*
%TO.N,~CS*%
X-190358000Y-160502600D02*
X-190358000Y-158735000D01*
X-189509400Y-157886400D02*
X-189509400Y-154965400D01*
X-190358000Y-158735000D02*
X-189509400Y-157886400D01*
X-189509400Y-157886400D02*
X-196037200Y-157886400D01*
X-205486000Y-140832840D02*
X-206938880Y-139379960D01*
X-205486000Y-150393400D02*
X-205486000Y-140832840D01*
X-205257400Y-150622000D02*
X-205486000Y-150393400D01*
X-203301600Y-150622000D02*
X-205257400Y-150622000D01*
X-196037200Y-157886400D02*
X-203301600Y-150622000D01*
%TO.N,A0*%
X-177800000Y-141732000D02*
X-175768000Y-141732000D01*
X-178495960Y-146999960D02*
X-199318880Y-146999960D01*
X-176276000Y-144780000D02*
X-178495960Y-146999960D01*
X-176276000Y-142240000D02*
X-176276000Y-144780000D01*
X-175768000Y-141732000D02*
X-176276000Y-142240000D01*
%TO.N,A1*%
X-199318880Y-144459960D02*
X-190500000Y-144459960D01*
X-190500000Y-144459960D02*
X-190179960Y-144459960D01*
X-190179960Y-144459960D02*
X-190119000Y-144399000D01*
X-190500000Y-144459960D02*
X-187131960Y-144459960D01*
X-187131960Y-144459960D02*
X-186944000Y-144272000D01*
%TO.N,A2*%
X-184404000Y-141859000D02*
X-199257920Y-141859000D01*
X-182880000Y-141732000D02*
X-183007000Y-141859000D01*
X-184404000Y-141859000D02*
X-183007000Y-141859000D01*
X-199257920Y-141859000D02*
X-199318880Y-141919960D01*
%TO.N,Net-(RN1-Pad6)*%
X-212749000Y-128549000D02*
X-209779000Y-128549000D01*
X-209108040Y-129219960D02*
X-206938880Y-129219960D01*
X-209779000Y-128549000D02*
X-209108040Y-129219960D01*
%TO.N,Net-(RN1-Pad5)*%
X-212749000Y-129889000D02*
X-208809840Y-129889000D01*
X-208809840Y-129889000D02*
X-206938880Y-131759960D01*
%TO.N,Net-(RN1-Pad8)*%
X-212749000Y-125889000D02*
X-210344000Y-125889000D01*
X-209743040Y-124139960D02*
X-206938880Y-124139960D01*
X-209804000Y-124079000D02*
X-209743040Y-124139960D01*
X-209804000Y-125349000D02*
X-209804000Y-124079000D01*
X-210344000Y-125889000D02*
X-209804000Y-125349000D01*
%TO.N,Net-(RN1-Pad7)*%
X-212749000Y-127229000D02*
X-209829000Y-127229000D01*
X-207462920Y-127204000D02*
X-206938880Y-126679960D01*
X-209804000Y-127204000D02*
X-207462920Y-127204000D01*
X-209829000Y-127229000D02*
X-209804000Y-127204000D01*
%TO.N,/P6*%
X-257810000Y-176657000D02*
X-246303800Y-176657000D01*
X-246303800Y-176657000D02*
X-246227600Y-176733200D01*
%TO.N,/P5*%
X-257810000Y-165227000D02*
X-246126000Y-165227000D01*
X-246126000Y-165227000D02*
X-246062500Y-165290500D01*
%TO.N,/P2*%
X-257683000Y-131699000D02*
X-245999000Y-131699000D01*
X-245999000Y-131699000D02*
X-245872000Y-131826000D01*
%TO.N,/P1*%
X-257556000Y-121412000D02*
X-245872000Y-121412000D01*
%TO.N,/P4*%
X-257810000Y-155003500D02*
X-246126000Y-155003500D01*
X-246126000Y-155003500D02*
X-246062500Y-154940000D01*
%TO.N,/P3*%
X-257619500Y-143383000D02*
X-245999000Y-143383000D01*
%TO.N,Net-(RN4-Pad3)*%
X-215118820Y-116677840D02*
X-207096760Y-116677840D01*
X-207096760Y-116677840D02*
X-206938880Y-116519960D01*
%TO.N,Net-(RN4-Pad2)*%
X-215118820Y-117997840D02*
X-209535160Y-117997840D01*
X-209108040Y-119059960D02*
X-206938880Y-119059960D01*
X-209169000Y-118999000D02*
X-209108040Y-119059960D01*
X-209169000Y-118364000D02*
X-209169000Y-118999000D01*
X-209535160Y-117997840D02*
X-209169000Y-118364000D01*
%TO.N,Net-(RN4-Pad4)*%
X-215118820Y-115337840D02*
X-213127840Y-115337840D01*
X-211769960Y-113979960D02*
X-206938880Y-113979960D01*
X-213127840Y-115337840D02*
X-211769960Y-113979960D01*
%TO.N,Net-(RN4-Pad1)*%
X-215118820Y-119337840D02*
X-210100160Y-119337840D01*
X-207838040Y-121599960D02*
X-206938880Y-121599960D01*
X-210100160Y-119337840D02*
X-207838040Y-121599960D01*
%TO.N,/TOP*%
X-257556000Y-110236000D02*
X-245872000Y-110236000D01*
%TO.N,/BOT*%
X-258013200Y-188417200D02*
X-246278400Y-188417200D01*
X-246278400Y-188417200D02*
X-246227600Y-188366400D01*
%TO.N,/IT*%
X-249580400Y-103479600D02*
X-249732800Y-103479600D01*
X-249732800Y-103479600D02*
X-251053600Y-102158800D01*
X-251053600Y-102158800D02*
X-255244600Y-102158800D01*
X-255244600Y-102158800D02*
X-255295400Y-102209600D01*
X-255295400Y-102209600D02*
X-258318000Y-102209600D01*
X-258318000Y-102209600D02*
X-259156200Y-101371400D01*
X-259156200Y-101371400D02*
X-259156200Y-93903800D01*
X-259156200Y-93903800D02*
X-239649000Y-93903800D01*
X-239928400Y-108559600D02*
X-238252000Y-110236000D01*
X-239928400Y-102819200D02*
X-239928400Y-102971600D01*
X-239928400Y-102971600D02*
X-239928400Y-108559600D01*
X-239928400Y-102971600D02*
X-239928400Y-94183200D01*
X-239928400Y-94183200D02*
X-239649000Y-93903800D01*
%TO.N,/I1*%
X-257200400Y-100939600D02*
X-257200400Y-95275400D01*
X-240487200Y-121412000D02*
X-238252000Y-121412000D01*
X-240665000Y-121234200D02*
X-240487200Y-121412000D01*
X-240665000Y-96672400D02*
X-240665000Y-121234200D01*
X-241808000Y-95529400D02*
X-240665000Y-96672400D01*
X-256946400Y-95529400D02*
X-241808000Y-95529400D01*
X-257200400Y-95275400D02*
X-256946400Y-95529400D01*
%TO.N,/I2*%
X-252120400Y-100939600D02*
X-252120400Y-96418400D01*
X-241833400Y-97002600D02*
X-251536200Y-97002600D01*
X-241376200Y-97459800D02*
X-241833400Y-97002600D01*
X-241376200Y-97459800D02*
X-241376200Y-97891600D01*
X-252120400Y-96418400D02*
X-251536200Y-97002600D01*
X-242544600Y-131826000D02*
X-238252000Y-131826000D01*
X-242951000Y-131419600D02*
X-242544600Y-131826000D01*
X-242951000Y-108077000D02*
X-242951000Y-131419600D01*
X-241376200Y-106502200D02*
X-242951000Y-108077000D01*
X-241376200Y-97764600D02*
X-241376200Y-97891600D01*
X-241376200Y-97891600D02*
X-241376200Y-106502200D01*
%TO.N,/I3*%
X-247040400Y-100939600D02*
X-247040400Y-98069400D01*
X-243586000Y-143383000D02*
X-238379000Y-143383000D01*
X-243847198Y-143121802D02*
X-243586000Y-143383000D01*
X-243847198Y-107296798D02*
X-243847198Y-143121802D01*
X-242239800Y-105689400D02*
X-243847198Y-107296798D01*
X-242239800Y-98120200D02*
X-242239800Y-105689400D01*
X-242214400Y-98094800D02*
X-242239800Y-98120200D01*
X-247015000Y-98094800D02*
X-242214400Y-98094800D01*
X-247040400Y-98069400D02*
X-247015000Y-98094800D01*
%TO.N,/I4*%
X-252272800Y-211378800D02*
X-252272800Y-210921600D01*
X-243179600Y-154940000D02*
X-238442500Y-154940000D01*
X-243306600Y-155067000D02*
X-243179600Y-154940000D01*
X-243306600Y-204470000D02*
X-243306600Y-155067000D01*
X-244195600Y-205359000D02*
X-243306600Y-204470000D01*
X-245008400Y-205359000D02*
X-244195600Y-205359000D01*
X-245135400Y-205486000D02*
X-245008400Y-205359000D01*
X-248793000Y-205486000D02*
X-245135400Y-205486000D01*
X-250977400Y-207670400D02*
X-248793000Y-205486000D01*
X-250977400Y-209626200D02*
X-250977400Y-207670400D01*
X-252272800Y-210921600D02*
X-250977400Y-209626200D01*
%TO.N,/I5*%
X-238442500Y-165290500D02*
X-242506500Y-165290500D01*
X-245897400Y-210083400D02*
X-247192800Y-211378800D01*
X-245897400Y-206629000D02*
X-245897400Y-210083400D01*
X-245491000Y-206222600D02*
X-245897400Y-206629000D01*
X-243865400Y-206222600D02*
X-245491000Y-206222600D01*
X-242519200Y-204876400D02*
X-243865400Y-206222600D01*
X-242519200Y-165303200D02*
X-242519200Y-204876400D01*
X-242506500Y-165290500D02*
X-242519200Y-165303200D01*
%TO.N,/I6*%
X-242112800Y-211378800D02*
X-242112800Y-210870800D01*
X-241350800Y-176733200D02*
X-238607600Y-176733200D01*
X-241681000Y-177063400D02*
X-241350800Y-176733200D01*
X-241681000Y-205232000D02*
X-241681000Y-177063400D01*
X-240868200Y-206044800D02*
X-241681000Y-205232000D01*
X-240868200Y-209626200D02*
X-240868200Y-206044800D01*
X-242112800Y-210870800D02*
X-240868200Y-209626200D01*
%TO.N,/IB*%
X-244652800Y-208838800D02*
X-244652800Y-208991200D01*
X-240436400Y-190195200D02*
X-238607600Y-188366400D01*
X-240436400Y-205105000D02*
X-240436400Y-190195200D01*
X-240385600Y-205155800D02*
X-240436400Y-205105000D01*
X-235661200Y-205155800D02*
X-240385600Y-205155800D01*
X-235127800Y-205689200D02*
X-235661200Y-205155800D01*
X-235127800Y-213842600D02*
X-235127800Y-205689200D01*
X-236347000Y-215061800D02*
X-235127800Y-213842600D01*
X-242214400Y-215061800D02*
X-236347000Y-215061800D01*
X-243332000Y-213944200D02*
X-242214400Y-215061800D01*
X-243332000Y-210312000D02*
X-243332000Y-213944200D01*
X-244652800Y-208991200D02*
X-243332000Y-210312000D01*
%TO.N,/RSense*%
X-252272800Y-208838800D02*
X-252272800Y-203936600D01*
X-252272800Y-203936600D02*
X-252323600Y-203885800D01*
%TO.N,Net-(R3-Pad2)*%
X-199318880Y-139379960D02*
X-195894960Y-139379960D01*
X-195320920Y-139954000D02*
X-193929000Y-139954000D01*
X-195894960Y-139379960D02*
X-195320920Y-139954000D01*
%TD*%
M02*
