%TF.GenerationSoftware,KiCad,Pcbnew,(5.1.9-0-10_14)*%
%TF.CreationDate,2021-02-14T15:56:36+00:00*%
%TF.ProjectId,solar_mux_1,736f6c61-725f-46d7-9578-5f312e6b6963,rev?*%
%TF.SameCoordinates,Original*%
%TF.FileFunction,Legend,Bot*%
%TF.FilePolarity,Positive*%
%FSLAX46Y46*%
G04 Gerber Fmt 4.6, Leading zero omitted, Abs format (unit mm)*
G04 Created by KiCad (PCBNEW (5.1.9-0-10_14)) date 2021-02-14 15:56:36*
%MOMM*%
%LPD*%
G01*
G04 APERTURE LIST*
%ADD10C,0.120000*%
%ADD11C,0.150000*%
G04 APERTURE END LIST*
D10*
%TO.C,U1*%
X-264016000Y-108906000D02*
X-262366000Y-108906000D01*
X-264016000Y-116646000D02*
X-264016000Y-108906000D01*
X-258716000Y-116646000D02*
X-264016000Y-116646000D01*
X-258716000Y-108906000D02*
X-258716000Y-116646000D01*
X-260366000Y-108906000D02*
X-258716000Y-108906000D01*
X-262366000Y-108906000D02*
G75*
G03*
X-260366000Y-108906000I1000000J0D01*
G01*
%TO.C,U2*%
X-260366000Y-120082000D02*
X-258716000Y-120082000D01*
X-258716000Y-120082000D02*
X-258716000Y-127822000D01*
X-258716000Y-127822000D02*
X-264016000Y-127822000D01*
X-264016000Y-127822000D02*
X-264016000Y-120082000D01*
X-264016000Y-120082000D02*
X-262366000Y-120082000D01*
X-262366000Y-120082000D02*
G75*
G03*
X-260366000Y-120082000I1000000J0D01*
G01*
%TO.C,U3*%
X-264143000Y-130369000D02*
X-262493000Y-130369000D01*
X-264143000Y-138109000D02*
X-264143000Y-130369000D01*
X-258843000Y-138109000D02*
X-264143000Y-138109000D01*
X-258843000Y-130369000D02*
X-258843000Y-138109000D01*
X-260493000Y-130369000D02*
X-258843000Y-130369000D01*
X-262493000Y-130369000D02*
G75*
G03*
X-260493000Y-130369000I1000000J0D01*
G01*
%TO.C,U4*%
X-260429500Y-142053000D02*
X-258779500Y-142053000D01*
X-258779500Y-142053000D02*
X-258779500Y-149793000D01*
X-258779500Y-149793000D02*
X-264079500Y-149793000D01*
X-264079500Y-149793000D02*
X-264079500Y-142053000D01*
X-264079500Y-142053000D02*
X-262429500Y-142053000D01*
X-262429500Y-142053000D02*
G75*
G03*
X-260429500Y-142053000I1000000J0D01*
G01*
%TO.C,U5*%
X-264270000Y-153673500D02*
X-262620000Y-153673500D01*
X-264270000Y-161413500D02*
X-264270000Y-153673500D01*
X-258970000Y-161413500D02*
X-264270000Y-161413500D01*
X-258970000Y-153673500D02*
X-258970000Y-161413500D01*
X-260620000Y-153673500D02*
X-258970000Y-153673500D01*
X-262620000Y-153673500D02*
G75*
G03*
X-260620000Y-153673500I1000000J0D01*
G01*
%TO.C,U6*%
X-260620000Y-163897000D02*
X-258970000Y-163897000D01*
X-258970000Y-163897000D02*
X-258970000Y-171637000D01*
X-258970000Y-171637000D02*
X-264270000Y-171637000D01*
X-264270000Y-171637000D02*
X-264270000Y-163897000D01*
X-264270000Y-163897000D02*
X-262620000Y-163897000D01*
X-262620000Y-163897000D02*
G75*
G03*
X-260620000Y-163897000I1000000J0D01*
G01*
%TO.C,U7*%
X-260620000Y-175327000D02*
X-258970000Y-175327000D01*
X-258970000Y-175327000D02*
X-258970000Y-183067000D01*
X-258970000Y-183067000D02*
X-264270000Y-183067000D01*
X-264270000Y-183067000D02*
X-264270000Y-175327000D01*
X-264270000Y-175327000D02*
X-262620000Y-175327000D01*
X-262620000Y-175327000D02*
G75*
G03*
X-260620000Y-175327000I1000000J0D01*
G01*
%TO.C,U10*%
X-264473200Y-187087200D02*
X-262823200Y-187087200D01*
X-264473200Y-194827200D02*
X-264473200Y-187087200D01*
X-259173200Y-194827200D02*
X-264473200Y-194827200D01*
X-259173200Y-187087200D02*
X-259173200Y-194827200D01*
X-260823200Y-187087200D02*
X-259173200Y-187087200D01*
X-262823200Y-187087200D02*
G75*
G03*
X-260823200Y-187087200I1000000J0D01*
G01*
%TO.C,U1*%
D11*
X-260604095Y-107358380D02*
X-260604095Y-108167904D01*
X-260651714Y-108263142D01*
X-260699333Y-108310761D01*
X-260794571Y-108358380D01*
X-260985047Y-108358380D01*
X-261080285Y-108310761D01*
X-261127904Y-108263142D01*
X-261175523Y-108167904D01*
X-261175523Y-107358380D01*
X-262175523Y-108358380D02*
X-261604095Y-108358380D01*
X-261889809Y-108358380D02*
X-261889809Y-107358380D01*
X-261794571Y-107501238D01*
X-261699333Y-107596476D01*
X-261604095Y-107644095D01*
%TO.C,U2*%
X-260604095Y-118534380D02*
X-260604095Y-119343904D01*
X-260651714Y-119439142D01*
X-260699333Y-119486761D01*
X-260794571Y-119534380D01*
X-260985047Y-119534380D01*
X-261080285Y-119486761D01*
X-261127904Y-119439142D01*
X-261175523Y-119343904D01*
X-261175523Y-118534380D01*
X-261604095Y-118629619D02*
X-261651714Y-118582000D01*
X-261746952Y-118534380D01*
X-261985047Y-118534380D01*
X-262080285Y-118582000D01*
X-262127904Y-118629619D01*
X-262175523Y-118724857D01*
X-262175523Y-118820095D01*
X-262127904Y-118962952D01*
X-261556476Y-119534380D01*
X-262175523Y-119534380D01*
%TO.C,U3*%
X-260731095Y-128821380D02*
X-260731095Y-129630904D01*
X-260778714Y-129726142D01*
X-260826333Y-129773761D01*
X-260921571Y-129821380D01*
X-261112047Y-129821380D01*
X-261207285Y-129773761D01*
X-261254904Y-129726142D01*
X-261302523Y-129630904D01*
X-261302523Y-128821380D01*
X-261683476Y-128821380D02*
X-262302523Y-128821380D01*
X-261969190Y-129202333D01*
X-262112047Y-129202333D01*
X-262207285Y-129249952D01*
X-262254904Y-129297571D01*
X-262302523Y-129392809D01*
X-262302523Y-129630904D01*
X-262254904Y-129726142D01*
X-262207285Y-129773761D01*
X-262112047Y-129821380D01*
X-261826333Y-129821380D01*
X-261731095Y-129773761D01*
X-261683476Y-129726142D01*
%TO.C,U4*%
X-260667595Y-140505380D02*
X-260667595Y-141314904D01*
X-260715214Y-141410142D01*
X-260762833Y-141457761D01*
X-260858071Y-141505380D01*
X-261048547Y-141505380D01*
X-261143785Y-141457761D01*
X-261191404Y-141410142D01*
X-261239023Y-141314904D01*
X-261239023Y-140505380D01*
X-262143785Y-140838714D02*
X-262143785Y-141505380D01*
X-261905690Y-140457761D02*
X-261667595Y-141172047D01*
X-262286642Y-141172047D01*
%TO.C,U5*%
X-260858095Y-152125880D02*
X-260858095Y-152935404D01*
X-260905714Y-153030642D01*
X-260953333Y-153078261D01*
X-261048571Y-153125880D01*
X-261239047Y-153125880D01*
X-261334285Y-153078261D01*
X-261381904Y-153030642D01*
X-261429523Y-152935404D01*
X-261429523Y-152125880D01*
X-262381904Y-152125880D02*
X-261905714Y-152125880D01*
X-261858095Y-152602071D01*
X-261905714Y-152554452D01*
X-262000952Y-152506833D01*
X-262239047Y-152506833D01*
X-262334285Y-152554452D01*
X-262381904Y-152602071D01*
X-262429523Y-152697309D01*
X-262429523Y-152935404D01*
X-262381904Y-153030642D01*
X-262334285Y-153078261D01*
X-262239047Y-153125880D01*
X-262000952Y-153125880D01*
X-261905714Y-153078261D01*
X-261858095Y-153030642D01*
%TO.C,U6*%
X-260858095Y-162349380D02*
X-260858095Y-163158904D01*
X-260905714Y-163254142D01*
X-260953333Y-163301761D01*
X-261048571Y-163349380D01*
X-261239047Y-163349380D01*
X-261334285Y-163301761D01*
X-261381904Y-163254142D01*
X-261429523Y-163158904D01*
X-261429523Y-162349380D01*
X-262334285Y-162349380D02*
X-262143809Y-162349380D01*
X-262048571Y-162397000D01*
X-262000952Y-162444619D01*
X-261905714Y-162587476D01*
X-261858095Y-162777952D01*
X-261858095Y-163158904D01*
X-261905714Y-163254142D01*
X-261953333Y-163301761D01*
X-262048571Y-163349380D01*
X-262239047Y-163349380D01*
X-262334285Y-163301761D01*
X-262381904Y-163254142D01*
X-262429523Y-163158904D01*
X-262429523Y-162920809D01*
X-262381904Y-162825571D01*
X-262334285Y-162777952D01*
X-262239047Y-162730333D01*
X-262048571Y-162730333D01*
X-261953333Y-162777952D01*
X-261905714Y-162825571D01*
X-261858095Y-162920809D01*
%TO.C,U7*%
X-260858095Y-173779380D02*
X-260858095Y-174588904D01*
X-260905714Y-174684142D01*
X-260953333Y-174731761D01*
X-261048571Y-174779380D01*
X-261239047Y-174779380D01*
X-261334285Y-174731761D01*
X-261381904Y-174684142D01*
X-261429523Y-174588904D01*
X-261429523Y-173779380D01*
X-261810476Y-173779380D02*
X-262477142Y-173779380D01*
X-262048571Y-174779380D01*
%TO.C,U10*%
X-260585104Y-185539580D02*
X-260585104Y-186349104D01*
X-260632723Y-186444342D01*
X-260680342Y-186491961D01*
X-260775580Y-186539580D01*
X-260966057Y-186539580D01*
X-261061295Y-186491961D01*
X-261108914Y-186444342D01*
X-261156533Y-186349104D01*
X-261156533Y-185539580D01*
X-262156533Y-186539580D02*
X-261585104Y-186539580D01*
X-261870819Y-186539580D02*
X-261870819Y-185539580D01*
X-261775580Y-185682438D01*
X-261680342Y-185777676D01*
X-261585104Y-185825295D01*
X-262775580Y-185539580D02*
X-262870819Y-185539580D01*
X-262966057Y-185587200D01*
X-263013676Y-185634819D01*
X-263061295Y-185730057D01*
X-263108914Y-185920533D01*
X-263108914Y-186158628D01*
X-263061295Y-186349104D01*
X-263013676Y-186444342D01*
X-262966057Y-186491961D01*
X-262870819Y-186539580D01*
X-262775580Y-186539580D01*
X-262680342Y-186491961D01*
X-262632723Y-186444342D01*
X-262585104Y-186349104D01*
X-262537485Y-186158628D01*
X-262537485Y-185920533D01*
X-262585104Y-185730057D01*
X-262632723Y-185634819D01*
X-262680342Y-185587200D01*
X-262775580Y-185539580D01*
%TD*%
M02*
